BBB DM Sans-Light.ufo
<glyph name="exclam" format="1">
  <advance width="233"/>
  <unicode hex="0021"/>
  <outline>
    <contour>
      <point x="85" y="185" type="line"/>
      <point x="144" y="185" type="line"/>
      <point x="153" y="700" type="line"/>
      <point x="77" y="700" type="line"/>
    </contour>
    <component base="period" xOffset="26" identifier="A1637A1B"/>
  </outline>
</glyph>
<glyph name="quotedbl" format="1">
  <advance width="263"/>
  <unicode hex="0022"/>
  <outline>
    <contour>
      <point x="168" y="562" type="line"/>
      <point x="217" y="562" type="line"/>
      <point x="226" y="755" type="line"/>
      <point x="157" y="755" type="line"/>
    </contour>
    <contour>
      <point x="47" y="562" type="line"/>
      <point x="96" y="562" type="line"/>
      <point x="106" y="755" type="line"/>
      <point x="37" y="755" type="line"/>
    </contour>
  </outline>
</glyph>
<glyph name="numbersign" format="1">
  <advance width="800"/>
  <unicode hex="0023"/>
  <outline>
    <contour>
      <point x="436" y="0" type="line"/>
      <point x="503" y="0" type="line"/>
      <point x="653" y="700" type="line"/>
      <point x="586" y="700" type="line"/>
    </contour>
    <contour>
      <point x="147" y="0" type="line"/>
      <point x="214" y="0" type="line"/>
      <point x="364" y="700" type="line"/>
      <point x="297" y="700" type="line"/>
    </contour>
    <contour>
      <point x="50" y="204" type="line"/>
      <point x="710" y="204" type="line"/>
      <point x="710" y="266" type="line"/>
      <point x="50" y="266" type="line"/>
    </contour>
    <contour>
      <point x="89" y="434" type="line"/>
      <point x="750" y="434" type="line"/>
      <point x="750" y="496" type="line"/>
      <point x="89" y="496" type="line"/>
    </contour>
  </outline>
</glyph>
<glyph name="dollar" format="1">
  <advance width="572"/>
  <unicode hex="0024"/>
  <outline>
    <contour>
      <point x="253" y="-87" type="line"/>
      <point x="323" y="-87" type="line"/>
      <point x="323" y="791" type="line"/>
      <point x="253" y="791" type="line"/>
    </contour>
    <component base="S"/>
  </outline>
</glyph>
<glyph name="percent" format="1">
  <advance width="742"/>
  <unicode hex="0025"/>
  <outline>
    <contour>
      <point x="127" y="0" type="line"/>
      <point x="198" y="0" type="line"/>
      <point x="608" y="700" type="line"/>
      <point x="538" y="700" type="line"/>
    </contour>
    <contour>
      <point x="196" y="381" type="curve" smooth="yes"/>
      <point x="284" y="381"/>
      <point x="352" y="445"/>
      <point x="352" y="546" type="curve" smooth="yes"/>
      <point x="352" y="647"/>
      <point x="285" y="711"/>
      <point x="197" y="711" type="curve" smooth="yes"/>
      <point x="109" y="711"/>
      <point x="40" y="647"/>
      <point x="40" y="546" type="curve" smooth="yes"/>
      <point x="40" y="445"/>
      <point x="108" y="381"/>
    </contour>
    <contour>
      <point x="196" y="438" type="curve" smooth="yes"/>
      <point x="147" y="438"/>
      <point x="102" y="474"/>
      <point x="102" y="546" type="curve" smooth="yes"/>
      <point x="102" y="619"/>
      <point x="148" y="655"/>
      <point x="197" y="655" type="curve" smooth="yes"/>
      <point x="246" y="655"/>
      <point x="290" y="619"/>
      <point x="290" y="546" type="curve" smooth="yes"/>
      <point x="290" y="474"/>
      <point x="245" y="438"/>
    </contour>
    <contour>
      <point x="546" y="-12" type="curve" smooth="yes"/>
      <point x="634" y="-12"/>
      <point x="702" y="52"/>
      <point x="702" y="153" type="curve" smooth="yes"/>
      <point x="702" y="254"/>
      <point x="635" y="318"/>
      <point x="547" y="318" type="curve" smooth="yes"/>
      <point x="459" y="318"/>
      <point x="390" y="254"/>
      <point x="390" y="153" type="curve" smooth="yes"/>
      <point x="390" y="52"/>
      <point x="458" y="-12"/>
    </contour>
    <contour>
      <point x="546" y="45" type="curve" smooth="yes"/>
      <point x="497" y="45"/>
      <point x="452" y="81"/>
      <point x="452" y="153" type="curve" smooth="yes"/>
      <point x="452" y="226"/>
      <point x="498" y="262"/>
      <point x="547" y="262" type="curve" smooth="yes"/>
      <point x="597" y="262"/>
      <point x="640" y="226"/>
      <point x="640" y="153" type="curve" smooth="yes"/>
      <point x="640" y="81"/>
      <point x="595" y="45"/>
    </contour>
  </outline>
</glyph>
<glyph name="ampersand" format="1">
  <advance width="720"/>
  <unicode hex="0026"/>
  <outline>
    <contour>
      <point x="613" y="0" type="line"/>
      <point x="704" y="0" type="line"/>
      <point x="281" y="428" type="line" smooth="yes"/>
      <point x="233" y="479"/>
      <point x="208" y="518"/>
      <point x="208" y="563" type="curve" smooth="yes"/>
      <point x="208" y="616"/>
      <point x="246" y="654"/>
      <point x="310" y="654" type="curve" smooth="yes"/>
      <point x="362" y="654"/>
      <point x="411" y="620"/>
      <point x="410" y="557" type="curve"/>
      <point x="480" y="557" type="line"/>
      <point x="484" y="649"/>
      <point x="411" y="712"/>
      <point x="310" y="712" type="curve" smooth="yes"/>
      <point x="204" y="712"/>
      <point x="138" y="650"/>
      <point x="138" y="562" type="curve" smooth="yes"/>
      <point x="138" y="501"/>
      <point x="164" y="456"/>
      <point x="224" y="395" type="curve" smooth="yes"/>
    </contour>
    <contour>
      <point x="278" y="-12" type="curve" smooth="yes"/>
      <point x="423" y="-12"/>
      <point x="516" y="64"/>
      <point x="641" y="280" type="curve" smooth="yes"/>
      <point x="688" y="362" type="line"/>
      <point x="613" y="362" type="line"/>
      <point x="579" y="304" type="line" smooth="yes"/>
      <point x="466" y="114"/>
      <point x="393" y="49"/>
      <point x="278" y="49" type="curve" smooth="yes"/>
      <point x="179" y="49"/>
      <point x="110" y="114"/>
      <point x="110" y="202" type="curve" smooth="yes"/>
      <point x="110" y="280"/>
      <point x="156" y="337"/>
      <point x="254" y="372" type="curve" smooth="yes"/>
      <point x="291" y="385" type="line"/>
      <point x="252" y="432" type="line"/>
      <point x="223" y="422" type="line" smooth="yes"/>
      <point x="104" y="381"/>
      <point x="40" y="303"/>
      <point x="40" y="200" type="curve" smooth="yes"/>
      <point x="40" y="72"/>
      <point x="137" y="-12"/>
    </contour>
  </outline>
</glyph>
<glyph name="quotesingle" format="1">
  <advance width="147"/>
  <unicode hex="0027"/>
  <outline>
    <contour>
      <point x="49" y="562" type="line"/>
      <point x="98" y="562" type="line"/>
      <point x="110" y="755" type="line"/>
      <point x="37" y="755" type="line"/>
    </contour>
  </outline>
</glyph>
<glyph name="parenleft" format="1">
  <advance width="364"/>
  <unicode hex="0028"/>
  <outline>
    <contour>
      <point x="251" y="-145" type="curve"/>
      <point x="324" y="-145" type="line"/>
      <point x="324" y="-138" type="line"/>
      <point x="202" y="-20"/>
      <point x="118" y="145"/>
      <point x="118" y="333" type="curve" smooth="yes"/>
      <point x="118" y="521"/>
      <point x="201" y="686"/>
      <point x="323" y="804" type="curve"/>
      <point x="323" y="811" type="line"/>
      <point x="251" y="811" type="line"/>
      <point x="143" y="710"/>
      <point x="48" y="545"/>
      <point x="48" y="333" type="curve" smooth="yes"/>
      <point x="48" y="121"/>
      <point x="143" y="-44"/>
    </contour>
  </outline>
</glyph>
<glyph name="parenright" format="1">
  <advance width="364"/>
  <unicode hex="0029"/>
  <outline>
    <contour>
      <point x="40" y="-145" type="line"/>
      <point x="113" y="-145" type="line"/>
      <point x="221" y="-44"/>
      <point x="316" y="121"/>
      <point x="316" y="333" type="curve" smooth="yes"/>
      <point x="316" y="545"/>
      <point x="221" y="710"/>
      <point x="113" y="811" type="curve"/>
      <point x="41" y="811" type="line"/>
      <point x="41" y="804" type="line"/>
      <point x="163" y="686"/>
      <point x="246" y="521"/>
      <point x="246" y="333" type="curve" smooth="yes"/>
      <point x="246" y="145"/>
      <point x="162" y="-20"/>
      <point x="40" y="-138" type="curve"/>
    </contour>
  </outline>
</glyph>
<glyph name="asterisk" format="1">
  <advance width="469"/>
  <unicode hex="002A"/>
  <outline>
    <contour>
      <point x="207" y="360" type="line"/>
      <point x="265" y="360" type="line"/>
      <point x="253" y="517" type="line"/>
      <point x="382" y="431" type="line"/>
      <point x="411" y="483" type="line"/>
      <point x="269" y="547" type="line"/>
      <point x="410" y="611" type="line"/>
      <point x="382" y="662" type="line"/>
      <point x="253" y="575" type="line"/>
      <point x="266" y="732" type="line"/>
      <point x="207" y="732" type="line"/>
      <point x="219" y="575" type="line"/>
      <point x="89" y="662" type="line"/>
      <point x="60" y="610" type="line"/>
      <point x="201" y="547" type="line"/>
      <point x="59" y="483" type="line"/>
      <point x="89" y="430" type="line"/>
      <point x="218" y="517" type="line"/>
    </contour>
  </outline>
</glyph>
<glyph name="plus" format="1">
  <advance width="579"/>
  <unicode hex="002B"/>
  <outline>
    <contour>
      <point x="257" y="75" type="line"/>
      <point x="322" y="75" type="line"/>
      <point x="322" y="505" type="line"/>
      <point x="257" y="505" type="line"/>
    </contour>
    <contour>
      <point x="65" y="261" type="line"/>
      <point x="514" y="261" type="line"/>
      <point x="514" y="321" type="line"/>
      <point x="65" y="321" type="line"/>
    </contour>
  </outline>
</glyph>
<glyph name="period" format="1">
  <advance width="181"/>
  <unicode hex="002E"/>
  <outline>
    <contour>
      <point x="91" y="-5" type="curve" smooth="yes"/>
      <point x="119" y="-5"/>
      <point x="141" y="18"/>
      <point x="141" y="47" type="curve" smooth="yes"/>
      <point x="141" y="76"/>
      <point x="119" y="98"/>
      <point x="91" y="98" type="curve" smooth="yes"/>
      <point x="62" y="98"/>
      <point x="40" y="76"/>
      <point x="40" y="47" type="curve" smooth="yes"/>
      <point x="40" y="18"/>
      <point x="62" y="-5"/>
    </contour>
  </outline>
</glyph>
<glyph name="slash" format="1">
  <advance width="381"/>
  <unicode hex="002F"/>
  <outline>
    <contour>
      <point x="30" y="-90" type="line"/>
      <point x="99" y="-90" type="line"/>
      <point x="351" y="760" type="line"/>
      <point x="281" y="760" type="line"/>
    </contour>
  </outline>
</glyph>
<glyph name="zero" format="1">
  <advance width="688"/>
  <unicode hex="0030"/>
  <outline>
    <contour>
      <point x="344" y="-12" type="curve" smooth="yes"/>
      <point x="529" y="-12"/>
      <point x="640" y="133"/>
      <point x="640" y="350" type="curve" smooth="yes"/>
      <point x="640" y="566"/>
      <point x="529" y="712"/>
      <point x="344" y="712" type="curve" smooth="yes"/>
      <point x="160" y="712"/>
      <point x="48" y="566"/>
      <point x="48" y="350" type="curve" smooth="yes"/>
      <point x="48" y="133"/>
      <point x="160" y="-12"/>
    </contour>
    <contour>
      <point x="344" y="49" type="curve" smooth="yes"/>
      <point x="215" y="49"/>
      <point x="120" y="162"/>
      <point x="120" y="350" type="curve" smooth="yes"/>
      <point x="120" y="538"/>
      <point x="215" y="650"/>
      <point x="344" y="650" type="curve" smooth="yes"/>
      <point x="473" y="650"/>
      <point x="568" y="538"/>
      <point x="568" y="350" type="curve" smooth="yes"/>
      <point x="568" y="162"/>
      <point x="473" y="49"/>
    </contour>
  </outline>
</glyph>
<glyph name="one" format="1">
  <advance width="289"/>
  <unicode hex="0031"/>
  <outline>
    <contour>
      <point x="142" y="0" type="line"/>
      <point x="213" y="0" type="line"/>
      <point x="213" y="700" type="line"/>
      <point x="163" y="700" type="line"/>
      <point x="31" y="643" type="line"/>
      <point x="31" y="598" type="line"/>
      <point x="142" y="623" type="line"/>
    </contour>
  </outline>
</glyph>
<glyph name="two" format="1">
  <advance width="572"/>
  <unicode hex="0032"/>
  <outline>
    <contour>
      <point x="67" y="0" type="line"/>
      <point x="522" y="0" type="line"/>
      <point x="522" y="59" type="line"/>
      <point x="174" y="59" type="line"/>
      <point x="299" y="163"/>
      <point x="496" y="337"/>
      <point x="496" y="503" type="curve" smooth="yes"/>
      <point x="496" y="647"/>
      <point x="406" y="712"/>
      <point x="289" y="712" type="curve" smooth="yes"/>
      <point x="163" y="712"/>
      <point x="73" y="629"/>
      <point x="73" y="495" type="curve"/>
      <point x="141" y="495" type="line"/>
      <point x="140" y="578"/>
      <point x="189" y="652"/>
      <point x="289" y="652" type="curve" smooth="yes"/>
      <point x="392" y="652"/>
      <point x="426" y="580"/>
      <point x="426" y="502" type="curve" smooth="yes"/>
      <point x="426" y="364"/>
      <point x="261" y="202"/>
      <point x="67" y="48" type="curve"/>
    </contour>
  </outline>
</glyph>
<glyph name="three" format="1">
  <advance width="585"/>
  <unicode hex="0033"/>
  <outline>
    <contour>
      <point x="291" y="-12" type="curve" smooth="yes"/>
      <point x="443" y="-12"/>
      <point x="522" y="86"/>
      <point x="522" y="201" type="curve" smooth="yes"/>
      <point x="522" y="304"/>
      <point x="458" y="366"/>
      <point x="375" y="384" type="curve"/>
      <point x="457" y="404"/>
      <point x="492" y="472"/>
      <point x="492" y="539" type="curve" smooth="yes"/>
      <point x="492" y="633"/>
      <point x="423" y="712"/>
      <point x="291" y="712" type="curve" smooth="yes"/>
      <point x="166" y="712"/>
      <point x="84" y="632"/>
      <point x="79" y="523" type="curve"/>
      <point x="151" y="523" type="line"/>
      <point x="157" y="597"/>
      <point x="209" y="650"/>
      <point x="291" y="650" type="curve" smooth="yes"/>
      <point x="377" y="650"/>
      <point x="420" y="601"/>
      <point x="420" y="535" type="curve" smooth="yes"/>
      <point x="420" y="458"/>
      <point x="364" y="410"/>
      <point x="267" y="410" type="curve" smooth="yes"/>
      <point x="214" y="410" type="line"/>
      <point x="214" y="350" type="line"/>
      <point x="266" y="350" type="line" smooth="yes"/>
      <point x="365" y="350"/>
      <point x="450" y="305"/>
      <point x="450" y="200" type="curve" smooth="yes"/>
      <point x="450" y="117"/>
      <point x="396" y="50"/>
      <point x="291" y="50" type="curve" smooth="yes"/>
      <point x="185" y="50"/>
      <point x="125" y="121"/>
      <point x="123" y="205" type="curve"/>
      <point x="51" y="205" type="line"/>
      <point x="56" y="62"/>
      <point x="156" y="-12"/>
    </contour>
  </outline>
</glyph>
<glyph name="four" format="1">
  <advance width="593"/>
  <unicode hex="0034"/>
  <outline>
    <contour>
      <point x="392" y="0" type="line"/>
      <point x="461" y="0" type="line"/>
      <point x="461" y="157" type="line"/>
      <point x="568" y="157" type="line"/>
      <point x="568" y="218" type="line"/>
      <point x="461" y="218" type="line"/>
      <point x="461" y="700" type="line"/>
      <point x="378" y="700" type="line"/>
      <point x="34" y="210" type="line"/>
      <point x="34" y="157" type="line"/>
      <point x="392" y="157" type="line"/>
    </contour>
    <contour>
      <point x="113" y="218" type="line"/>
      <point x="395" y="622" type="line"/>
      <point x="395" y="218" type="line"/>
    </contour>
  </outline>
</glyph>
<glyph name="five" format="1">
  <advance width="610"/>
  <unicode hex="0035"/>
  <outline>
    <contour>
      <point x="310" y="-12" type="curve" smooth="yes"/>
      <point x="466" y="-12"/>
      <point x="550" y="104"/>
      <point x="550" y="236" type="curve" smooth="yes"/>
      <point x="550" y="379"/>
      <point x="454" y="481"/>
      <point x="320" y="481" type="curve" smooth="yes"/>
      <point x="243" y="481"/>
      <point x="183" y="451"/>
      <point x="150" y="410" type="curve"/>
      <point x="193" y="639" type="line"/>
      <point x="499" y="639" type="line"/>
      <point x="499" y="700" type="line"/>
      <point x="138" y="700" type="line"/>
      <point x="78" y="321" type="line"/>
      <point x="144" y="321" type="line"/>
      <point x="172" y="381"/>
      <point x="232" y="421"/>
      <point x="315" y="421" type="curve" smooth="yes"/>
      <point x="415" y="421"/>
      <point x="483" y="345"/>
      <point x="483" y="235" type="curve" smooth="yes"/>
      <point x="483" y="130"/>
      <point x="418" y="48"/>
      <point x="311" y="48" type="curve" smooth="yes"/>
      <point x="216" y="48"/>
      <point x="150" y="103"/>
      <point x="133" y="186" type="curve"/>
      <point x="64" y="186" type="line"/>
      <point x="81" y="73"/>
      <point x="168" y="-12"/>
    </contour>
  </outline>
</glyph>
<glyph name="six" format="1">
  <advance width="629"/>
  <unicode hex="0036"/>
  <outline>
    <contour>
      <point x="324" y="-12" type="curve" smooth="yes"/>
      <point x="476" y="-12"/>
      <point x="565" y="107"/>
      <point x="565" y="222" type="curve" smooth="yes"/>
      <point x="565" y="357"/>
      <point x="452" y="447"/>
      <point x="332" y="447" type="curve" smooth="yes"/>
      <point x="227" y="447"/>
      <point x="154" y="389"/>
      <point x="121" y="324" type="curve"/>
      <point x="127" y="548"/>
      <point x="212" y="650"/>
      <point x="324" y="650" type="curve" smooth="yes"/>
      <point x="406" y="650"/>
      <point x="463" y="604"/>
      <point x="477" y="523" type="curve"/>
      <point x="542" y="523" type="line"/>
      <point x="529" y="628"/>
      <point x="452" y="712"/>
      <point x="324" y="712" type="curve" smooth="yes"/>
      <point x="155" y="712"/>
      <point x="56" y="551"/>
      <point x="56" y="321" type="curve" smooth="yes"/>
      <point x="56" y="155"/>
      <point x="125" y="-12"/>
    </contour>
    <contour>
      <point x="319" y="50" type="curve" smooth="yes"/>
      <point x="220" y="50"/>
      <point x="144" y="121"/>
      <point x="144" y="217" type="curve" smooth="yes"/>
      <point x="144" y="307"/>
      <point x="220" y="385"/>
      <point x="319" y="385" type="curve" smooth="yes"/>
      <point x="419" y="385"/>
      <point x="493" y="319"/>
      <point x="493" y="218" type="curve" smooth="yes"/>
      <point x="493" y="121"/>
      <point x="419" y="50"/>
    </contour>
  </outline>
</glyph>
<glyph name="seven" format="1">
  <advance width="533"/>
  <unicode hex="0037"/>
  <outline>
    <contour>
      <point x="140" y="0" type="line"/>
      <point x="215" y="0" type="line"/>
      <point x="494" y="646" type="line"/>
      <point x="494" y="700" type="line"/>
      <point x="26" y="700" type="line"/>
      <point x="26" y="640" type="line"/>
      <point x="422" y="640" type="line"/>
    </contour>
  </outline>
</glyph>
<glyph name="eight" format="1">
  <advance width="604"/>
  <unicode hex="0038"/>
  <outline>
    <contour>
      <point x="302" y="-12" type="curve" smooth="yes"/>
      <point x="438" y="-12"/>
      <point x="540" y="70"/>
      <point x="540" y="188" type="curve" smooth="yes"/>
      <point x="540" y="274"/>
      <point x="483" y="351"/>
      <point x="398" y="372" type="curve"/>
      <point x="478" y="397"/>
      <point x="521" y="460"/>
      <point x="521" y="526" type="curve" smooth="yes"/>
      <point x="521" y="630"/>
      <point x="437" y="712"/>
      <point x="302" y="712" type="curve" smooth="yes"/>
      <point x="167" y="712"/>
      <point x="83" y="630"/>
      <point x="83" y="526" type="curve" smooth="yes"/>
      <point x="83" y="460"/>
      <point x="126" y="397"/>
      <point x="206" y="372" type="curve"/>
      <point x="121" y="351"/>
      <point x="64" y="274"/>
      <point x="64" y="188" type="curve" smooth="yes"/>
      <point x="64" y="70"/>
      <point x="166" y="-12"/>
    </contour>
    <contour>
      <point x="302" y="51" type="curve" smooth="yes"/>
      <point x="190" y="51"/>
      <point x="135" y="107"/>
      <point x="135" y="192" type="curve" smooth="yes"/>
      <point x="135" y="289"/>
      <point x="201" y="337"/>
      <point x="302" y="337" type="curve" smooth="yes"/>
      <point x="403" y="337"/>
      <point x="469" y="289"/>
      <point x="469" y="192" type="curve" smooth="yes"/>
      <point x="469" y="107"/>
      <point x="414" y="51"/>
    </contour>
    <contour>
      <point x="302" y="399" type="curve" smooth="yes"/>
      <point x="212" y="399"/>
      <point x="155" y="450"/>
      <point x="155" y="524" type="curve" smooth="yes"/>
      <point x="155" y="608"/>
      <point x="211" y="650"/>
      <point x="302" y="650" type="curve" smooth="yes"/>
      <point x="393" y="650"/>
      <point x="449" y="608"/>
      <point x="449" y="524" type="curve" smooth="yes"/>
      <point x="449" y="450"/>
      <point x="392" y="399"/>
    </contour>
  </outline>
</glyph>
<glyph name="nine" format="1">
  <advance width="629"/>
  <unicode hex="0039"/>
  <outline>
    <contour>
      <point x="305" y="-12" type="curve" smooth="yes"/>
      <point x="474" y="-12"/>
      <point x="573" y="149"/>
      <point x="573" y="379" type="curve" smooth="yes"/>
      <point x="573" y="545"/>
      <point x="504" y="712"/>
      <point x="305" y="712" type="curve" smooth="yes"/>
      <point x="153" y="712"/>
      <point x="64" y="593"/>
      <point x="64" y="478" type="curve" smooth="yes"/>
      <point x="64" y="343"/>
      <point x="177" y="253"/>
      <point x="297" y="253" type="curve" smooth="yes"/>
      <point x="402" y="253"/>
      <point x="475" y="311"/>
      <point x="508" y="376" type="curve"/>
      <point x="502" y="152"/>
      <point x="417" y="50"/>
      <point x="305" y="50" type="curve" smooth="yes"/>
      <point x="223" y="50"/>
      <point x="166" y="96"/>
      <point x="152" y="177" type="curve"/>
      <point x="87" y="177" type="line"/>
      <point x="100" y="72"/>
      <point x="177" y="-12"/>
    </contour>
    <contour>
      <point x="310" y="315" type="curve" smooth="yes"/>
      <point x="210" y="315"/>
      <point x="136" y="381"/>
      <point x="136" y="482" type="curve" smooth="yes"/>
      <point x="136" y="579"/>
      <point x="210" y="650"/>
      <point x="310" y="650" type="curve" smooth="yes"/>
      <point x="409" y="650"/>
      <point x="485" y="579"/>
      <point x="485" y="483" type="curve" smooth="yes"/>
      <point x="485" y="393"/>
      <point x="409" y="315"/>
    </contour>
  </outline>
</glyph>
<glyph name="less" format="1">
  <advance width="492"/>
  <unicode hex="003C"/>
  <outline>
    <contour>
      <point x="325" y="138" type="line"/>
      <point x="414" y="138" type="line"/>
      <point x="162" y="370" type="line"/>
      <point x="414" y="602" type="line"/>
      <point x="325" y="602" type="line"/>
      <point x="74" y="370" type="line"/>
    </contour>
  </outline>
</glyph>
<glyph name="equal" format="1">
  <advance width="520"/>
  <unicode hex="003D"/>
  <outline>
    <contour>
      <point x="65" y="363" type="line"/>
      <point x="455" y="363" type="line"/>
      <point x="455" y="423" type="line"/>
      <point x="65" y="423" type="line"/>
    </contour>
    <contour>
      <point x="65" y="160" type="line"/>
      <point x="455" y="160" type="line"/>
      <point x="455" y="219" type="line"/>
      <point x="65" y="219" type="line"/>
    </contour>
  </outline>
</glyph>
<glyph name="greater" format="1">
  <advance width="492"/>
  <unicode hex="003E"/>
  <outline>
    <contour>
      <point x="78" y="138" type="line"/>
      <point x="167" y="138" type="line"/>
      <point x="418" y="370" type="line"/>
      <point x="167" y="602" type="line"/>
      <point x="78" y="602" type="line"/>
      <point x="330" y="370" type="line"/>
    </contour>
  </outline>
</glyph>
<glyph name="question" format="1">
  <advance width="512"/>
  <unicode hex="003F"/>
  <outline>
    <contour>
      <point x="156" y="189" type="line"/>
      <point x="216" y="189" type="line"/>
      <point x="219" y="299" type="line"/>
      <point x="363" y="299"/>
      <point x="467" y="357"/>
      <point x="467" y="508" type="curve" smooth="yes"/>
      <point x="467" y="632"/>
      <point x="377" y="712"/>
      <point x="249" y="712" type="curve" smooth="yes"/>
      <point x="123" y="712"/>
      <point x="34" y="635"/>
      <point x="34" y="514" type="curve"/>
      <point x="101" y="514" type="line"/>
      <point x="101" y="599"/>
      <point x="158" y="652"/>
      <point x="249" y="652" type="curve" smooth="yes"/>
      <point x="339" y="652"/>
      <point x="400" y="597"/>
      <point x="400" y="508" type="curve" smooth="yes"/>
      <point x="400" y="371"/>
      <point x="293" y="349"/>
      <point x="178" y="349" type="curve" smooth="yes"/>
      <point x="152" y="349" type="line"/>
    </contour>
    <component base="period" xOffset="94" identifier="85E48756"/>
  </outline>
</glyph>
<glyph name="at" format="1">
  <advance width="1002"/>
  <unicode hex="0040"/>
  <outline>
    <contour>
      <point x="428" y="-195" type="curve" smooth="yes"/>
      <point x="495" y="-195"/>
      <point x="560" y="-183"/>
      <point x="619" y="-159" type="curve"/>
      <point x="608" y="-110" type="line"/>
      <point x="558" y="-133"/>
      <point x="499" y="-144"/>
      <point x="443" y="-144" type="curve" smooth="yes"/>
      <point x="253" y="-144"/>
      <point x="133" y="-40"/>
      <point x="134" y="143" type="curve" smooth="yes"/>
      <point x="134" y="389"/>
      <point x="314" y="585"/>
      <point x="558" y="585" type="curve" smooth="yes"/>
      <point x="752" y="585"/>
      <point x="869" y="477"/>
      <point x="869" y="299" type="curve" smooth="yes"/>
      <point x="869" y="186"/>
      <point x="820" y="43"/>
      <point x="730" y="43" type="curve" smooth="yes"/>
      <point x="679" y="43"/>
      <point x="665" y="84"/>
      <point x="675" y="143" type="curve" smooth="yes"/>
      <point x="726" y="434" type="line"/>
      <point x="665" y="434" type="line"/>
      <point x="642" y="301" type="line"/>
      <point x="662" y="313" type="line"/>
      <point x="654" y="400"/>
      <point x="602" y="446"/>
      <point x="518" y="446" type="curve" smooth="yes"/>
      <point x="374" y="446"/>
      <point x="276" y="312"/>
      <point x="276" y="165" type="curve" smooth="yes"/>
      <point x="276" y="61"/>
      <point x="335" y="-6"/>
      <point x="437" y="-6" type="curve" smooth="yes"/>
      <point x="523" y="-6"/>
      <point x="604" y="47"/>
      <point x="639" y="133" type="curve"/>
      <point x="623" y="157" type="line"/>
      <point x="619" y="122" type="line" smooth="yes"/>
      <point x="611" y="47"/>
      <point x="643" y="-6"/>
      <point x="720" y="-6" type="curve" smooth="yes"/>
      <point x="852" y="-6"/>
      <point x="927" y="151"/>
      <point x="927" y="303" type="curve" smooth="yes"/>
      <point x="927" y="500"/>
      <point x="787" y="636"/>
      <point x="567" y="636" type="curve" smooth="yes"/>
      <point x="281" y="636"/>
      <point x="75" y="417"/>
      <point x="75" y="136" type="curve" smooth="yes"/>
      <point x="75" y="-67"/>
      <point x="217" y="-195"/>
    </contour>
    <contour>
      <point x="457" y="49" type="curve" smooth="yes"/>
      <point x="381" y="49"/>
      <point x="341" y="99"/>
      <point x="341" y="175" type="curve" smooth="yes"/>
      <point x="341" y="283"/>
      <point x="408" y="391"/>
      <point x="518" y="391" type="curve" smooth="yes"/>
      <point x="605" y="391"/>
      <point x="643" y="322"/>
      <point x="633" y="238" type="curve"/>
      <point x="621" y="126"/>
      <point x="547" y="49"/>
    </contour>
  </outline>
</glyph>
<glyph name="A" format="1">
  <advance width="652"/>
  <unicode hex="0041"/>
  <outline>
    <contour>
      <point x="32" y="0" type="line"/>
      <point x="106" y="0" type="line"/>
      <point x="343" y="654" type="line"/>
      <point x="309" y="654" type="line"/>
      <point x="546" y="0" type="line"/>
      <point x="620" y="0" type="line"/>
      <point x="362" y="700" type="line"/>
      <point x="291" y="700" type="line"/>
    </contour>
    <contour>
      <point x="152" y="186" type="line"/>
      <point x="500" y="186" type="line"/>
      <point x="479" y="244" type="line"/>
      <point x="173" y="244" type="line"/>
    </contour>
    <contour>
      <point x="620" y="0" type="move" name="ogonek"/>
    </contour>
    <contour>
      <point x="327" y="700" type="move" name="top"/>
    </contour>
  </outline>
</glyph>
<glyph name="B" format="1">
  <advance width="593"/>
  <unicode hex="0042"/>
  <outline>
    <contour>
      <point x="76" y="0" type="line"/>
      <point x="318" y="0" type="line" smooth="yes"/>
      <point x="465" y="0"/>
      <point x="544" y="86"/>
      <point x="544" y="191" type="curve" smooth="yes"/>
      <point x="544" y="288"/>
      <point x="467" y="362"/>
      <point x="378" y="364" type="curve"/>
      <point x="365" y="354" type="line"/>
      <point x="447" y="363"/>
      <point x="528" y="414"/>
      <point x="528" y="523" type="curve" smooth="yes"/>
      <point x="528" y="621"/>
      <point x="458" y="700"/>
      <point x="311" y="700" type="curve" smooth="yes"/>
      <point x="76" y="700" type="line"/>
    </contour>
    <contour>
      <point x="146" y="59" type="line"/>
      <point x="146" y="332" type="line"/>
      <point x="310" y="332" type="line" smooth="yes"/>
      <point x="410" y="332"/>
      <point x="472" y="278"/>
      <point x="472" y="194" type="curve" smooth="yes"/>
      <point x="472" y="110"/>
      <point x="414" y="59"/>
      <point x="313" y="59" type="curve" smooth="yes"/>
    </contour>
    <contour>
      <point x="146" y="390" type="line"/>
      <point x="146" y="641" type="line"/>
      <point x="306" y="641" type="line" smooth="yes"/>
      <point x="407" y="641"/>
      <point x="456" y="591"/>
      <point x="456" y="516" type="curve" smooth="yes"/>
      <point x="456" y="438"/>
      <point x="404" y="390"/>
      <point x="309" y="390" type="curve" smooth="yes"/>
    </contour>
  </outline>
</glyph>
<glyph name="C" format="1">
  <advance width="715"/>
  <unicode hex="0043"/>
  <outline>
    <contour>
      <point x="380" y="-12" type="curve" smooth="yes"/>
      <point x="538" y="-12"/>
      <point x="638" y="66"/>
      <point x="667" y="198" type="curve"/>
      <point x="589" y="198" type="line"/>
      <point x="567" y="109"/>
      <point x="499" y="49"/>
      <point x="380" y="49" type="curve" smooth="yes"/>
      <point x="223" y="49"/>
      <point x="120" y="162"/>
      <point x="120" y="350" type="curve" smooth="yes"/>
      <point x="120" y="538"/>
      <point x="223" y="651"/>
      <point x="380" y="651" type="curve" smooth="yes"/>
      <point x="499" y="651"/>
      <point x="567" y="591"/>
      <point x="589" y="500" type="curve"/>
      <point x="667" y="500" type="line"/>
      <point x="638" y="634"/>
      <point x="538" y="712"/>
      <point x="380" y="712" type="curve" smooth="yes"/>
      <point x="176" y="712"/>
      <point x="48" y="565"/>
      <point x="48" y="350" type="curve" smooth="yes"/>
      <point x="48" y="134"/>
      <point x="176" y="-12"/>
    </contour>
    <contour>
      <point x="380" y="0" type="move" name="bottom"/>
    </contour>
    <contour>
      <point x="380" y="700" type="move" name="top"/>
    </contour>
  </outline>
</glyph>
<glyph name="D" format="1">
  <advance width="691"/>
  <unicode hex="0044"/>
  <outline>
    <contour>
      <point x="76" y="0" type="line"/>
      <point x="283" y="0" type="line" smooth="yes"/>
      <point x="530" y="0"/>
      <point x="643" y="131"/>
      <point x="643" y="348" type="curve" smooth="yes"/>
      <point x="643" y="568"/>
      <point x="530" y="700"/>
      <point x="283" y="700" type="curve" smooth="yes"/>
      <point x="76" y="700" type="line"/>
    </contour>
    <contour>
      <point x="146" y="58" type="line"/>
      <point x="146" y="642" type="line"/>
      <point x="283" y="642" type="line" smooth="yes"/>
      <point x="495" y="642"/>
      <point x="571" y="530"/>
      <point x="571" y="348" type="curve" smooth="yes"/>
      <point x="571" y="168"/>
      <point x="495" y="58"/>
      <point x="283" y="58" type="curve" smooth="yes"/>
    </contour>
    <contour>
      <point x="284" y="700" type="move" name="top"/>
    </contour>
  </outline>
</glyph>
<glyph name="E" format="1">
  <advance width="559"/>
  <unicode hex="0045"/>
  <outline>
    <contour>
      <point x="76" y="0" type="line"/>
      <point x="501" y="0" type="line"/>
      <point x="501" y="58" type="line"/>
      <point x="146" y="58" type="line"/>
      <point x="146" y="323" type="line"/>
      <point x="471" y="323" type="line"/>
      <point x="471" y="381" type="line"/>
      <point x="146" y="381" type="line"/>
      <point x="146" y="642" type="line"/>
      <point x="501" y="642" type="line"/>
      <point x="501" y="700" type="line"/>
      <point x="76" y="700" type="line"/>
    </contour>
    <contour>
      <point x="294" y="0" type="move" name="bottom"/>
    </contour>
    <contour>
      <point x="501" y="0" type="move" name="ogonek"/>
    </contour>
    <contour>
      <point x="294" y="700" type="move" name="top"/>
    </contour>
  </outline>
</glyph>
<glyph name="G" format="1">
  <advance width="752"/>
  <unicode hex="0047"/>
  <outline>
    <contour>
      <point x="375" y="-12" type="curve" smooth="yes"/>
      <point x="501" y="-12"/>
      <point x="570" y="36"/>
      <point x="622" y="122" type="curve"/>
      <point x="628" y="0" type="line"/>
      <point x="692" y="0" type="line"/>
      <point x="692" y="371" type="line"/>
      <point x="409" y="371" type="line"/>
      <point x="409" y="314" type="line"/>
      <point x="620" y="314" type="line"/>
      <point x="609" y="150"/>
      <point x="532" y="51"/>
      <point x="375" y="51" type="curve" smooth="yes"/>
      <point x="225" y="51"/>
      <point x="120" y="164"/>
      <point x="120" y="350" type="curve" smooth="yes"/>
      <point x="120" y="536"/>
      <point x="225" y="648"/>
      <point x="385" y="648" type="curve" smooth="yes"/>
      <point x="501" y="648"/>
      <point x="578" y="590"/>
      <point x="597" y="500" type="curve"/>
      <point x="679" y="500" type="line"/>
      <point x="649" y="633"/>
      <point x="539" y="712"/>
      <point x="385" y="712" type="curve" smooth="yes"/>
      <point x="179" y="712"/>
      <point x="48" y="564"/>
      <point x="48" y="350" type="curve" smooth="yes"/>
      <point x="48" y="135"/>
      <point x="179" y="-12"/>
    </contour>
    <contour>
      <point x="385" y="0" type="move" name="bottom"/>
    </contour>
    <contour>
      <point x="385" y="700" type="move" name="top"/>
    </contour>
  </outline>
</glyph>
<glyph name="H" format="1">
  <advance width="671"/>
  <unicode hex="0048"/>
  <outline>
    <contour>
      <point x="525" y="0" type="line"/>
      <point x="595" y="0" type="line"/>
      <point x="595" y="700" type="line"/>
      <point x="525" y="700" type="line"/>
    </contour>
    <contour>
      <point x="76" y="0" type="line"/>
      <point x="146" y="0" type="line"/>
      <point x="146" y="700" type="line"/>
      <point x="76" y="700" type="line"/>
    </contour>
    <contour>
      <point x="130" y="327" type="line"/>
      <point x="545" y="327" type="line"/>
      <point x="545" y="385" type="line"/>
      <point x="130" y="385" type="line"/>
    </contour>
  </outline>
</glyph>
<glyph name="I" format="1">
  <advance width="222"/>
  <unicode hex="0049"/>
  <outline>
    <contour>
      <point x="76" y="0" type="line"/>
      <point x="146" y="0" type="line"/>
      <point x="146" y="700" type="line"/>
      <point x="76" y="700" type="line"/>
    </contour>
    <contour>
      <point x="146" y="1" type="move" name="ogonek"/>
    </contour>
    <contour>
      <point x="111" y="700" type="move" name="top"/>
    </contour>
  </outline>
</glyph>
<glyph name="J" format="1">
  <advance width="489"/>
  <unicode hex="004A"/>
  <outline>
    <contour>
      <point x="223" y="-12" type="curve" smooth="yes"/>
      <point x="343" y="-12"/>
      <point x="413" y="59"/>
      <point x="413" y="180" type="curve" smooth="yes"/>
      <point x="413" y="700" type="line"/>
      <point x="343" y="700" type="line"/>
      <point x="343" y="180" type="line" smooth="yes"/>
      <point x="343" y="107"/>
      <point x="314" y="50"/>
      <point x="223" y="50" type="curve" smooth="yes"/>
      <point x="130" y="50"/>
      <point x="99" y="109"/>
      <point x="98" y="181" type="curve"/>
      <point x="27" y="181" type="line"/>
      <point x="27" y="61"/>
      <point x="100" y="-12"/>
    </contour>
  </outline>
</glyph>
<glyph name="K" format="1">
  <advance width="564"/>
  <unicode hex="004B"/>
  <outline>
    <contour>
      <point x="76" y="0" type="line"/>
      <point x="146" y="0" type="line"/>
      <point x="146" y="280" type="line"/>
      <point x="227" y="366" type="line"/>
      <point x="456" y="0" type="line"/>
      <point x="541" y="0" type="line"/>
      <point x="277" y="420" type="line"/>
      <point x="538" y="700" type="line"/>
      <point x="449" y="700" type="line"/>
      <point x="146" y="372" type="line"/>
      <point x="146" y="700" type="line"/>
      <point x="76" y="700" type="line"/>
    </contour>
    <contour>
      <point x="284" y="0" type="move" name="bottom"/>
    </contour>
    <contour>
      <point x="284" y="700" type="move" name="top"/>
    </contour>
  </outline>
</glyph>
<glyph name="L" format="1">
  <advance width="517"/>
  <unicode hex="004C"/>
  <outline>
    <contour>
      <point x="76" y="0" type="line"/>
      <point x="477" y="0" type="line"/>
      <point x="477" y="57" type="line"/>
      <point x="146" y="57" type="line"/>
      <point x="146" y="700" type="line"/>
      <point x="76" y="700" type="line"/>
    </contour>
    <contour>
      <point x="291" y="0" type="move" name="bottom"/>
    </contour>
    <contour>
      <point x="282" y="350" type="move" name="center"/>
    </contour>
    <contour>
      <point x="291" y="0" type="move" name="commaaccent"/>
    </contour>
    <contour>
      <point x="117" y="700" type="move" name="top"/>
    </contour>
    <contour>
      <point x="477" y="700" type="move" name="topright"/>
    </contour>
  </outline>
</glyph>
<glyph name="M" format="1">
  <advance width="835"/>
  <unicode hex="004D"/>
  <outline>
    <contour>
      <point x="76" y="0" type="line"/>
      <point x="146" y="0" type="line"/>
      <point x="146" y="620" type="line"/>
      <point x="119" y="621" type="line"/>
      <point x="392" y="100" type="line"/>
      <point x="443" y="100" type="line"/>
      <point x="715" y="621" type="line"/>
      <point x="689" y="620" type="line"/>
      <point x="689" y="0" type="line"/>
      <point x="759" y="0" type="line"/>
      <point x="759" y="700" type="line"/>
      <point x="678" y="700" type="line"/>
      <point x="400" y="164" type="line"/>
      <point x="435" y="164" type="line"/>
      <point x="156" y="700" type="line"/>
      <point x="76" y="700" type="line"/>
    </contour>
  </outline>
</glyph>
<glyph name="N" format="1">
  <advance width="679"/>
  <unicode hex="004E"/>
  <outline>
    <contour>
      <point x="76" y="0" type="line"/>
      <point x="146" y="0" type="line"/>
      <point x="146" y="583" type="line"/>
      <point x="533" y="0" type="line"/>
      <point x="603" y="0" type="line"/>
      <point x="603" y="700" type="line"/>
      <point x="533" y="700" type="line"/>
      <point x="533" y="118" type="line"/>
      <point x="146" y="700" type="line"/>
      <point x="76" y="700" type="line"/>
    </contour>
    <contour>
      <point x="340" y="0" type="move" name="bottom"/>
    </contour>
    <contour>
      <point x="340" y="700" type="move" name="top"/>
    </contour>
  </outline>
</glyph>
<glyph name="O" format="1">
  <advance width="782"/>
  <unicode hex="004F"/>
  <outline>
    <contour>
      <point x="391" y="-12" type="curve" smooth="yes"/>
      <point x="598" y="-12"/>
      <point x="734" y="135"/>
      <point x="734" y="350" type="curve" smooth="yes"/>
      <point x="734" y="564"/>
      <point x="598" y="712"/>
      <point x="391" y="712" type="curve" smooth="yes"/>
      <point x="185" y="712"/>
      <point x="48" y="564"/>
      <point x="48" y="350" type="curve" smooth="yes"/>
      <point x="48" y="135"/>
      <point x="185" y="-12"/>
    </contour>
    <contour>
      <point x="391" y="49" type="curve" smooth="yes"/>
      <point x="230" y="49"/>
      <point x="120" y="162"/>
      <point x="120" y="350" type="curve" smooth="yes"/>
      <point x="120" y="538"/>
      <point x="230" y="650"/>
      <point x="391" y="650" type="curve" smooth="yes"/>
      <point x="552" y="650"/>
      <point x="662" y="538"/>
      <point x="662" y="350" type="curve" smooth="yes"/>
      <point x="662" y="162"/>
      <point x="552" y="49"/>
    </contour>
    <contour>
      <point x="391" y="700" type="move" name="top"/>
    </contour>
  </outline>
</glyph>
<glyph name="P" format="1">
  <advance width="570"/>
  <unicode hex="0050"/>
  <outline>
    <contour>
      <point x="76" y="0" type="line"/>
      <point x="146" y="0" type="line"/>
      <point x="146" y="299" type="line"/>
      <point x="297" y="299" type="line" smooth="yes"/>
      <point x="461" y="299"/>
      <point x="533" y="386"/>
      <point x="533" y="499" type="curve" smooth="yes"/>
      <point x="533" y="614"/>
      <point x="459" y="700"/>
      <point x="297" y="700" type="curve" smooth="yes"/>
      <point x="76" y="700" type="line"/>
    </contour>
    <contour>
      <point x="146" y="359" type="line"/>
      <point x="146" y="641" type="line"/>
      <point x="297" y="641" type="line" smooth="yes"/>
      <point x="415" y="641"/>
      <point x="461" y="589"/>
      <point x="461" y="499" type="curve" smooth="yes"/>
      <point x="461" y="413"/>
      <point x="415" y="359"/>
      <point x="297" y="359" type="curve" smooth="yes"/>
    </contour>
  </outline>
</glyph>
<glyph name="Q" format="1">
  <advance width="789"/>
  <unicode hex="0051"/>
  <outline>
    <contour>
      <point x="657" y="-137" type="line"/>
      <point x="751" y="-137" type="line"/>
      <point x="538" y="59" type="line"/>
      <point x="474" y="33" type="line"/>
    </contour>
    <component base="O" identifier="A8CCF3DE"/>
  </outline>
</glyph>
<glyph name="R" format="1">
  <advance width="583"/>
  <unicode hex="0052"/>
  <outline>
    <contour>
      <point x="76" y="0" type="line"/>
      <point x="146" y="0" type="line"/>
      <point x="146" y="293" type="line"/>
      <point x="287" y="293" type="line" smooth="yes"/>
      <point x="451" y="293"/>
      <point x="524" y="385"/>
      <point x="524" y="497" type="curve" smooth="yes"/>
      <point x="524" y="612"/>
      <point x="454" y="700"/>
      <point x="292" y="700" type="curve" smooth="yes"/>
      <point x="76" y="700" type="line"/>
    </contour>
    <contour>
      <point x="448" y="0" type="line"/>
      <point x="532" y="0" type="line"/>
      <point x="371" y="315" type="line"/>
      <point x="291" y="315" type="line"/>
    </contour>
    <contour>
      <point x="146" y="350" type="line"/>
      <point x="146" y="641" type="line"/>
      <point x="286" y="641" type="line" smooth="yes"/>
      <point x="404" y="641"/>
      <point x="452" y="585"/>
      <point x="452" y="497" type="curve" smooth="yes"/>
      <point x="452" y="412"/>
      <point x="401" y="350"/>
      <point x="287" y="350" type="curve" smooth="yes"/>
    </contour>
    <contour>
      <point x="303" y="0" type="move" name="bottom"/>
    </contour>
    <contour>
      <point x="263" y="700" type="move" name="top"/>
    </contour>
  </outline>
</glyph>
<glyph name="S" format="1">
  <advance width="572"/>
  <unicode hex="0053"/>
  <outline>
    <contour>
      <point x="294" y="-12" type="curve" smooth="yes"/>
      <point x="450" y="-12"/>
      <point x="527" y="83"/>
      <point x="527" y="180" type="curve" smooth="yes"/>
      <point x="527" y="295"/>
      <point x="456" y="344"/>
      <point x="356" y="378" type="curve" smooth="yes"/>
      <point x="229" y="421"/>
      <point x="142" y="434"/>
      <point x="142" y="530" type="curve" smooth="yes"/>
      <point x="142" y="606"/>
      <point x="200" y="652"/>
      <point x="282" y="652" type="curve" smooth="yes"/>
      <point x="383" y="652"/>
      <point x="430" y="582"/>
      <point x="430" y="520" type="curve"/>
      <point x="502" y="520" type="line"/>
      <point x="502" y="630"/>
      <point x="417" y="712"/>
      <point x="286" y="712" type="curve" smooth="yes"/>
      <point x="151" y="712"/>
      <point x="69" y="632"/>
      <point x="70" y="522" type="curve" smooth="yes"/>
      <point x="71" y="436"/>
      <point x="119" y="385"/>
      <point x="227" y="348" type="curve" smooth="yes"/>
      <point x="347" y="307"/>
      <point x="455" y="295"/>
      <point x="455" y="176" type="curve" smooth="yes"/>
      <point x="455" y="104"/>
      <point x="397" y="47"/>
      <point x="294" y="47" type="curve" smooth="yes"/>
      <point x="177" y="47"/>
      <point x="117" y="122"/>
      <point x="117" y="210" type="curve"/>
      <point x="44" y="210" type="line"/>
      <point x="44" y="79"/>
      <point x="139" y="-12"/>
    </contour>
    <contour>
      <point x="292" y="0" type="move" name="bottom"/>
    </contour>
    <contour>
      <point x="284" y="700" type="move" name="top"/>
    </contour>
  </outline>
</glyph>
<glyph name="T" format="1">
  <advance width="550"/>
  <unicode hex="0054"/>
  <outline>
    <contour>
      <point x="240" y="0" type="line"/>
      <point x="310" y="0" type="line"/>
      <point x="310" y="642" type="line"/>
      <point x="520" y="642" type="line"/>
      <point x="520" y="700" type="line"/>
      <point x="30" y="700" type="line"/>
      <point x="30" y="642" type="line"/>
      <point x="240" y="642" type="line"/>
    </contour>
    <contour>
      <point x="273" y="0" type="move" name="bottom"/>
    </contour>
    <contour>
      <point x="275" y="700" type="move" name="top"/>
    </contour>
  </outline>
</glyph>
<glyph name="U" format="1">
  <advance width="648"/>
  <unicode hex="0055"/>
  <outline>
    <contour>
      <point x="324" y="-12" type="curve" smooth="yes"/>
      <point x="466" y="-12"/>
      <point x="578" y="70"/>
      <point x="578" y="255" type="curve" smooth="yes"/>
      <point x="578" y="700" type="line"/>
      <point x="508" y="700" type="line"/>
      <point x="508" y="254" type="line" smooth="yes"/>
      <point x="508" y="109"/>
      <point x="434" y="50"/>
      <point x="325" y="50" type="curve" smooth="yes"/>
      <point x="216" y="50"/>
      <point x="140" y="109"/>
      <point x="140" y="254" type="curve" smooth="yes"/>
      <point x="140" y="700" type="line"/>
      <point x="70" y="700" type="line"/>
      <point x="70" y="255" type="line" smooth="yes"/>
      <point x="70" y="70"/>
      <point x="182" y="-12"/>
    </contour>
    <contour>
      <point x="392" y="0" type="move" name="ogonek"/>
    </contour>
    <contour>
      <point x="323" y="700" type="move" name="top"/>
    </contour>
  </outline>
</glyph>
<glyph name="V" format="1">
  <advance width="658"/>
  <unicode hex="0056"/>
  <outline>
    <contour>
      <point x="289" y="0" type="line"/>
      <point x="369" y="0" type="line"/>
      <point x="634" y="700" type="line"/>
      <point x="560" y="700" type="line"/>
      <point x="329" y="76" type="line"/>
      <point x="100" y="700" type="line"/>
      <point x="24" y="700" type="line"/>
    </contour>
  </outline>
</glyph>
<glyph name="W" format="1">
  <advance width="954"/>
  <unicode hex="0057"/>
  <outline>
    <contour>
      <point x="220" y="-1" type="line"/>
      <point x="296" y="0" type="line"/>
      <point x="488" y="635" type="line"/>
      <point x="465" y="635" type="line"/>
      <point x="652" y="0" type="line"/>
      <point x="730" y="0" type="line"/>
      <point x="928" y="700" type="line"/>
      <point x="853" y="700" type="line"/>
      <point x="681" y="42" type="line"/>
      <point x="705" y="42" type="line"/>
      <point x="518" y="700" type="line"/>
      <point x="440" y="700" type="line"/>
      <point x="248" y="43" type="line"/>
      <point x="272" y="43" type="line"/>
      <point x="101" y="700" type="line"/>
      <point x="26" y="700" type="line"/>
    </contour>
    <contour>
      <point x="478" y="0" type="move" name="bottom"/>
    </contour>
    <contour>
      <point x="478" y="700" type="move" name="top"/>
    </contour>
  </outline>
</glyph>
<glyph name="X" format="1">
  <advance width="584"/>
  <unicode hex="0058"/>
  <outline>
    <contour>
      <point x="465" y="0" type="line"/>
      <point x="543" y="0" type="line"/>
      <point x="118" y="700" type="line"/>
      <point x="40" y="700" type="line"/>
    </contour>
    <contour>
      <point x="40" y="0" type="line"/>
      <point x="118" y="0" type="line"/>
      <point x="305" y="323" type="line"/>
      <point x="265" y="375" type="line"/>
    </contour>
    <contour>
      <point x="320" y="331" type="line"/>
      <point x="544" y="700" type="line"/>
      <point x="466" y="700" type="line"/>
      <point x="280" y="383" type="line"/>
    </contour>
  </outline>
</glyph>
<glyph name="Y" format="1">
  <advance width="564"/>
  <unicode hex="0059"/>
  <outline>
    <contour>
      <point x="248" y="0" type="line"/>
      <point x="318" y="0" type="line"/>
      <point x="318" y="272" type="line"/>
      <point x="542" y="700" type="line"/>
      <point x="464" y="700" type="line"/>
      <point x="267" y="304" type="line"/>
      <point x="299" y="304" type="line"/>
      <point x="101" y="700" type="line"/>
      <point x="22" y="700" type="line"/>
      <point x="248" y="272" type="line"/>
    </contour>
    <contour>
      <point x="283" y="700" type="move" name="top"/>
    </contour>
  </outline>
</glyph>
<glyph name="Z" format="1">
  <advance width="525"/>
  <unicode hex="005A"/>
  <outline>
    <contour>
      <point x="43" y="0" type="line"/>
      <point x="482" y="0" type="line"/>
      <point x="482" y="62" type="line"/>
      <point x="125" y="62" type="line"/>
      <point x="477" y="644" type="line"/>
      <point x="477" y="700" type="line"/>
      <point x="49" y="700" type="line"/>
      <point x="49" y="638" type="line"/>
      <point x="395" y="638" type="line"/>
      <point x="43" y="56" type="line"/>
    </contour>
    <contour>
      <point x="263" y="700" type="move" name="top"/>
    </contour>
  </outline>
</glyph>
<glyph name="bracketleft" format="1">
  <advance width="290"/>
  <unicode hex="005B"/>
  <outline>
    <contour>
      <point x="76" y="-145" type="line"/>
      <point x="230" y="-145" type="line"/>
      <point x="230" y="-86" type="line"/>
      <point x="142" y="-86" type="line"/>
      <point x="142" y="753" type="line"/>
      <point x="230" y="753" type="line"/>
      <point x="230" y="811" type="line"/>
      <point x="76" y="811" type="line"/>
    </contour>
  </outline>
</glyph>
<glyph name="backslash" format="1">
  <advance width="381"/>
  <unicode hex="005C"/>
  <outline>
    <contour>
      <point x="282" y="-90" type="line"/>
      <point x="351" y="-90" type="line"/>
      <point x="100" y="760" type="line"/>
      <point x="30" y="760" type="line"/>
    </contour>
  </outline>
</glyph>
<glyph name="bracketright" format="1">
  <advance width="290"/>
  <unicode hex="005D"/>
  <outline>
    <contour>
      <point x="60" y="-145" type="line"/>
      <point x="214" y="-145" type="line"/>
      <point x="214" y="811" type="line"/>
      <point x="60" y="811" type="line"/>
      <point x="60" y="753" type="line"/>
      <point x="148" y="753" type="line"/>
      <point x="148" y="-86" type="line"/>
      <point x="60" y="-86" type="line"/>
    </contour>
  </outline>
</glyph>
<glyph name="asciicircum" format="1">
  <advance width="606"/>
  <unicode hex="005E"/>
  <outline>
    <contour>
      <point x="38" y="181" type="line"/>
      <point x="110" y="181" type="line"/>
      <point x="304" y="612" type="line"/>
      <point x="496" y="181" type="line"/>
      <point x="569" y="181" type="line"/>
      <point x="335" y="700" type="line"/>
      <point x="272" y="700" type="line"/>
    </contour>
  </outline>
</glyph>
<glyph name="underscore" format="1">
  <advance width="629"/>
  <unicode hex="005F"/>
  <outline>
    <contour>
      <point x="60" y="-100" type="line"/>
      <point x="569" y="-100" type="line"/>
      <point x="569" y="-35" type="line"/>
      <point x="60" y="-35" type="line"/>
    </contour>
  </outline>
</glyph>
<glyph name="grave" format="1">
  <advance width="253"/>
  <unicode hex="0060"/>
  <outline>
    <contour>
      <point x="229" y="538" type="line"/>
      <point x="229" y="592" type="line"/>
      <point x="24" y="720" type="line"/>
      <point x="24" y="657" type="line"/>
    </contour>
    <contour>
      <point x="186" y="496" type="move" name="_top"/>
    </contour>
  </outline>
</glyph>
<glyph name="a" format="1">
  <advance width="530"/>
  <unicode hex="0061"/>
  <outline>
    <contour>
      <point x="408" y="0" type="line"/>
      <point x="472" y="0" type="line"/>
      <point x="472" y="305" type="line" smooth="yes"/>
      <point x="472" y="425"/>
      <point x="407" y="508"/>
      <point x="270" y="508" type="curve" smooth="yes"/>
      <point x="170" y="508"/>
      <point x="71" y="451"/>
      <point x="59" y="344" type="curve"/>
      <point x="133" y="344" type="line"/>
      <point x="145" y="412"/>
      <point x="201" y="448"/>
      <point x="270" y="448" type="curve" smooth="yes"/>
      <point x="351" y="448"/>
      <point x="402" y="398"/>
      <point x="402" y="305" type="curve" smooth="yes"/>
      <point x="402" y="169" type="line"/>
    </contour>
    <contour>
      <point x="234" y="-12" type="curve" smooth="yes"/>
      <point x="360" y="-12"/>
      <point x="409" y="74"/>
      <point x="427" y="158" type="curve"/>
      <point x="402" y="226" type="line"/>
      <point x="402" y="138"/>
      <point x="341" y="50"/>
      <point x="241" y="50" type="curve" smooth="yes"/>
      <point x="165" y="50"/>
      <point x="123" y="88"/>
      <point x="123" y="144" type="curve" smooth="yes"/>
      <point x="123" y="199"/>
      <point x="162" y="241"/>
      <point x="271" y="241" type="curve" smooth="yes"/>
      <point x="432" y="241" type="line"/>
      <point x="432" y="301" type="line"/>
      <point x="266" y="301" type="line" smooth="yes"/>
      <point x="137" y="301"/>
      <point x="50" y="246"/>
      <point x="50" y="142" type="curve" smooth="yes"/>
      <point x="50" y="60"/>
      <point x="109" y="-12"/>
    </contour>
    <contour>
      <point x="472" y="0" type="move" name="ogonek"/>
    </contour>
    <contour>
      <point x="266" y="496" type="move" name="top"/>
    </contour>
  </outline>
</glyph>
<glyph name="b" format="1">
  <advance width="621"/>
  <unicode hex="0062"/>
  <outline>
    <contour>
      <point x="326" y="-12" type="curve" smooth="yes"/>
      <point x="477" y="-12"/>
      <point x="573" y="97"/>
      <point x="573" y="247" type="curve" smooth="yes"/>
      <point x="573" y="397"/>
      <point x="477" y="508"/>
      <point x="327" y="508" type="curve" smooth="yes"/>
      <point x="233" y="508"/>
      <point x="172" y="460"/>
      <point x="140" y="410" type="curve"/>
      <point x="140" y="720" type="line"/>
      <point x="70" y="720" type="line"/>
      <point x="70" y="0" type="line"/>
      <point x="134" y="0" type="line"/>
      <point x="140" y="88" type="line"/>
      <point x="174" y="25"/>
      <point x="242" y="-12"/>
    </contour>
    <contour>
      <point x="323" y="49" type="curve" smooth="yes"/>
      <point x="218" y="49"/>
      <point x="144" y="128"/>
      <point x="144" y="248" type="curve" smooth="yes"/>
      <point x="144" y="368"/>
      <point x="218" y="447"/>
      <point x="323" y="447" type="curve" smooth="yes"/>
      <point x="428" y="447"/>
      <point x="502" y="368"/>
      <point x="502" y="248" type="curve" smooth="yes"/>
      <point x="502" y="128"/>
      <point x="428" y="49"/>
    </contour>
  </outline>
</glyph>
<glyph name="c" format="1">
  <advance width="561"/>
  <unicode hex="0063"/>
  <outline>
    <contour>
      <point x="293" y="-12" type="curve" smooth="yes"/>
      <point x="409" y="-12"/>
      <point x="493" y="56"/>
      <point x="513" y="152" type="curve"/>
      <point x="443" y="152" type="line"/>
      <point x="428" y="85"/>
      <point x="367" y="47"/>
      <point x="293" y="47" type="curve" smooth="yes"/>
      <point x="204" y="47"/>
      <point x="120" y="115"/>
      <point x="120" y="248" type="curve" smooth="yes"/>
      <point x="120" y="381"/>
      <point x="204" y="448"/>
      <point x="293" y="448" type="curve" smooth="yes"/>
      <point x="367" y="448"/>
      <point x="428" y="410"/>
      <point x="443" y="344" type="curve"/>
      <point x="513" y="344" type="line"/>
      <point x="492" y="443"/>
      <point x="409" y="508"/>
      <point x="293" y="508" type="curve" smooth="yes"/>
      <point x="154" y="508"/>
      <point x="48" y="405"/>
      <point x="48" y="248" type="curve" smooth="yes"/>
      <point x="48" y="91"/>
      <point x="154" y="-12"/>
    </contour>
    <contour>
      <point x="288" y="-1" type="move" name="bottom"/>
    </contour>
    <contour>
      <point x="293" y="497" type="move" name="top"/>
    </contour>
  </outline>
</glyph>
<glyph name="e" format="1">
  <advance width="560"/>
  <unicode hex="0065"/>
  <outline>
    <contour>
      <point x="288" y="-12" type="curve" smooth="yes"/>
      <point x="404" y="-12"/>
      <point x="479" y="55"/>
      <point x="504" y="146" type="curve"/>
      <point x="436" y="146" type="line"/>
      <point x="414" y="85"/>
      <point x="362" y="48"/>
      <point x="288" y="48" type="curve" smooth="yes"/>
      <point x="202" y="48"/>
      <point x="116" y="112"/>
      <point x="116" y="247" type="curve" smooth="yes"/>
      <point x="116" y="274" type="line" smooth="yes"/>
      <point x="116" y="387"/>
      <point x="196" y="448"/>
      <point x="287" y="448" type="curve" smooth="yes"/>
      <point x="378" y="448"/>
      <point x="446" y="390"/>
      <point x="450" y="293" type="curve"/>
      <point x="102" y="293" type="line"/>
      <point x="102" y="233" type="line"/>
      <point x="517" y="233" type="line"/>
      <point x="518" y="252"/>
      <point x="518" y="265"/>
      <point x="518" y="279" type="curve" smooth="yes"/>
      <point x="518" y="398"/>
      <point x="434" y="508"/>
      <point x="290" y="508" type="curve" smooth="yes"/>
      <point x="147" y="508"/>
      <point x="48" y="407"/>
      <point x="48" y="249" type="curve" smooth="yes"/>
      <point x="48" y="91"/>
      <point x="148" y="-12"/>
    </contour>
    <contour>
      <point x="283" y="-1" type="move" name="bottom"/>
    </contour>
    <contour>
      <point x="391" y="12" type="move" name="ogonek"/>
    </contour>
    <contour>
      <point x="287" y="496" type="move" name="top"/>
    </contour>
  </outline>
</glyph>
<glyph name="f" format="1">
  <advance width="325"/>
  <unicode hex="0066"/>
  <outline>
    <contour>
      <point x="98" y="0" type="line"/>
      <point x="168" y="0" type="line"/>
      <point x="168" y="588" type="line" smooth="yes"/>
      <point x="168" y="641"/>
      <point x="189" y="660"/>
      <point x="241" y="660" type="curve" smooth="yes"/>
      <point x="279" y="660" type="line"/>
      <point x="279" y="720" type="line"/>
      <point x="230" y="720" type="line" smooth="yes"/>
      <point x="142" y="720"/>
      <point x="98" y="679"/>
      <point x="98" y="591" type="curve" smooth="yes"/>
    </contour>
    <contour>
      <point x="22" y="436" type="line"/>
      <point x="295" y="436" type="line"/>
      <point x="295" y="496" type="line"/>
      <point x="22" y="496" type="line"/>
    </contour>
  </outline>
</glyph>
<glyph name="g" format="1">
  <advance width="547"/>
  <unicode hex="0067"/>
  <outline>
    <contour>
      <point x="264" y="-232" type="curve" smooth="yes"/>
      <point x="414" y="-232"/>
      <point x="482" y="-147"/>
      <point x="482" y="-61" type="curve" smooth="yes"/>
      <point x="482" y="21"/>
      <point x="431" y="76"/>
      <point x="297" y="86" type="curve" smooth="yes"/>
      <point x="154" y="97"/>
      <point x="144" y="107"/>
      <point x="115" y="130" type="curve"/>
      <point x="110" y="105" type="line"/>
      <point x="200" y="187" type="line"/>
      <point x="136" y="211" type="line"/>
      <point x="41" y="120" type="line"/>
      <point x="41" y="96" type="line"/>
      <point x="80" y="61"/>
      <point x="116" y="34"/>
      <point x="279" y="24" type="curve" smooth="yes"/>
      <point x="379" y="18"/>
      <point x="410" y="-19"/>
      <point x="410" y="-64" type="curve" smooth="yes"/>
      <point x="410" y="-129"/>
      <point x="352" y="-172"/>
      <point x="264" y="-172" type="curve" smooth="yes"/>
      <point x="173" y="-172"/>
      <point x="108" y="-137"/>
      <point x="108" y="-65" type="curve" smooth="yes"/>
      <point x="108" y="-36"/>
      <point x="120" y="8"/>
      <point x="190" y="41" type="curve"/>
      <point x="132" y="65" type="line"/>
      <point x="51" y="24"/>
      <point x="36" y="-34"/>
      <point x="36" y="-72" type="curve" smooth="yes"/>
      <point x="36" y="-179"/>
      <point x="131" y="-232"/>
    </contour>
    <contour>
      <point x="262" y="158" type="curve" smooth="yes"/>
      <point x="387" y="158"/>
      <point x="457" y="236"/>
      <point x="457" y="333" type="curve" smooth="yes"/>
      <point x="457" y="430"/>
      <point x="387" y="508"/>
      <point x="262" y="508" type="curve" smooth="yes"/>
      <point x="136" y="508"/>
      <point x="66" y="430"/>
      <point x="66" y="333" type="curve" smooth="yes"/>
      <point x="66" y="236"/>
      <point x="136" y="158"/>
    </contour>
    <contour>
      <point x="262" y="218" type="curve" smooth="yes"/>
      <point x="185" y="218"/>
      <point x="137" y="259"/>
      <point x="137" y="333" type="curve" smooth="yes"/>
      <point x="137" y="407"/>
      <point x="185" y="448"/>
      <point x="262" y="448" type="curve" smooth="yes"/>
      <point x="338" y="448"/>
      <point x="386" y="407"/>
      <point x="386" y="333" type="curve" smooth="yes"/>
      <point x="386" y="259"/>
      <point x="338" y="218"/>
    </contour>
    <contour>
      <point x="342" y="432" type="line"/>
      <point x="521" y="438" type="line"/>
      <point x="521" y="496" type="line"/>
      <point x="316" y="496" type="line"/>
    </contour>
    <contour>
      <point x="262" y="496" type="move" name="top"/>
    </contour>
  </outline>
</glyph>
<glyph name="h" format="1">
  <advance width="560"/>
  <unicode hex="0068"/>
  <outline>
    <contour>
      <point x="433" y="0" type="line"/>
      <point x="502" y="0" type="line"/>
      <point x="502" y="293" type="line" smooth="yes"/>
      <point x="502" y="441"/>
      <point x="425" y="508"/>
      <point x="313" y="508" type="curve" smooth="yes"/>
      <point x="221" y="508"/>
      <point x="136" y="447"/>
      <point x="120" y="349" type="curve"/>
      <point x="140" y="257" type="line"/>
      <point x="140" y="380"/>
      <point x="211" y="447"/>
      <point x="302" y="447" type="curve" smooth="yes"/>
      <point x="388" y="447"/>
      <point x="433" y="394"/>
      <point x="433" y="285" type="curve" smooth="yes"/>
    </contour>
    <contour>
      <point x="70" y="0" type="line"/>
      <point x="140" y="0" type="line"/>
      <point x="140" y="720" type="line"/>
      <point x="70" y="720" type="line"/>
    </contour>
    <contour>
      <point x="282" y="0" type="move" name="bottom"/>
    </contour>
    <contour>
      <point x="279" y="360" type="move" name="center"/>
    </contour>
    <contour>
      <point x="108" y="720" type="move" name="top"/>
    </contour>
  </outline>
</glyph>
<glyph name="i" format="1">
  <advance width="230"/>
  <unicode hex="0069"/>
  <outline>
    <contour>
      <point x="80" y="0" type="line"/>
      <point x="150" y="0" type="line"/>
      <point x="150" y="496" type="line"/>
      <point x="80" y="496" type="line"/>
    </contour>
    <contour>
      <point x="115" y="617" type="curve" smooth="yes"/>
      <point x="143" y="617"/>
      <point x="166" y="639"/>
      <point x="166" y="669" type="curve" smooth="yes"/>
      <point x="166" y="699"/>
      <point x="143" y="720"/>
      <point x="115" y="720" type="curve" smooth="yes"/>
      <point x="87" y="720"/>
      <point x="64" y="699"/>
      <point x="64" y="669" type="curve" smooth="yes"/>
      <point x="64" y="639"/>
      <point x="87" y="617"/>
    </contour>
    <contour>
      <point x="150" y="1" type="move" name="ogonek"/>
    </contour>
  </outline>
</glyph>
<glyph name="j" format="1">
  <advance width="234"/>
  <unicode hex="006A"/>
  <outline>
    <contour>
      <point x="-27" y="-220" type="line"/>
      <point x="22" y="-220" type="line" smooth="yes"/>
      <point x="110" y="-220"/>
      <point x="154" y="-179"/>
      <point x="154" y="-91" type="curve" smooth="yes"/>
      <point x="154" y="496" type="line"/>
      <point x="84" y="496" type="line"/>
      <point x="84" y="-88" type="line" smooth="yes"/>
      <point x="84" y="-141"/>
      <point x="63" y="-160"/>
      <point x="11" y="-160" type="curve" smooth="yes"/>
      <point x="-27" y="-160" type="line"/>
    </contour>
    <contour>
      <point x="120" y="617" type="curve" smooth="yes"/>
      <point x="148" y="617"/>
      <point x="170" y="639"/>
      <point x="170" y="669" type="curve" smooth="yes"/>
      <point x="170" y="699"/>
      <point x="148" y="720"/>
      <point x="120" y="720" type="curve" smooth="yes"/>
      <point x="92" y="720"/>
      <point x="69" y="699"/>
      <point x="69" y="669" type="curve" smooth="yes"/>
      <point x="69" y="639"/>
      <point x="92" y="617"/>
    </contour>
  </outline>
</glyph>
<glyph name="k" format="1">
  <advance width="484"/>
  <unicode hex="006B"/>
  <outline>
    <contour>
      <point x="375" y="0" type="line"/>
      <point x="466" y="0" type="line"/>
      <point x="191" y="297" type="line"/>
      <point x="190" y="250" type="line"/>
      <point x="439" y="496" type="line"/>
      <point x="352" y="496" type="line"/>
      <point x="128" y="273" type="line"/>
    </contour>
    <contour>
      <point x="70" y="0" type="line"/>
      <point x="140" y="0" type="line"/>
      <point x="140" y="720" type="line"/>
      <point x="70" y="720" type="line"/>
    </contour>
    <contour>
      <point x="233" y="0" type="move" name="bottom"/>
    </contour>
  </outline>
</glyph>
<glyph name="l" format="1">
  <advance width="210"/>
  <unicode hex="006C"/>
  <outline>
    <contour>
      <point x="70" y="0" type="line"/>
      <point x="140" y="0" type="line"/>
      <point x="140" y="720" type="line"/>
      <point x="70" y="720" type="line"/>
    </contour>
    <contour>
      <point x="105" y="0" type="move" name="bottom"/>
    </contour>
    <contour>
      <point x="105" y="10" type="move" name="commaaccent"/>
    </contour>
    <contour>
      <point x="105" y="720" type="move" name="top"/>
    </contour>
    <contour>
      <point x="195" y="546" type="move" name="topright"/>
    </contour>
  </outline>
</glyph>
<glyph name="m" format="1">
  <advance width="882"/>
  <unicode hex="006D"/>
  <outline>
    <contour>
      <point x="754" y="0" type="line"/>
      <point x="824" y="0" type="line"/>
      <point x="824" y="293" type="line" smooth="yes"/>
      <point x="824" y="441"/>
      <point x="745" y="508"/>
      <point x="630" y="508" type="curve" smooth="yes"/>
      <point x="541" y="508"/>
      <point x="457" y="447"/>
      <point x="441" y="349" type="curve"/>
      <point x="482" y="257" type="line"/>
      <point x="482" y="380"/>
      <point x="545" y="447"/>
      <point x="628" y="447" type="curve" smooth="yes"/>
      <point x="708" y="447"/>
      <point x="754" y="394"/>
      <point x="754" y="285" type="curve" smooth="yes"/>
    </contour>
    <contour>
      <point x="70" y="0" type="line"/>
      <point x="140" y="0" type="line"/>
      <point x="140" y="400" type="line"/>
      <point x="134" y="496" type="line"/>
      <point x="70" y="496" type="line"/>
    </contour>
    <contour>
      <point x="412" y="0" type="line"/>
      <point x="482" y="0" type="line"/>
      <point x="482" y="293" type="line" smooth="yes"/>
      <point x="482" y="439"/>
      <point x="407" y="508"/>
      <point x="293" y="508" type="curve" smooth="yes"/>
      <point x="201" y="508"/>
      <point x="129" y="448"/>
      <point x="114" y="350" type="curve"/>
      <point x="140" y="257" type="line"/>
      <point x="140" y="380"/>
      <point x="203" y="447"/>
      <point x="286" y="447" type="curve" smooth="yes"/>
      <point x="366" y="447"/>
      <point x="412" y="394"/>
      <point x="412" y="285" type="curve" smooth="yes"/>
    </contour>
  </outline>
</glyph>
<glyph name="n" format="1">
  <advance width="560"/>
  <unicode hex="006E"/>
  <outline>
    <contour>
      <point x="432" y="0" type="line"/>
      <point x="502" y="0" type="line"/>
      <point x="502" y="293" type="line" smooth="yes"/>
      <point x="502" y="441"/>
      <point x="425" y="508"/>
      <point x="310" y="508" type="curve" smooth="yes"/>
      <point x="215" y="508"/>
      <point x="136" y="447"/>
      <point x="120" y="349" type="curve"/>
      <point x="140" y="257" type="line"/>
      <point x="140" y="380"/>
      <point x="207" y="447"/>
      <point x="298" y="447" type="curve" smooth="yes"/>
      <point x="384" y="447"/>
      <point x="432" y="394"/>
      <point x="432" y="285" type="curve" smooth="yes"/>
    </contour>
    <contour>
      <point x="70" y="0" type="line"/>
      <point x="140" y="0" type="line"/>
      <point x="140" y="358" type="line"/>
      <point x="134" y="496" type="line"/>
      <point x="70" y="496" type="line"/>
    </contour>
    <contour>
      <point x="280" y="0" type="move" name="bottom"/>
    </contour>
    <contour>
      <point x="297" y="496" type="move" name="top"/>
    </contour>
  </outline>
</glyph>
<glyph name="o" format="1">
  <advance width="588"/>
  <unicode hex="006F"/>
  <outline>
    <contour>
      <point x="293" y="-12" type="curve" smooth="yes"/>
      <point x="432" y="-12"/>
      <point x="540" y="89"/>
      <point x="540" y="248" type="curve" smooth="yes"/>
      <point x="540" y="407"/>
      <point x="434" y="508"/>
      <point x="295" y="508" type="curve" smooth="yes"/>
      <point x="156" y="508"/>
      <point x="48" y="407"/>
      <point x="48" y="248" type="curve" smooth="yes"/>
      <point x="48" y="89"/>
      <point x="154" y="-12"/>
    </contour>
    <contour>
      <point x="293" y="48" type="curve" smooth="yes"/>
      <point x="203" y="48"/>
      <point x="120" y="115"/>
      <point x="120" y="248" type="curve" smooth="yes"/>
      <point x="120" y="381"/>
      <point x="204" y="448"/>
      <point x="295" y="448" type="curve" smooth="yes"/>
      <point x="385" y="448"/>
      <point x="468" y="381"/>
      <point x="468" y="248" type="curve" smooth="yes"/>
      <point x="468" y="115"/>
      <point x="384" y="48"/>
    </contour>
    <contour>
      <point x="294" y="0" type="move" name="bottom"/>
    </contour>
    <contour>
      <point x="294" y="248" type="move" name="center"/>
    </contour>
    <contour>
      <point x="356" y="0" type="move" name="ogonek"/>
    </contour>
    <contour>
      <point x="295" y="496" type="move" name="top"/>
    </contour>
    <contour>
      <point x="568" y="496" type="move" name="topright"/>
    </contour>
  </outline>
</glyph>
<glyph name="p" format="1">
  <advance width="621"/>
  <unicode hex="0070"/>
  <outline>
    <contour>
      <point x="70" y="-220" type="line"/>
      <point x="140" y="-220" type="line"/>
      <point x="140" y="88" type="line"/>
      <point x="174" y="25"/>
      <point x="242" y="-12"/>
      <point x="326" y="-12" type="curve" smooth="yes"/>
      <point x="477" y="-12"/>
      <point x="573" y="97"/>
      <point x="573" y="247" type="curve" smooth="yes"/>
      <point x="573" y="397"/>
      <point x="477" y="508"/>
      <point x="327" y="508" type="curve" smooth="yes"/>
      <point x="233" y="508"/>
      <point x="172" y="460"/>
      <point x="140" y="410" type="curve"/>
      <point x="134" y="496" type="line"/>
      <point x="70" y="496" type="line"/>
    </contour>
    <contour>
      <point x="323" y="49" type="curve" smooth="yes"/>
      <point x="218" y="49"/>
      <point x="144" y="128"/>
      <point x="144" y="248" type="curve" smooth="yes"/>
      <point x="144" y="368"/>
      <point x="218" y="447"/>
      <point x="323" y="447" type="curve" smooth="yes"/>
      <point x="428" y="447"/>
      <point x="502" y="368"/>
      <point x="502" y="248" type="curve" smooth="yes"/>
      <point x="502" y="128"/>
      <point x="428" y="49"/>
    </contour>
  </outline>
</glyph>
<glyph name="q" format="1">
  <advance width="621"/>
  <unicode hex="0071"/>
  <outline>
    <contour>
      <point x="481" y="-220" type="line"/>
      <point x="551" y="-220" type="line"/>
      <point x="551" y="496" type="line"/>
      <point x="487" y="496" type="line"/>
      <point x="481" y="408" type="line"/>
      <point x="447" y="471"/>
      <point x="379" y="508"/>
      <point x="295" y="508" type="curve" smooth="yes"/>
      <point x="144" y="508"/>
      <point x="48" y="399"/>
      <point x="48" y="249" type="curve" smooth="yes"/>
      <point x="48" y="99"/>
      <point x="144" y="-12"/>
      <point x="294" y="-12" type="curve" smooth="yes"/>
      <point x="388" y="-12"/>
      <point x="449" y="36"/>
      <point x="481" y="86" type="curve"/>
    </contour>
    <contour>
      <point x="298" y="49" type="curve" smooth="yes"/>
      <point x="193" y="49"/>
      <point x="119" y="128"/>
      <point x="119" y="248" type="curve" smooth="yes"/>
      <point x="119" y="368"/>
      <point x="193" y="447"/>
      <point x="298" y="447" type="curve" smooth="yes"/>
      <point x="403" y="447"/>
      <point x="477" y="368"/>
      <point x="477" y="248" type="curve" smooth="yes"/>
      <point x="477" y="128"/>
      <point x="403" y="49"/>
    </contour>
  </outline>
</glyph>
<glyph name="r" format="1">
  <advance width="353"/>
  <unicode hex="0072"/>
  <outline>
    <contour>
      <point x="70" y="0" type="line"/>
      <point x="140" y="0" type="line"/>
      <point x="140" y="383" type="line"/>
      <point x="134" y="496" type="line"/>
      <point x="70" y="496" type="line"/>
    </contour>
    <contour>
      <point x="140" y="257" type="line"/>
      <point x="140" y="394"/>
      <point x="217" y="435"/>
      <point x="308" y="435" type="curve" smooth="yes"/>
      <point x="327" y="435" type="line"/>
      <point x="327" y="508" type="line"/>
      <point x="187" y="508"/>
      <point x="118" y="420"/>
      <point x="118" y="287" type="curve"/>
    </contour>
    <contour>
      <point x="107" y="0" type="move" name="bottom"/>
    </contour>
    <contour>
      <point x="212" y="496" type="move" name="top"/>
    </contour>
  </outline>
</glyph>
<glyph name="s" format="1">
  <advance width="492"/>
  <unicode hex="0073"/>
  <outline>
    <contour>
      <point x="256" y="-12" type="curve" smooth="yes"/>
      <point x="369" y="-12"/>
      <point x="441" y="51"/>
      <point x="440" y="140" type="curve" smooth="yes"/>
      <point x="439" y="247"/>
      <point x="350" y="270"/>
      <point x="261" y="289" type="curve" smooth="yes"/>
      <point x="186" y="305"/>
      <point x="140" y="328"/>
      <point x="140" y="370" type="curve" smooth="yes"/>
      <point x="140" y="416"/>
      <point x="176" y="446"/>
      <point x="240" y="446" type="curve" smooth="yes"/>
      <point x="307" y="446"/>
      <point x="348" y="412"/>
      <point x="354" y="357" type="curve"/>
      <point x="425" y="357" type="line"/>
      <point x="414" y="455"/>
      <point x="343" y="508"/>
      <point x="242" y="508" type="curve" smooth="yes"/>
      <point x="135" y="508"/>
      <point x="68" y="448"/>
      <point x="68" y="363" type="curve" smooth="yes"/>
      <point x="68" y="274"/>
      <point x="159" y="241"/>
      <point x="238" y="226" type="curve" smooth="yes"/>
      <point x="320" y="210"/>
      <point x="368" y="197"/>
      <point x="368" y="133" type="curve" smooth="yes"/>
      <point x="368" y="87"/>
      <point x="333" y="50"/>
      <point x="258" y="50" type="curve" smooth="yes"/>
      <point x="175" y="50"/>
      <point x="127" y="98"/>
      <point x="116" y="154" type="curve"/>
      <point x="43" y="154" type="line"/>
      <point x="57" y="50"/>
      <point x="140" y="-12"/>
    </contour>
    <contour>
      <point x="243" y="0" type="move" name="bottom"/>
    </contour>
    <contour>
      <point x="242" y="496" type="move" name="top"/>
    </contour>
  </outline>
</glyph>
<glyph name="t" format="1">
  <advance width="376"/>
  <unicode hex="0074"/>
  <outline>
    <contour>
      <point x="258" y="0" type="curve" smooth="yes"/>
      <point x="331" y="0" type="line"/>
      <point x="331" y="60" type="line"/>
      <point x="282" y="60" type="line" smooth="yes"/>
      <point x="214" y="60"/>
      <point x="190" y="78"/>
      <point x="190" y="145" type="curve" smooth="yes"/>
      <point x="190" y="436" type="line"/>
      <point x="340" y="436" type="line"/>
      <point x="340" y="496" type="line"/>
      <point x="190" y="496" type="line"/>
      <point x="190" y="611" type="line"/>
      <point x="130" y="611" type="line"/>
      <point x="120" y="496" type="line"/>
      <point x="34" y="496" type="line"/>
      <point x="34" y="436" type="line"/>
      <point x="120" y="436" type="line"/>
      <point x="120" y="145" type="line" smooth="yes"/>
      <point x="120" y="36"/>
      <point x="171" y="0"/>
    </contour>
    <contour>
      <point x="233" y="0" type="move" name="bottom"/>
    </contour>
    <contour>
      <point x="291" y="700" type="move" name="topright"/>
    </contour>
  </outline>
</glyph>
<glyph name="u" format="1">
  <advance width="560"/>
  <unicode hex="0075"/>
  <outline>
    <contour>
      <point x="250" y="-12" type="curve" smooth="yes"/>
      <point x="345" y="-12"/>
      <point x="424" y="49"/>
      <point x="440" y="147" type="curve"/>
      <point x="420" y="239" type="line"/>
      <point x="420" y="116"/>
      <point x="353" y="49"/>
      <point x="262" y="49" type="curve" smooth="yes"/>
      <point x="176" y="49"/>
      <point x="128" y="102"/>
      <point x="128" y="211" type="curve" smooth="yes"/>
      <point x="128" y="496" type="line"/>
      <point x="58" y="496" type="line"/>
      <point x="58" y="203" type="line" smooth="yes"/>
      <point x="58" y="55"/>
      <point x="135" y="-12"/>
    </contour>
    <contour>
      <point x="426" y="0" type="line"/>
      <point x="490" y="0" type="line"/>
      <point x="490" y="496" type="line"/>
      <point x="420" y="496" type="line"/>
      <point x="420" y="138" type="line"/>
    </contour>
    <contour>
      <point x="270" y="0" type="move" name="bottom"/>
    </contour>
    <contour>
      <point x="490" y="0" type="move" name="ogonek"/>
    </contour>
    <contour>
      <point x="270" y="496" type="move" name="top"/>
    </contour>
    <contour>
      <point x="490" y="496" type="move" name="topright"/>
    </contour>
  </outline>
</glyph>
<glyph name="v" format="1">
  <advance width="511"/>
  <unicode hex="0076"/>
  <outline>
    <contour>
      <point x="216" y="0" type="line"/>
      <point x="295" y="0" type="line"/>
      <point x="485" y="496" type="line"/>
      <point x="413" y="496" type="line"/>
      <point x="256" y="68" type="line"/>
      <point x="99" y="496" type="line"/>
      <point x="26" y="496" type="line"/>
    </contour>
  </outline>
</glyph>
<glyph name="w" format="1">
  <advance width="738"/>
  <unicode hex="0077"/>
  <outline>
    <contour>
      <point x="171" y="0" type="line"/>
      <point x="242" y="0" type="line"/>
      <point x="378" y="451" type="line"/>
      <point x="360" y="451" type="line"/>
      <point x="496" y="0" type="line"/>
      <point x="567" y="0" type="line"/>
      <point x="712" y="496" type="line"/>
      <point x="641" y="496" type="line"/>
      <point x="522" y="67" type="line"/>
      <point x="540" y="67" type="line"/>
      <point x="409" y="496" type="line"/>
      <point x="329" y="496" type="line"/>
      <point x="198" y="67" type="line"/>
      <point x="216" y="67" type="line"/>
      <point x="97" y="496" type="line"/>
      <point x="26" y="496" type="line"/>
    </contour>
    <contour>
      <point x="369" y="0" type="move" name="bottom"/>
    </contour>
    <contour>
      <point x="369" y="496" type="move" name="top"/>
    </contour>
  </outline>
</glyph>
<glyph name="x" format="1">
  <advance width="478"/>
  <unicode hex="0078"/>
  <outline>
    <contour>
      <point x="20" y="0" type="line"/>
      <point x="95" y="0" type="line"/>
      <point x="239" y="214" type="line"/>
      <point x="383" y="0" type="line"/>
      <point x="458" y="0" type="line"/>
      <point x="289" y="248" type="line"/>
      <point x="458" y="496" type="line"/>
      <point x="383" y="496" type="line"/>
      <point x="239" y="282" type="line"/>
      <point x="95" y="496" type="line"/>
      <point x="20" y="496" type="line"/>
      <point x="189" y="248" type="line"/>
    </contour>
  </outline>
</glyph>
<glyph name="y" format="1">
  <advance width="543"/>
  <unicode hex="0079"/>
  <outline>
    <contour>
      <point x="122" y="-220" type="line"/>
      <point x="195" y="-220" type="line"/>
      <point x="523" y="496" type="line"/>
      <point x="451" y="496" type="line"/>
      <point x="268" y="98" type="line"/>
      <point x="96" y="496" type="line"/>
      <point x="20" y="496" type="line"/>
      <point x="219" y="53" type="line"/>
      <point x="247" y="53" type="line"/>
    </contour>
    <contour>
      <point x="268" y="496" type="move" name="top"/>
    </contour>
  </outline>
</glyph>
<glyph name="z" format="1">
  <advance width="444"/>
  <unicode hex="007A"/>
  <outline>
    <contour>
      <point x="36" y="0" type="line"/>
      <point x="402" y="0" type="line"/>
      <point x="402" y="58" type="line"/>
      <point x="114" y="58" type="line"/>
      <point x="397" y="438" type="line"/>
      <point x="397" y="496" type="line"/>
      <point x="41" y="496" type="line"/>
      <point x="41" y="438" type="line"/>
      <point x="319" y="438" type="line"/>
      <point x="36" y="58" type="line"/>
    </contour>
    <contour>
      <point x="220" y="496" type="move" name="top"/>
    </contour>
  </outline>
</glyph>
<glyph name="braceleft" format="1">
  <advance width="413"/>
  <unicode hex="007B"/>
  <outline>
    <contour>
      <point x="314" y="-145" type="curve" smooth="yes"/>
      <point x="364" y="-145" type="line"/>
      <point x="364" y="-84" type="line"/>
      <point x="326" y="-84" type="line" smooth="yes"/>
      <point x="269" y="-84"/>
      <point x="237" y="-59"/>
      <point x="237" y="5" type="curve" smooth="yes"/>
      <point x="237" y="67"/>
      <point x="259" y="109"/>
      <point x="259" y="189" type="curve" smooth="yes"/>
      <point x="259" y="259"/>
      <point x="226" y="314"/>
      <point x="147" y="332" type="curve"/>
      <point x="147" y="334" type="line"/>
      <point x="226" y="352"/>
      <point x="259" y="407"/>
      <point x="259" y="477" type="curve" smooth="yes"/>
      <point x="259" y="558"/>
      <point x="237" y="599"/>
      <point x="237" y="661" type="curve" smooth="yes"/>
      <point x="237" y="725"/>
      <point x="269" y="750"/>
      <point x="326" y="750" type="curve" smooth="yes"/>
      <point x="364" y="750" type="line"/>
      <point x="364" y="811" type="line"/>
      <point x="314" y="811" type="line" smooth="yes"/>
      <point x="227" y="811"/>
      <point x="169" y="764"/>
      <point x="169" y="666" type="curve" smooth="yes"/>
      <point x="169" y="598"/>
      <point x="191" y="559"/>
      <point x="191" y="479" type="curve" smooth="yes"/>
      <point x="191" y="430"/>
      <point x="170" y="381"/>
      <point x="86" y="362" type="curve"/>
      <point x="86" y="305" type="line"/>
      <point x="170" y="285"/>
      <point x="191" y="236"/>
      <point x="191" y="187" type="curve" smooth="yes"/>
      <point x="191" y="108"/>
      <point x="169" y="68"/>
      <point x="169" y="0" type="curve" smooth="yes"/>
      <point x="169" y="-98"/>
      <point x="227" y="-145"/>
    </contour>
  </outline>
</glyph>
<glyph name="bar" format="1">
  <advance width="222"/>
  <unicode hex="007C"/>
  <outline>
    <contour>
      <point x="76" y="-100" type="line"/>
      <point x="146" y="-100" type="line"/>
      <point x="146" y="720" type="line"/>
      <point x="76" y="720" type="line"/>
    </contour>
  </outline>
</glyph>
<glyph name="braceright" format="1">
  <advance width="413"/>
  <unicode hex="007D"/>
  <outline>
    <contour>
      <point x="49" y="-145" type="line"/>
      <point x="99" y="-145" type="line" smooth="yes"/>
      <point x="186" y="-145"/>
      <point x="244" y="-98"/>
      <point x="244" y="0" type="curve" smooth="yes"/>
      <point x="244" y="68"/>
      <point x="222" y="108"/>
      <point x="222" y="187" type="curve" smooth="yes"/>
      <point x="222" y="236"/>
      <point x="243" y="285"/>
      <point x="327" y="305" type="curve"/>
      <point x="327" y="362" type="line"/>
      <point x="243" y="381"/>
      <point x="222" y="430"/>
      <point x="222" y="479" type="curve" smooth="yes"/>
      <point x="222" y="559"/>
      <point x="244" y="598"/>
      <point x="244" y="666" type="curve" smooth="yes"/>
      <point x="244" y="764"/>
      <point x="186" y="811"/>
      <point x="99" y="811" type="curve" smooth="yes"/>
      <point x="49" y="811" type="line"/>
      <point x="49" y="750" type="line"/>
      <point x="87" y="750" type="line" smooth="yes"/>
      <point x="144" y="750"/>
      <point x="176" y="725"/>
      <point x="176" y="661" type="curve" smooth="yes"/>
      <point x="176" y="599"/>
      <point x="154" y="558"/>
      <point x="154" y="477" type="curve" smooth="yes"/>
      <point x="154" y="407"/>
      <point x="187" y="352"/>
      <point x="266" y="334" type="curve"/>
      <point x="266" y="332" type="line"/>
      <point x="187" y="314"/>
      <point x="154" y="259"/>
      <point x="154" y="189" type="curve" smooth="yes"/>
      <point x="154" y="109"/>
      <point x="176" y="67"/>
      <point x="176" y="5" type="curve" smooth="yes"/>
      <point x="176" y="-59"/>
      <point x="144" y="-84"/>
      <point x="87" y="-84" type="curve" smooth="yes"/>
      <point x="49" y="-84" type="line"/>
    </contour>
  </outline>
</glyph>
<glyph name="asciitilde" format="1">
  <advance width="487"/>
  <unicode hex="007E"/>
  <outline>
    <contour>
      <point x="325" y="256" type="curve" smooth="yes"/>
      <point x="393" y="256"/>
      <point x="435" y="299"/>
      <point x="449" y="385" type="curve"/>
      <point x="396" y="385" type="line"/>
      <point x="391" y="346"/>
      <point x="366" y="319"/>
      <point x="330" y="319" type="curve" smooth="yes"/>
      <point x="274" y="319"/>
      <point x="236" y="386"/>
      <point x="162" y="386" type="curve" smooth="yes"/>
      <point x="96" y="386"/>
      <point x="53" y="343"/>
      <point x="38" y="257" type="curve"/>
      <point x="91" y="257" type="line"/>
      <point x="97" y="295"/>
      <point x="122" y="323"/>
      <point x="158" y="323" type="curve" smooth="yes"/>
      <point x="217" y="323"/>
      <point x="252" y="256"/>
    </contour>
  </outline>
</glyph>
<glyph name="exclamdown" format="1">
  <advance width="233"/>
  <unicode hex="00A1"/>
  <outline>
    <contour>
      <point x="77" y="-144" type="line"/>
      <point x="153" y="-144" type="line"/>
      <point x="144" y="371" type="line"/>
      <point x="85" y="371" type="line"/>
    </contour>
    <contour>
      <point x="117" y="458" type="curve" smooth="yes"/>
      <point x="145" y="458"/>
      <point x="167" y="480"/>
      <point x="167" y="509" type="curve" smooth="yes"/>
      <point x="167" y="538"/>
      <point x="145" y="561"/>
      <point x="117" y="561" type="curve" smooth="yes"/>
      <point x="88" y="561"/>
      <point x="66" y="538"/>
      <point x="66" y="509" type="curve" smooth="yes"/>
      <point x="66" y="480"/>
      <point x="88" y="458"/>
    </contour>
  </outline>
</glyph>
<glyph name="cent" format="1">
  <advance width="561"/>
  <unicode hex="00A2"/>
  <outline>
    <contour>
      <point x="257" y="-104" type="line"/>
      <point x="327" y="-104" type="line"/>
      <point x="327" y="33" type="line"/>
      <point x="257" y="33" type="line"/>
    </contour>
    <contour>
      <point x="257" y="463" type="line"/>
      <point x="327" y="463" type="line"/>
      <point x="327" y="600" type="line"/>
      <point x="257" y="600" type="line"/>
    </contour>
    <component base="c"/>
  </outline>
</glyph>
<glyph name="sterling" format="1">
  <advance width="593"/>
  <unicode hex="00A3"/>
  <outline>
    <contour>
      <point x="90" y="0" type="line"/>
      <point x="533" y="-1" type="line"/>
      <point x="533" y="58" type="line"/>
      <point x="165" y="58" type="line"/>
      <point x="215" y="111"/>
      <point x="240" y="166"/>
      <point x="240" y="235" type="curve" smooth="yes"/>
      <point x="240" y="327"/>
      <point x="177" y="405"/>
      <point x="177" y="506" type="curve" smooth="yes"/>
      <point x="177" y="610"/>
      <point x="244" y="653"/>
      <point x="319" y="653" type="curve" smooth="yes"/>
      <point x="412" y="653"/>
      <point x="463" y="592"/>
      <point x="468" y="510" type="curve"/>
      <point x="532" y="510" type="line"/>
      <point x="525" y="620"/>
      <point x="457" y="712"/>
      <point x="319" y="712" type="curve" smooth="yes"/>
      <point x="195" y="712"/>
      <point x="111" y="631"/>
      <point x="111" y="509" type="curve" smooth="yes"/>
      <point x="111" y="391"/>
      <point x="174" y="329"/>
      <point x="174" y="233" type="curve" smooth="yes"/>
      <point x="174" y="146"/>
      <point x="139" y="103"/>
      <point x="90" y="47" type="curve"/>
    </contour>
    <contour>
      <point x="46" y="314" type="line"/>
      <point x="404" y="314" type="line"/>
      <point x="404" y="364" type="line"/>
      <point x="46" y="364" type="line"/>
    </contour>
  </outline>
</glyph>
<glyph name="currency" format="1">
  <advance width="525"/>
  <unicode hex="00A4"/>
  <outline>
    <contour>
      <point x="262" y="122" type="curve" smooth="yes"/>
      <point x="356" y="122"/>
      <point x="432" y="191"/>
      <point x="432" y="297" type="curve" smooth="yes"/>
      <point x="432" y="403"/>
      <point x="357" y="472"/>
      <point x="263" y="472" type="curve" smooth="yes"/>
      <point x="167" y="472"/>
      <point x="94" y="403"/>
      <point x="94" y="297" type="curve" smooth="yes"/>
      <point x="94" y="191"/>
      <point x="164" y="122"/>
    </contour>
    <contour>
      <point x="99" y="96" type="line"/>
      <point x="179" y="176" type="line"/>
      <point x="146" y="209" type="line"/>
      <point x="66" y="129" type="line"/>
    </contour>
    <contour>
      <point x="426" y="96" type="line"/>
      <point x="459" y="129" type="line"/>
      <point x="381" y="207" type="line"/>
      <point x="350" y="172" type="line"/>
    </contour>
    <contour>
      <point x="262" y="181" type="curve" smooth="yes"/>
      <point x="212" y="181"/>
      <point x="164" y="214"/>
      <point x="164" y="297" type="curve" smooth="yes"/>
      <point x="164" y="379"/>
      <point x="212" y="414"/>
      <point x="262" y="414" type="curve" smooth="yes"/>
      <point x="310" y="414"/>
      <point x="362" y="379"/>
      <point x="362" y="297" type="curve" smooth="yes"/>
      <point x="362" y="214"/>
      <point x="309" y="181"/>
    </contour>
    <contour>
      <point x="146" y="388" type="line"/>
      <point x="177" y="422" type="line"/>
      <point x="99" y="500" type="line"/>
      <point x="66" y="467" type="line"/>
    </contour>
    <contour>
      <point x="377" y="385" type="line"/>
      <point x="459" y="467" type="line"/>
      <point x="426" y="500" type="line"/>
      <point x="348" y="421" type="line"/>
    </contour>
  </outline>
</glyph>
<glyph name="yen" format="1">
  <advance width="588"/>
  <unicode hex="00A5"/>
  <outline>
    <contour>
      <point x="260" y="0" type="line"/>
      <point x="330" y="0" type="line"/>
      <point x="330" y="272" type="line"/>
      <point x="554" y="700" type="line"/>
      <point x="475" y="700" type="line"/>
      <point x="278" y="304" type="line"/>
      <point x="310" y="304" type="line"/>
      <point x="113" y="700" type="line"/>
      <point x="34" y="700" type="line"/>
      <point x="260" y="272" type="line"/>
    </contour>
    <contour>
      <point x="60" y="172" type="line"/>
      <point x="530" y="172" type="line"/>
      <point x="530" y="225" type="line"/>
      <point x="60" y="225" type="line"/>
    </contour>
    <contour>
      <point x="269" y="319" type="line"/>
      <point x="258" y="372" type="line"/>
      <point x="60" y="372" type="line"/>
      <point x="60" y="320" type="line"/>
    </contour>
    <contour>
      <point x="329" y="319" type="line"/>
      <point x="530" y="320" type="line"/>
      <point x="530" y="372" type="line"/>
      <point x="340" y="372" type="line"/>
    </contour>
  </outline>
</glyph>
<glyph name="section" format="1">
  <advance width="576"/>
  <unicode hex="00A7"/>
  <outline>
    <contour>
      <point x="285" y="-232" type="curve" smooth="yes"/>
      <point x="420" y="-232"/>
      <point x="502" y="-152"/>
      <point x="501" y="-42" type="curve"/>
      <point x="501" y="-6"/>
      <point x="492" y="23"/>
      <point x="474" y="49" type="curve"/>
      <point x="512" y="84"/>
      <point x="531" y="132"/>
      <point x="531" y="180" type="curve" smooth="yes"/>
      <point x="531" y="295"/>
      <point x="460" y="344"/>
      <point x="360" y="378" type="curve" smooth="yes"/>
      <point x="233" y="421"/>
      <point x="146" y="434"/>
      <point x="146" y="530" type="curve" smooth="yes"/>
      <point x="146" y="606"/>
      <point x="204" y="652"/>
      <point x="286" y="652" type="curve" smooth="yes"/>
      <point x="387" y="652"/>
      <point x="434" y="582"/>
      <point x="434" y="520" type="curve"/>
      <point x="506" y="520" type="line"/>
      <point x="506" y="630"/>
      <point x="421" y="712"/>
      <point x="290" y="712" type="curve" smooth="yes"/>
      <point x="155" y="712"/>
      <point x="73" y="632"/>
      <point x="74" y="522" type="curve" smooth="yes"/>
      <point x="74" y="486"/>
      <point x="83" y="456"/>
      <point x="101" y="431" type="curve"/>
      <point x="63" y="395"/>
      <point x="44" y="348"/>
      <point x="44" y="300" type="curve" smooth="yes"/>
      <point x="44" y="185"/>
      <point x="115" y="136"/>
      <point x="215" y="102" type="curve" smooth="yes"/>
      <point x="342" y="59"/>
      <point x="429" y="46"/>
      <point x="429" y="-50" type="curve" smooth="yes"/>
      <point x="429" y="-126"/>
      <point x="371" y="-172"/>
      <point x="289" y="-172" type="curve" smooth="yes"/>
      <point x="188" y="-172"/>
      <point x="141" y="-102"/>
      <point x="141" y="-40" type="curve"/>
      <point x="69" y="-40" type="line"/>
      <point x="69" y="-150"/>
      <point x="154" y="-232"/>
    </contour>
    <contour>
      <point x="426" y="94" type="curve"/>
      <point x="404" y="108"/>
      <point x="377" y="121"/>
      <point x="344" y="132" type="curve" smooth="yes"/>
      <point x="224" y="173"/>
      <point x="116" y="185"/>
      <point x="116" y="304" type="curve" smooth="yes"/>
      <point x="116" y="336"/>
      <point x="127" y="364"/>
      <point x="149" y="386" type="curve"/>
      <point x="171" y="372"/>
      <point x="198" y="359"/>
      <point x="231" y="348" type="curve" smooth="yes"/>
      <point x="351" y="307"/>
      <point x="459" y="295"/>
      <point x="459" y="176" type="curve" smooth="yes"/>
      <point x="459" y="145"/>
      <point x="448" y="116"/>
    </contour>
  </outline>
</glyph>
<glyph name="dieresis" format="1">
  <advance width="315"/>
  <unicode hex="00A8"/>
  <outline>
    <contour>
      <point x="235" y="573" type="curve" smooth="yes"/>
      <point x="260" y="573"/>
      <point x="280" y="594"/>
      <point x="280" y="619" type="curve" smooth="yes"/>
      <point x="280" y="644"/>
      <point x="260" y="665"/>
      <point x="235" y="665" type="curve" smooth="yes"/>
      <point x="209" y="665"/>
      <point x="189" y="644"/>
      <point x="189" y="619" type="curve" smooth="yes"/>
      <point x="189" y="594"/>
      <point x="209" y="573"/>
    </contour>
    <contour>
      <point x="81" y="573" type="curve" smooth="yes"/>
      <point x="106" y="573"/>
      <point x="127" y="594"/>
      <point x="127" y="619" type="curve" smooth="yes"/>
      <point x="127" y="644"/>
      <point x="106" y="665"/>
      <point x="81" y="665" type="curve" smooth="yes"/>
      <point x="55" y="665"/>
      <point x="35" y="644"/>
      <point x="35" y="619" type="curve" smooth="yes"/>
      <point x="35" y="594"/>
      <point x="55" y="573"/>
    </contour>
    <contour>
      <point x="157" y="496" type="move" name="_top"/>
    </contour>
  </outline>
</glyph>
<glyph name="copyright" format="1">
  <advance width="796"/>
  <unicode hex="00A9"/>
  <outline>
    <contour>
      <point x="398" y="-4" type="curve" smooth="yes"/>
      <point x="603" y="-4"/>
      <point x="743" y="143"/>
      <point x="743" y="350" type="curve" smooth="yes"/>
      <point x="743" y="557"/>
      <point x="603" y="703"/>
      <point x="398" y="703" type="curve" smooth="yes"/>
      <point x="193" y="703"/>
      <point x="53" y="557"/>
      <point x="53" y="350" type="curve" smooth="yes"/>
      <point x="53" y="143"/>
      <point x="193" y="-4"/>
    </contour>
    <contour>
      <point x="398" y="117" type="curve" smooth="yes"/>
      <point x="496" y="117"/>
      <point x="576" y="174"/>
      <point x="602" y="267" type="curve"/>
      <point x="537" y="267" type="line"/>
      <point x="515" y="203"/>
      <point x="465" y="169"/>
      <point x="398" y="169" type="curve" smooth="yes"/>
      <point x="315" y="169"/>
      <point x="245" y="230"/>
      <point x="245" y="350" type="curve" smooth="yes"/>
      <point x="245" y="470"/>
      <point x="315" y="532"/>
      <point x="398" y="532" type="curve" smooth="yes"/>
      <point x="462" y="532"/>
      <point x="516" y="498"/>
      <point x="537" y="433" type="curve"/>
      <point x="602" y="433" type="line"/>
      <point x="576" y="530"/>
      <point x="496" y="584"/>
      <point x="398" y="584" type="curve" smooth="yes"/>
      <point x="280" y="584"/>
      <point x="182" y="498"/>
      <point x="182" y="351" type="curve" smooth="yes"/>
      <point x="182" y="202"/>
      <point x="280" y="117"/>
    </contour>
    <contour>
      <point x="398" y="30" type="curve" smooth="yes"/>
      <point x="208" y="30"/>
      <point x="89" y="162"/>
      <point x="89" y="350" type="curve" smooth="yes"/>
      <point x="89" y="539"/>
      <point x="208" y="670"/>
      <point x="398" y="670" type="curve" smooth="yes"/>
      <point x="588" y="670"/>
      <point x="707" y="539"/>
      <point x="707" y="350" type="curve" smooth="yes"/>
      <point x="707" y="162"/>
      <point x="588" y="30"/>
    </contour>
  </outline>
</glyph>
<glyph name="ordfeminine" format="1">
  <advance width="445"/>
  <unicode hex="00AA"/>
  <outline>
    <contour>
      <point x="202" y="347" type="curve" smooth="yes"/>
      <point x="270" y="347"/>
      <point x="318" y="380"/>
      <point x="337" y="426" type="curve"/>
      <point x="343" y="353" type="line"/>
      <point x="394" y="353" type="line"/>
      <point x="394" y="703" type="line"/>
      <point x="343" y="703" type="line"/>
      <point x="337" y="629" type="line"/>
      <point x="317" y="675"/>
      <point x="270" y="709"/>
      <point x="200" y="709" type="curve" smooth="yes"/>
      <point x="105" y="709"/>
      <point x="35" y="636"/>
      <point x="35" y="529" type="curve" smooth="yes"/>
      <point x="35" y="423"/>
      <point x="105" y="347"/>
    </contour>
    <contour>
      <point x="214" y="392" type="curve" smooth="yes"/>
      <point x="148" y="392"/>
      <point x="94" y="443"/>
      <point x="94" y="529" type="curve" smooth="yes"/>
      <point x="94" y="614"/>
      <point x="148" y="664"/>
      <point x="214" y="664" type="curve" smooth="yes"/>
      <point x="283" y="664"/>
      <point x="337" y="613"/>
      <point x="337" y="528" type="curve" smooth="yes"/>
      <point x="337" y="443"/>
      <point x="283" y="392"/>
    </contour>
  </outline>
</glyph>
<glyph name="guillemetleft" format="1">
  <advance width="435"/>
  <unicode hex="00AB"/>
  <outline>
    <contour>
      <point x="314" y="120" type="line"/>
      <point x="385" y="120" type="line"/>
      <point x="283" y="295" type="line"/>
      <point x="385" y="470" type="line"/>
      <point x="314" y="470" type="line"/>
      <point x="215" y="295" type="line"/>
    </contour>
    <contour>
      <point x="144" y="120" type="line"/>
      <point x="215" y="120" type="line"/>
      <point x="113" y="295" type="line"/>
      <point x="215" y="470" type="line"/>
      <point x="144" y="470" type="line"/>
      <point x="45" y="295" type="line"/>
    </contour>
  </outline>
</glyph>
<glyph name="logicalnot" format="1">
  <advance width="651"/>
  <unicode hex="00AC"/>
  <outline>
    <contour>
      <point x="538" y="230" type="line"/>
      <point x="607" y="230" type="line"/>
      <point x="607" y="430" type="line"/>
      <point x="45" y="430" type="line"/>
      <point x="45" y="373" type="line"/>
      <point x="538" y="373" type="line"/>
    </contour>
  </outline>
</glyph>
<glyph name="registered" format="1">
  <advance width="502"/>
  <unicode hex="00AE"/>
  <outline>
    <contour>
      <point x="252" y="311" type="curve" smooth="yes"/>
      <point x="367" y="311"/>
      <point x="449" y="396"/>
      <point x="449" y="511" type="curve" smooth="yes"/>
      <point x="449" y="626"/>
      <point x="367" y="712"/>
      <point x="252" y="712" type="curve" smooth="yes"/>
      <point x="136" y="712"/>
      <point x="54" y="626"/>
      <point x="54" y="511" type="curve" smooth="yes"/>
      <point x="54" y="396"/>
      <point x="136" y="311"/>
    </contour>
    <contour>
      <point x="295" y="405" type="line"/>
      <point x="346" y="406" type="line"/>
      <point x="278" y="504" type="line"/>
      <point x="231" y="504" type="line"/>
    </contour>
    <contour>
      <point x="252" y="344" type="curve" smooth="yes"/>
      <point x="154" y="344"/>
      <point x="90" y="414"/>
      <point x="90" y="511" type="curve" smooth="yes"/>
      <point x="90" y="608"/>
      <point x="154" y="678"/>
      <point x="252" y="678" type="curve" smooth="yes"/>
      <point x="349" y="678"/>
      <point x="413" y="608"/>
      <point x="413" y="511" type="curve" smooth="yes"/>
      <point x="413" y="414"/>
      <point x="349" y="344"/>
    </contour>
    <contour>
      <point x="174" y="405" type="line"/>
      <point x="217" y="405" type="line"/>
      <point x="217" y="490" type="line"/>
      <point x="267" y="490" type="line" smooth="yes"/>
      <point x="311" y="490"/>
      <point x="339" y="515"/>
      <point x="339" y="555" type="curve" smooth="yes"/>
      <point x="339" y="595"/>
      <point x="311" y="620"/>
      <point x="267" y="620" type="curve" smooth="yes"/>
      <point x="174" y="620" type="line"/>
    </contour>
    <contour>
      <point x="217" y="526" type="line"/>
      <point x="217" y="581" type="line"/>
      <point x="264" y="581" type="line" smooth="yes"/>
      <point x="282" y="581"/>
      <point x="296" y="573"/>
      <point x="296" y="554" type="curve" smooth="yes"/>
      <point x="296" y="534"/>
      <point x="282" y="526"/>
      <point x="264" y="526" type="curve" smooth="yes"/>
    </contour>
  </outline>
</glyph>
<glyph name="macron" format="1">
  <advance width="387"/>
  <unicode hex="00AF"/>
  <outline>
    <contour>
      <point x="24" y="596" type="line"/>
      <point x="363" y="596" type="line"/>
      <point x="363" y="650" type="line"/>
      <point x="24" y="650" type="line"/>
    </contour>
    <contour>
      <point x="194" y="496" type="move" name="_top"/>
    </contour>
  </outline>
</glyph>
<glyph name="degree" format="1">
  <advance width="337"/>
  <unicode hex="00B0"/>
  <outline>
    <contour>
      <point x="168" y="450" type="curve" smooth="yes"/>
      <point x="238" y="450"/>
      <point x="297" y="501"/>
      <point x="297" y="580" type="curve" smooth="yes"/>
      <point x="297" y="661"/>
      <point x="239" y="712"/>
      <point x="169" y="712" type="curve" smooth="yes"/>
      <point x="99" y="712"/>
      <point x="40" y="661"/>
      <point x="40" y="580" type="curve" smooth="yes"/>
      <point x="40" y="501"/>
      <point x="98" y="450"/>
    </contour>
    <contour>
      <point x="168" y="506" type="curve" smooth="yes"/>
      <point x="134" y="506"/>
      <point x="99" y="531"/>
      <point x="99" y="581" type="curve" smooth="yes"/>
      <point x="99" y="631"/>
      <point x="135" y="656"/>
      <point x="169" y="656" type="curve" smooth="yes"/>
      <point x="203" y="656"/>
      <point x="238" y="631"/>
      <point x="238" y="581" type="curve" smooth="yes"/>
      <point x="238" y="531"/>
      <point x="202" y="506"/>
    </contour>
  </outline>
</glyph>
<glyph name="plusminus" format="1">
  <advance width="599"/>
  <unicode hex="00B1"/>
  <outline>
    <contour>
      <point x="65" y="0" type="line"/>
      <point x="534" y="0" type="line"/>
      <point x="534" y="60" type="line"/>
      <point x="65" y="60" type="line"/>
    </contour>
    <contour>
      <point x="267" y="116" type="line"/>
      <point x="332" y="116" type="line"/>
      <point x="332" y="466" type="line"/>
      <point x="267" y="466" type="line"/>
    </contour>
    <contour>
      <point x="65" y="261" type="line"/>
      <point x="534" y="261" type="line"/>
      <point x="534" y="321" type="line"/>
      <point x="65" y="321" type="line"/>
    </contour>
  </outline>
</glyph>
<glyph name="twosuperior" format="1">
  <advance width="322"/>
  <unicode hex="00B2"/>
  <outline>
    <contour>
      <point x="34" y="352" type="line"/>
      <point x="281" y="352" type="line"/>
      <point x="281" y="399" type="line"/>
      <point x="82" y="399" type="line"/>
      <point x="76" y="380" type="line"/>
      <point x="183" y="463" type="line" smooth="yes"/>
      <point x="242" y="510"/>
      <point x="275" y="547"/>
      <point x="275" y="603" type="curve" smooth="yes"/>
      <point x="275" y="663"/>
      <point x="229" y="709"/>
      <point x="157" y="709" type="curve" smooth="yes"/>
      <point x="78" y="709"/>
      <point x="37" y="661"/>
      <point x="33" y="602" type="curve"/>
      <point x="90" y="602" type="line"/>
      <point x="95" y="642"/>
      <point x="117" y="665"/>
      <point x="155" y="665" type="curve" smooth="yes"/>
      <point x="188" y="665"/>
      <point x="215" y="644"/>
      <point x="215" y="601" type="curve" smooth="yes"/>
      <point x="215" y="553"/>
      <point x="183" y="520"/>
      <point x="145" y="487" type="curve" smooth="yes"/>
      <point x="34" y="392" type="line"/>
    </contour>
  </outline>
</glyph>
<glyph name="threesuperior" format="1">
  <advance width="323"/>
  <unicode hex="00B3"/>
  <outline>
    <contour>
      <point x="157" y="347" type="curve" smooth="yes"/>
      <point x="238" y="347"/>
      <point x="287" y="392"/>
      <point x="287" y="443" type="curve" smooth="yes"/>
      <point x="287" y="487"/>
      <point x="258" y="515"/>
      <point x="221" y="526" type="curve"/>
      <point x="221" y="528" type="line"/>
      <point x="260" y="539"/>
      <point x="285" y="567"/>
      <point x="285" y="608" type="curve" smooth="yes"/>
      <point x="285" y="666"/>
      <point x="230" y="709"/>
      <point x="161" y="709" type="curve" smooth="yes"/>
      <point x="85" y="709"/>
      <point x="38" y="669"/>
      <point x="31" y="614" type="curve"/>
      <point x="85" y="614" type="line"/>
      <point x="93" y="644"/>
      <point x="115" y="664"/>
      <point x="157" y="664" type="curve" smooth="yes"/>
      <point x="198" y="664"/>
      <point x="225" y="641"/>
      <point x="225" y="606" type="curve" smooth="yes"/>
      <point x="225" y="568"/>
      <point x="195" y="547"/>
      <point x="154" y="547" type="curve" smooth="yes"/>
      <point x="106" y="547" type="line"/>
      <point x="106" y="508" type="line"/>
      <point x="154" y="508" type="line" smooth="yes"/>
      <point x="196" y="508"/>
      <point x="227" y="487"/>
      <point x="227" y="449" type="curve" smooth="yes"/>
      <point x="227" y="413"/>
      <point x="200" y="391"/>
      <point x="157" y="391" type="curve" smooth="yes"/>
      <point x="119" y="391"/>
      <point x="90" y="406"/>
      <point x="84" y="451" type="curve"/>
      <point x="28" y="451" type="line"/>
      <point x="34" y="383"/>
      <point x="82" y="347"/>
    </contour>
  </outline>
</glyph>
<glyph name="micro" format="1">
  <advance width="572"/>
  <unicode hex="00B5"/>
  <outline>
    <contour>
      <point x="70" y="-220" type="line"/>
      <point x="140" y="-220" type="line"/>
      <point x="140" y="25" type="line"/>
      <point x="172" y="0"/>
      <point x="214" y="-12"/>
      <point x="262" y="-12" type="curve" smooth="yes"/>
      <point x="337" y="-12"/>
      <point x="402" y="26"/>
      <point x="434" y="90" type="curve"/>
      <point x="438" y="0" type="line"/>
      <point x="502" y="0" type="line"/>
      <point x="502" y="496" type="line"/>
      <point x="432" y="496" type="line"/>
      <point x="432" y="239" type="line" smooth="yes"/>
      <point x="432" y="116"/>
      <point x="365" y="49"/>
      <point x="274" y="49" type="curve" smooth="yes"/>
      <point x="188" y="49"/>
      <point x="140" y="102"/>
      <point x="140" y="211" type="curve" smooth="yes"/>
      <point x="140" y="496" type="line"/>
      <point x="70" y="496" type="line"/>
    </contour>
  </outline>
</glyph>
<glyph name="paragraph" format="1">
  <advance width="569"/>
  <unicode hex="00B6"/>
  <outline>
    <contour>
      <point x="281" y="-100" type="line"/>
      <point x="344" y="-100" type="line"/>
      <point x="344" y="644" type="line"/>
      <point x="430" y="644" type="line"/>
      <point x="430" y="-100" type="line"/>
      <point x="493" y="-100" type="line"/>
      <point x="493" y="700" type="line"/>
      <point x="273" y="700" type="line" smooth="yes"/>
      <point x="113" y="700"/>
      <point x="37" y="614"/>
      <point x="37" y="499" type="curve" smooth="yes"/>
      <point x="37" y="385"/>
      <point x="111" y="299"/>
      <point x="273" y="299" type="curve" smooth="yes"/>
      <point x="281" y="299" type="line"/>
    </contour>
  </outline>
</glyph>
<glyph name="periodcentered" format="1">
  <advance width="181"/>
  <unicode hex="00B7"/>
  <outline>
    <contour>
      <point x="91" y="213" type="curve" smooth="yes"/>
      <point x="119" y="213"/>
      <point x="141" y="236"/>
      <point x="141" y="265" type="curve" smooth="yes"/>
      <point x="141" y="294"/>
      <point x="119" y="316"/>
      <point x="91" y="316" type="curve" smooth="yes"/>
      <point x="62" y="316"/>
      <point x="40" y="294"/>
      <point x="40" y="265" type="curve" smooth="yes"/>
      <point x="40" y="236"/>
      <point x="62" y="213"/>
    </contour>
  </outline>
</glyph>
<glyph name="cedilla" format="1">
  <advance width="265"/>
  <unicode hex="00B8"/>
  <outline>
    <contour>
      <point x="24" y="-258" type="line"/>
      <point x="124" y="-258" type="line" smooth="yes"/>
      <point x="194" y="-258"/>
      <point x="241" y="-220"/>
      <point x="241" y="-160" type="curve" smooth="yes"/>
      <point x="241" y="-98"/>
      <point x="191" y="-65"/>
      <point x="113" y="-67" type="curve"/>
      <point x="113" y="7" type="line"/>
      <point x="64" y="7" type="line"/>
      <point x="64" y="-112" type="line"/>
      <point x="110" y="-112" type="line" smooth="yes"/>
      <point x="160" y="-112"/>
      <point x="182" y="-129"/>
      <point x="182" y="-160" type="curve" smooth="yes"/>
      <point x="182" y="-194"/>
      <point x="160" y="-211"/>
      <point x="110" y="-211" type="curve" smooth="yes"/>
      <point x="24" y="-211" type="line"/>
    </contour>
    <contour>
      <point x="85" y="0" type="move" name="_bottom"/>
    </contour>
  </outline>
</glyph>
<glyph name="onesuperior" format="1">
  <advance width="195"/>
  <unicode hex="00B9"/>
  <outline>
    <contour>
      <point x="95" y="352" type="line"/>
      <point x="152" y="352" type="line"/>
      <point x="152" y="704" type="line"/>
      <point x="113" y="704" type="line"/>
      <point x="29" y="664" type="line"/>
      <point x="29" y="628" type="line"/>
      <point x="95" y="647" type="line"/>
    </contour>
  </outline>
</glyph>
<glyph name="ordmasculine" format="1">
  <advance width="429"/>
  <unicode hex="00BA"/>
  <outline>
    <contour>
      <point x="214" y="348" type="curve" smooth="yes"/>
      <point x="316" y="348"/>
      <point x="395" y="421"/>
      <point x="395" y="530" type="curve" smooth="yes"/>
      <point x="395" y="640"/>
      <point x="318" y="712"/>
      <point x="215" y="712" type="curve" smooth="yes"/>
      <point x="113" y="712"/>
      <point x="35" y="640"/>
      <point x="35" y="530" type="curve" smooth="yes"/>
      <point x="35" y="421"/>
      <point x="111" y="348"/>
    </contour>
    <contour>
      <point x="214" y="395" type="curve" smooth="yes"/>
      <point x="148" y="395"/>
      <point x="94" y="442"/>
      <point x="94" y="530" type="curve" smooth="yes"/>
      <point x="94" y="619"/>
      <point x="149" y="666"/>
      <point x="214" y="666" type="curve" smooth="yes"/>
      <point x="280" y="666"/>
      <point x="336" y="619"/>
      <point x="336" y="530" type="curve" smooth="yes"/>
      <point x="336" y="442"/>
      <point x="279" y="395"/>
    </contour>
  </outline>
</glyph>
<glyph name="guillemetright" format="1">
  <advance width="435"/>
  <unicode hex="00BB"/>
  <outline>
    <contour>
      <point x="220" y="120" type="line"/>
      <point x="291" y="120" type="line"/>
      <point x="390" y="295" type="line"/>
      <point x="291" y="470" type="line"/>
      <point x="220" y="470" type="line"/>
      <point x="322" y="295" type="line"/>
    </contour>
    <contour>
      <point x="50" y="120" type="line"/>
      <point x="121" y="120" type="line"/>
      <point x="220" y="295" type="line"/>
      <point x="121" y="470" type="line"/>
      <point x="50" y="470" type="line"/>
      <point x="152" y="295" type="line"/>
    </contour>
  </outline>
</glyph>
<glyph name="onequarter" format="1">
  <advance width="599"/>
  <unicode hex="00BC"/>
  <outline>
    <contour>
      <point x="57" y="0" type="line"/>
      <point x="124" y="0" type="line"/>
      <point x="490" y="700" type="line"/>
      <point x="424" y="700" type="line"/>
    </contour>
    <contour>
      <point x="458" y="0" type="line"/>
      <point x="515" y="0" type="line"/>
      <point x="515" y="71" type="line"/>
      <point x="565" y="71" type="line"/>
      <point x="565" y="110" type="line"/>
      <point x="515" y="110" type="line"/>
      <point x="515" y="354" type="line"/>
      <point x="442" y="354" type="line"/>
      <point x="279" y="106" type="line"/>
      <point x="279" y="71" type="line"/>
      <point x="458" y="71" type="line"/>
    </contour>
    <contour>
      <point x="337" y="110" type="line"/>
      <point x="459" y="296" type="line"/>
      <point x="459" y="110" type="line"/>
    </contour>
    <component base="onesuperior" xOffset="9" identifier="D76F0B7D"/>
  </outline>
</glyph>
<glyph name="onehalf" format="1">
  <advance width="650"/>
  <unicode hex="00BD"/>
  <outline>
    <contour>
      <point x="52" y="0" type="line"/>
      <point x="119" y="0" type="line"/>
      <point x="479" y="700" type="line"/>
      <point x="412" y="700" type="line"/>
    </contour>
    <component base="onesuperior" xOffset="9" identifier="7E73BB29"/>
    <component base="twosuperior" xOffset="318" yOffset="-353" identifier="271D714C"/>
  </outline>
</glyph>
<glyph name="threequarters" format="1">
  <advance width="686"/>
  <unicode hex="00BE"/>
  <outline>
    <contour>
      <point x="146" y="0" type="line"/>
      <point x="212" y="0" type="line"/>
      <point x="589" y="700" type="line"/>
      <point x="523" y="700" type="line"/>
    </contour>
    <contour>
      <point x="545" y="0" type="line"/>
      <point x="602" y="0" type="line"/>
      <point x="602" y="71" type="line"/>
      <point x="652" y="71" type="line"/>
      <point x="652" y="110" type="line"/>
      <point x="602" y="110" type="line"/>
      <point x="602" y="354" type="line"/>
      <point x="529" y="354" type="line"/>
      <point x="366" y="106" type="line"/>
      <point x="366" y="71" type="line"/>
      <point x="545" y="71" type="line"/>
    </contour>
    <contour>
      <point x="425" y="110" type="line"/>
      <point x="547" y="296" type="line"/>
      <point x="547" y="110" type="line"/>
    </contour>
    <component base="threesuperior" xOffset="10" identifier="DB21902D"/>
  </outline>
</glyph>
<glyph name="questiondown" format="1">
  <advance width="512"/>
  <unicode hex="00BF"/>
  <outline>
    <contour>
      <point x="263" y="-166" type="curve" smooth="yes"/>
      <point x="389" y="-166"/>
      <point x="478" y="-89"/>
      <point x="478" y="32" type="curve"/>
      <point x="411" y="32" type="line"/>
      <point x="411" y="-53"/>
      <point x="354" y="-106"/>
      <point x="263" y="-106" type="curve" smooth="yes"/>
      <point x="173" y="-106"/>
      <point x="112" y="-51"/>
      <point x="112" y="38" type="curve" smooth="yes"/>
      <point x="112" y="175"/>
      <point x="219" y="197"/>
      <point x="334" y="197" type="curve" smooth="yes"/>
      <point x="360" y="197" type="line"/>
      <point x="356" y="357" type="line"/>
      <point x="296" y="357" type="line"/>
      <point x="293" y="247" type="line"/>
      <point x="149" y="247"/>
      <point x="45" y="189"/>
      <point x="45" y="38" type="curve" smooth="yes"/>
      <point x="45" y="-86"/>
      <point x="135" y="-166"/>
    </contour>
    <contour>
      <point x="327" y="448" type="curve" smooth="yes"/>
      <point x="356" y="448"/>
      <point x="378" y="470"/>
      <point x="378" y="499" type="curve" smooth="yes"/>
      <point x="378" y="528"/>
      <point x="356" y="551"/>
      <point x="327" y="551" type="curve" smooth="yes"/>
      <point x="299" y="551"/>
      <point x="277" y="528"/>
      <point x="277" y="499" type="curve" smooth="yes"/>
      <point x="277" y="470"/>
      <point x="299" y="448"/>
    </contour>
  </outline>
</glyph>
<glyph name="AE" format="1">
  <advance width="902"/>
  <unicode hex="00C6"/>
  <outline>
    <contour>
      <point x="32" y="0" type="line"/>
      <point x="109" y="0" type="line"/>
      <point x="479" y="640" type="line"/>
      <point x="479" y="0" type="line"/>
      <point x="844" y="0" type="line"/>
      <point x="844" y="56" type="line"/>
      <point x="549" y="56" type="line"/>
      <point x="549" y="324" type="line"/>
      <point x="814" y="324" type="line"/>
      <point x="814" y="380" type="line"/>
      <point x="549" y="380" type="line"/>
      <point x="549" y="644" type="line"/>
      <point x="844" y="644" type="line"/>
      <point x="844" y="700" type="line"/>
      <point x="438" y="700" type="line"/>
    </contour>
    <contour>
      <point x="166" y="166" type="line"/>
      <point x="511" y="166" type="line"/>
      <point x="511" y="222" type="line"/>
      <point x="195" y="222" type="line"/>
    </contour>
    <contour>
      <point x="462" y="0" type="move" name="bottom"/>
    </contour>
    <contour>
      <point x="562" y="700" type="move" name="top"/>
    </contour>
  </outline>
</glyph>
<glyph name="Eth" format="1">
  <advance width="715"/>
  <unicode hex="00D0"/>
  <outline>
    <contour>
      <point x="9" y="316" type="line"/>
      <point x="379" y="316" type="line"/>
      <point x="379" y="381" type="line"/>
      <point x="9" y="381" type="line"/>
    </contour>
    <component base="D" xOffset="24"/>
  </outline>
</glyph>
<glyph name="multiply" format="1">
  <advance width="489"/>
  <unicode hex="00D7"/>
  <outline>
    <contour>
      <point x="107" y="111" type="line"/>
      <point x="244" y="249" type="line"/>
      <point x="375" y="118" type="line"/>
      <point x="418" y="160" type="line"/>
      <point x="287" y="291" type="line"/>
      <point x="424" y="429" type="line"/>
      <point x="382" y="471" type="line"/>
      <point x="245" y="333" type="line"/>
      <point x="114" y="464" type="line"/>
      <point x="71" y="422" type="line"/>
      <point x="202" y="291" type="line"/>
      <point x="65" y="153" type="line"/>
    </contour>
  </outline>
</glyph>
<glyph name="Oslash" format="1">
  <advance width="787"/>
  <unicode hex="00D8"/>
  <outline>
    <contour>
      <point x="42" y="0" type="line"/>
      <point x="122" y="0" type="line"/>
      <point x="745" y="700" type="line"/>
      <point x="666" y="700" type="line"/>
    </contour>
    <component base="O" identifier="F768AD18"/>
  </outline>
</glyph>
<glyph name="Thorn" format="1">
  <advance width="570"/>
  <unicode hex="00DE"/>
  <outline>
    <contour>
      <point x="76" y="0" type="line"/>
      <point x="146" y="0" type="line"/>
      <point x="146" y="150" type="line"/>
      <point x="297" y="150" type="line" smooth="yes"/>
      <point x="461" y="150"/>
      <point x="533" y="237"/>
      <point x="533" y="350" type="curve" smooth="yes"/>
      <point x="533" y="465"/>
      <point x="459" y="551"/>
      <point x="297" y="551" type="curve" smooth="yes"/>
      <point x="146" y="551" type="line"/>
      <point x="146" y="700" type="line"/>
      <point x="76" y="700" type="line"/>
    </contour>
    <contour>
      <point x="146" y="210" type="line"/>
      <point x="146" y="492" type="line"/>
      <point x="297" y="492" type="line" smooth="yes"/>
      <point x="415" y="492"/>
      <point x="461" y="440"/>
      <point x="461" y="350" type="curve" smooth="yes"/>
      <point x="461" y="264"/>
      <point x="415" y="210"/>
      <point x="297" y="210" type="curve" smooth="yes"/>
    </contour>
  </outline>
</glyph>
<glyph name="germandbls" format="1">
  <advance width="650"/>
  <unicode hex="00DF"/>
  <outline>
    <contour>
      <point x="430" y="-10" type="curve" smooth="yes"/>
      <point x="543" y="-10"/>
      <point x="610" y="54"/>
      <point x="610" y="147" type="curve" smooth="yes"/>
      <point x="610" y="222"/>
      <point x="570" y="271"/>
      <point x="474" y="302" type="curve" smooth="yes"/>
      <point x="381" y="332"/>
      <point x="357" y="352"/>
      <point x="357" y="385" type="curve" smooth="yes"/>
      <point x="357" y="453"/>
      <point x="503" y="450"/>
      <point x="503" y="573" type="curve" smooth="yes"/>
      <point x="503" y="659"/>
      <point x="430" y="732"/>
      <point x="295" y="732" type="curve" smooth="yes"/>
      <point x="146" y="732"/>
      <point x="72" y="643"/>
      <point x="72" y="524" type="curve" smooth="yes"/>
      <point x="72" y="0" type="line"/>
      <point x="142" y="0" type="line"/>
      <point x="142" y="516" type="line" smooth="yes"/>
      <point x="142" y="613"/>
      <point x="190" y="673"/>
      <point x="294" y="673" type="curve" smooth="yes"/>
      <point x="380" y="673"/>
      <point x="433" y="632"/>
      <point x="433" y="568" type="curve" smooth="yes"/>
      <point x="433" y="473"/>
      <point x="286" y="479"/>
      <point x="286" y="376" type="curve" smooth="yes"/>
      <point x="286" y="316"/>
      <point x="327" y="284"/>
      <point x="432" y="249" type="curve" smooth="yes"/>
      <point x="509" y="224"/>
      <point x="538" y="195"/>
      <point x="538" y="142" type="curve" smooth="yes"/>
      <point x="538" y="83"/>
      <point x="498" y="47"/>
      <point x="430" y="47" type="curve" smooth="yes"/>
      <point x="355" y="47"/>
      <point x="309" y="95"/>
      <point x="303" y="167" type="curve"/>
      <point x="232" y="167" type="line"/>
      <point x="242" y="57"/>
      <point x="319" y="-10"/>
    </contour>
  </outline>
</glyph>
<glyph name="ae" format="1">
  <advance width="904"/>
  <unicode hex="00E6"/>
  <outline>
    <contour>
      <point x="234" y="-12" type="curve" smooth="yes"/>
      <point x="328" y="-12"/>
      <point x="394" y="42"/>
      <point x="433" y="111" type="curve"/>
      <point x="473" y="34"/>
      <point x="549" y="-12"/>
      <point x="637" y="-12" type="curve" smooth="yes"/>
      <point x="754" y="-12"/>
      <point x="831" y="62"/>
      <point x="855" y="161" type="curve"/>
      <point x="788" y="161" type="line"/>
      <point x="766" y="91"/>
      <point x="717" y="48"/>
      <point x="637" y="48" type="curve" smooth="yes"/>
      <point x="558" y="48"/>
      <point x="474" y="109"/>
      <point x="470" y="237" type="curve"/>
      <point x="861" y="237" type="line"/>
      <point x="862" y="256"/>
      <point x="862" y="269"/>
      <point x="862" y="283" type="curve" smooth="yes"/>
      <point x="862" y="398"/>
      <point x="778" y="508"/>
      <point x="639" y="508" type="curve" smooth="yes"/>
      <point x="559" y="508"/>
      <point x="490" y="473"/>
      <point x="448" y="411" type="curve"/>
      <point x="418" y="471"/>
      <point x="357" y="508"/>
      <point x="271" y="508" type="curve" smooth="yes"/>
      <point x="176" y="508"/>
      <point x="79" y="451"/>
      <point x="67" y="344" type="curve"/>
      <point x="141" y="344" type="line"/>
      <point x="153" y="412"/>
      <point x="207" y="448"/>
      <point x="271" y="448" type="curve" smooth="yes"/>
      <point x="347" y="448"/>
      <point x="400" y="398"/>
      <point x="400" y="305" type="curve" smooth="yes"/>
      <point x="400" y="297" type="line"/>
      <point x="261" y="297" type="line" smooth="yes"/>
      <point x="137" y="297"/>
      <point x="50" y="246"/>
      <point x="50" y="142" type="curve" smooth="yes"/>
      <point x="50" y="60"/>
      <point x="109" y="-12"/>
    </contour>
    <contour>
      <point x="236" y="50" type="curve" smooth="yes"/>
      <point x="165" y="50"/>
      <point x="123" y="88"/>
      <point x="123" y="144" type="curve" smooth="yes"/>
      <point x="123" y="199"/>
      <point x="162" y="237"/>
      <point x="266" y="237" type="curve" smooth="yes"/>
      <point x="400" y="237" type="line"/>
      <point x="400" y="214" type="line"/>
      <point x="394" y="130"/>
      <point x="326" y="50"/>
    </contour>
    <contour>
      <point x="471" y="297" type="line"/>
      <point x="481" y="395"/>
      <point x="556" y="448"/>
      <point x="638" y="448" type="curve" smooth="yes"/>
      <point x="721" y="448"/>
      <point x="789" y="392"/>
      <point x="794" y="297" type="curve"/>
    </contour>
    <contour>
      <point x="455" y="0" type="move" name="bottom"/>
    </contour>
    <contour>
      <point x="455" y="496" type="move" name="top"/>
    </contour>
  </outline>
</glyph>
<glyph name="eth" format="1">
  <advance width="620"/>
  <unicode hex="00F0"/>
  <outline>
    <contour>
      <point x="308" y="-12" type="curve" smooth="yes"/>
      <point x="457" y="-12"/>
      <point x="572" y="104"/>
      <point x="572" y="266" type="curve" smooth="yes"/>
      <point x="572" y="443"/>
      <point x="498" y="583"/>
      <point x="356" y="700" type="curve"/>
      <point x="284" y="700" type="line"/>
      <point x="404" y="602"/>
      <point x="467" y="506"/>
      <point x="500" y="395" type="curve"/>
      <point x="506" y="393" type="line"/>
      <point x="465" y="478"/>
      <point x="380" y="508"/>
      <point x="304" y="508" type="curve" smooth="yes"/>
      <point x="160" y="508"/>
      <point x="48" y="399"/>
      <point x="48" y="247" type="curve" smooth="yes"/>
      <point x="48" y="104"/>
      <point x="157" y="-12"/>
    </contour>
    <contour>
      <point x="310" y="47" type="curve" smooth="yes"/>
      <point x="210" y="47"/>
      <point x="119" y="125"/>
      <point x="119" y="249" type="curve" smooth="yes"/>
      <point x="119" y="371"/>
      <point x="210" y="449"/>
      <point x="310" y="449" type="curve" smooth="yes"/>
      <point x="410" y="449"/>
      <point x="501" y="371"/>
      <point x="501" y="249" type="curve" smooth="yes"/>
      <point x="501" y="125"/>
      <point x="410" y="47"/>
    </contour>
    <contour>
      <point x="248" y="555" type="line"/>
      <point x="534" y="657" type="line"/>
      <point x="534" y="708" type="line"/>
      <point x="248" y="606" type="line"/>
    </contour>
  </outline>
</glyph>
<glyph name="divide" format="1">
  <advance width="519"/>
  <unicode hex="00F7"/>
  <outline>
    <contour>
      <point x="65" y="261" type="line"/>
      <point x="454" y="261" type="line"/>
      <point x="454" y="321" type="line"/>
      <point x="65" y="321" type="line"/>
    </contour>
    <component base="period" xOffset="168" yOffset="110" identifier="5D71716A"/>
    <component base="period" xOffset="168" yOffset="379" identifier="414B0236"/>
  </outline>
</glyph>
<glyph name="oslash" format="1">
  <advance width="598"/>
  <unicode hex="00F8"/>
  <outline>
    <contour>
      <point x="47" y="0" type="line"/>
      <point x="120" y="0" type="line"/>
      <point x="551" y="496" type="line"/>
      <point x="479" y="496" type="line"/>
    </contour>
    <contour>
      <point x="298" y="-12" type="curve" smooth="yes"/>
      <point x="437" y="-12"/>
      <point x="545" y="89"/>
      <point x="545" y="248" type="curve" smooth="yes"/>
      <point x="545" y="407"/>
      <point x="439" y="508"/>
      <point x="300" y="508" type="curve" smooth="yes"/>
      <point x="161" y="508"/>
      <point x="53" y="407"/>
      <point x="53" y="248" type="curve" smooth="yes"/>
      <point x="53" y="89"/>
      <point x="159" y="-12"/>
    </contour>
    <contour>
      <point x="298" y="48" type="curve" smooth="yes"/>
      <point x="208" y="48"/>
      <point x="125" y="115"/>
      <point x="125" y="248" type="curve" smooth="yes"/>
      <point x="125" y="381"/>
      <point x="209" y="448"/>
      <point x="300" y="448" type="curve" smooth="yes"/>
      <point x="390" y="448"/>
      <point x="473" y="381"/>
      <point x="473" y="248" type="curve" smooth="yes"/>
      <point x="473" y="115"/>
      <point x="389" y="48"/>
    </contour>
  </outline>
</glyph>
<glyph name="Aogonek" format="1">
  <advance width="656"/>
  <unicode hex="0104"/>
  <outline>
    <contour>
      <point x="552" y="-201" type="curve" smooth="yes"/>
      <point x="576" y="-201"/>
      <point x="602" y="-196"/>
      <point x="624" y="-188" type="curve"/>
      <point x="624" y="-139" type="line"/>
      <point x="602" y="-148"/>
      <point x="579" y="-153"/>
      <point x="559" y="-153" type="curve" smooth="yes"/>
      <point x="523" y="-153"/>
      <point x="498" y="-135"/>
      <point x="498" y="-102" type="curve" smooth="yes"/>
      <point x="498" y="-76"/>
      <point x="513" y="-52"/>
      <point x="561" y="-29" type="curve" smooth="yes"/>
      <point x="620" y="0" type="line"/>
      <point x="601" y="38" type="line"/>
      <point x="547" y="13" type="line" smooth="yes"/>
      <point x="468" y="-23"/>
      <point x="439" y="-64"/>
      <point x="439" y="-109" type="curve" smooth="yes"/>
      <point x="439" y="-176"/>
      <point x="494" y="-201"/>
    </contour>
    <component base="A" identifier="1CAD8DBB"/>
    <contour>
      <point x="620" y="0" type="move" name="_ogonek"/>
    </contour>
  </outline>
</glyph>
<glyph name="dcaron" format="1">
  <advance width="726"/>
  <unicode hex="010F"/>
  <outline>
    <contour>
      <point x="626" y="552" type="line"/>
      <point x="685" y="552"/>
      <point x="718" y="581"/>
      <point x="718" y="655" type="curve" smooth="yes"/>
      <point x="718" y="679"/>
      <point x="715" y="707"/>
      <point x="708" y="740" type="curve"/>
      <point x="627" y="740" type="line"/>
      <point x="627" y="664" type="line"/>
      <point x="673" y="664" type="line"/>
      <point x="673" y="639" type="line" smooth="yes"/>
      <point x="673" y="606"/>
      <point x="661" y="588"/>
      <point x="626" y="588" type="curve"/>
    </contour>
    <component base="d" identifier="9C77631F"/>
  </outline>
</glyph>
<glyph name="dcroat" format="1">
  <advance width="671"/>
  <unicode hex="0111"/>
  <outline>
    <contour>
      <point x="335" y="572" type="line"/>
      <point x="628" y="572" type="line"/>
      <point x="628" y="632" type="line"/>
      <point x="335" y="632" type="line"/>
    </contour>
    <component base="d" identifier="83E0EC08"/>
  </outline>
</glyph>
<glyph name="Gcommaaccent" format="1">
  <advance width="752"/>
  <unicode hex="0122"/>
  <outline>
    <contour>
      <point x="350" y="-226" type="line"/>
      <point x="406" y="-226"/>
      <point x="440" y="-197"/>
      <point x="440" y="-119" type="curve" smooth="yes"/>
      <point x="440" y="-100"/>
      <point x="437" y="-76"/>
      <point x="432" y="-52" type="curve"/>
      <point x="353" y="-52" type="line"/>
      <point x="353" y="-121" type="line"/>
      <point x="396" y="-121" type="line"/>
      <point x="396" y="-135" type="line" smooth="yes"/>
      <point x="396" y="-171"/>
      <point x="383" y="-191"/>
      <point x="350" y="-191" type="curve"/>
    </contour>
    <component base="G" identifier="DEEC0B67"/>
    <contour>
      <point x="391" y="-4" type="move" name="_bottom"/>
    </contour>
  </outline>
</glyph>
<glyph name="gcommaaccent" format="1">
  <advance width="547"/>
  <unicode hex="0123"/>
  <outline>
    <contour>
      <point x="222" y="595" type="curve"/>
      <point x="303" y="595" type="line"/>
      <point x="303" y="672" type="line"/>
      <point x="257" y="672" type="line"/>
      <point x="257" y="696" type="line" smooth="yes"/>
      <point x="257" y="730"/>
      <point x="270" y="747"/>
      <point x="304" y="747" type="curve"/>
      <point x="304" y="783" type="line"/>
      <point x="246" y="783"/>
      <point x="213" y="754"/>
      <point x="213" y="680" type="curve" smooth="yes"/>
      <point x="213" y="656"/>
      <point x="216" y="628"/>
    </contour>
    <component base="g"/>
  </outline>
</glyph>
<glyph name="idotless" format="1">
  <advance width="210"/>
  <unicode hex="0131"/>
  <outline>
    <contour>
      <point x="70" y="0" type="line"/>
      <point x="140" y="0" type="line"/>
      <point x="140" y="496" type="line"/>
      <point x="70" y="496" type="line"/>
    </contour>
    <contour>
      <point x="140" y="0" type="move" name="ogonek"/>
    </contour>
    <contour>
      <point x="105" y="496" type="move" name="top"/>
    </contour>
  </outline>
</glyph>
<glyph name="Kcommaaccent" format="1">
  <advance width="564"/>
  <unicode hex="0136"/>
  <outline>
    <contour>
      <point x="238" y="-226" type="line"/>
      <point x="294" y="-226"/>
      <point x="328" y="-197"/>
      <point x="328" y="-119" type="curve" smooth="yes"/>
      <point x="328" y="-100"/>
      <point x="325" y="-76"/>
      <point x="320" y="-52" type="curve"/>
      <point x="241" y="-52" type="line"/>
      <point x="241" y="-121" type="line"/>
      <point x="284" y="-121" type="line"/>
      <point x="284" y="-135" type="line" smooth="yes"/>
      <point x="284" y="-171"/>
      <point x="271" y="-191"/>
      <point x="238" y="-191" type="curve"/>
    </contour>
    <component base="K" identifier="7FE0F9E1"/>
    <contour>
      <point x="281" y="0" type="move" name="_bottom"/>
    </contour>
  </outline>
</glyph>
<glyph name="kcommaaccent" format="1">
  <advance width="484"/>
  <unicode hex="0137"/>
  <outline>
    <contour>
      <point x="198" y="-226" type="line"/>
      <point x="254" y="-226"/>
      <point x="288" y="-197"/>
      <point x="288" y="-119" type="curve" smooth="yes"/>
      <point x="288" y="-100"/>
      <point x="285" y="-76"/>
      <point x="280" y="-52" type="curve"/>
      <point x="201" y="-52" type="line"/>
      <point x="201" y="-121" type="line"/>
      <point x="244" y="-121" type="line"/>
      <point x="244" y="-135" type="line" smooth="yes"/>
      <point x="244" y="-171"/>
      <point x="231" y="-191"/>
      <point x="198" y="-191" type="curve"/>
    </contour>
    <component base="k" identifier="26449358"/>
  </outline>
</glyph>
<glyph name="Lcommaaccent" format="1">
  <advance width="517"/>
  <unicode hex="013B"/>
  <outline>
    <contour>
      <point x="196" y="-226" type="line"/>
      <point x="253" y="-226"/>
      <point x="287" y="-197"/>
      <point x="287" y="-119" type="curve" smooth="yes"/>
      <point x="287" y="-100"/>
      <point x="284" y="-76"/>
      <point x="278" y="-52" type="curve"/>
      <point x="200" y="-52" type="line"/>
      <point x="200" y="-121" type="line"/>
      <point x="242" y="-121" type="line"/>
      <point x="242" y="-135" type="line" smooth="yes"/>
      <point x="242" y="-171"/>
      <point x="229" y="-191"/>
      <point x="196" y="-191" type="curve"/>
    </contour>
    <component base="L" identifier="92215150"/>
    <contour>
      <point x="240" y="0" type="move" name="_commaaccent"/>
    </contour>
  </outline>
</glyph>
<glyph name="lcommaaccent" format="1">
  <advance width="229"/>
  <unicode hex="013C"/>
  <outline>
    <contour>
      <point x="62" y="-226" type="line"/>
      <point x="119" y="-226"/>
      <point x="153" y="-197"/>
      <point x="153" y="-119" type="curve" smooth="yes"/>
      <point x="153" y="-100"/>
      <point x="150" y="-76"/>
      <point x="145" y="-52" type="curve"/>
      <point x="66" y="-52" type="line"/>
      <point x="66" y="-121" type="line"/>
      <point x="109" y="-121" type="line"/>
      <point x="109" y="-135" type="line" smooth="yes"/>
      <point x="109" y="-171"/>
      <point x="95" y="-191"/>
      <point x="62" y="-191" type="curve"/>
    </contour>
    <component base="l" identifier="8207C01B"/>
  </outline>
</glyph>
<glyph name="Lcaron" format="1">
  <advance width="517"/>
  <unicode hex="013D"/>
  <outline>
    <contour>
      <point x="266" y="512" type="line"/>
      <point x="324" y="512"/>
      <point x="357" y="542"/>
      <point x="357" y="615" type="curve" smooth="yes"/>
      <point x="357" y="639"/>
      <point x="354" y="667"/>
      <point x="348" y="700" type="curve"/>
      <point x="267" y="700" type="line"/>
      <point x="267" y="624" type="line"/>
      <point x="313" y="624" type="line"/>
      <point x="313" y="600" type="line" smooth="yes"/>
      <point x="313" y="566"/>
      <point x="300" y="548"/>
      <point x="266" y="548" type="curve"/>
    </contour>
    <component base="L" identifier="CFC0081C"/>
    <contour>
      <point x="308" y="741" type="move" name="_bottom"/>
    </contour>
  </outline>
</glyph>
<glyph name="lcaron" format="1">
  <advance width="316"/>
  <unicode hex="013E"/>
  <outline>
    <contour>
      <point x="217" y="552" type="line"/>
      <point x="275" y="552"/>
      <point x="308" y="581"/>
      <point x="308" y="655" type="curve" smooth="yes"/>
      <point x="308" y="679"/>
      <point x="306" y="707"/>
      <point x="299" y="740" type="curve"/>
      <point x="218" y="740" type="line"/>
      <point x="218" y="664" type="line"/>
      <point x="264" y="664" type="line"/>
      <point x="264" y="639" type="line" smooth="yes"/>
      <point x="264" y="606"/>
      <point x="251" y="588"/>
      <point x="217" y="588" type="curve"/>
    </contour>
    <component base="l" identifier="FBF6D3E7"/>
  </outline>
</glyph>
<glyph name="ldot" format="1">
  <advance width="331"/>
  <unicode hex="0140"/>
  <outline>
    <contour>
      <point x="80" y="0" type="line"/>
      <point x="150" y="0" type="line"/>
      <point x="150" y="720" type="line"/>
      <point x="80" y="720" type="line"/>
    </contour>
    <contour>
      <point x="255" y="322" type="curve" smooth="yes"/>
      <point x="280" y="322"/>
      <point x="301" y="343"/>
      <point x="301" y="368" type="curve" smooth="yes"/>
      <point x="301" y="393"/>
      <point x="280" y="414"/>
      <point x="255" y="414" type="curve" smooth="yes"/>
      <point x="229" y="414"/>
      <point x="209" y="393"/>
      <point x="209" y="368" type="curve" smooth="yes"/>
      <point x="209" y="343"/>
      <point x="229" y="322"/>
    </contour>
  </outline>
</glyph>
<glyph name="Lslash" format="1">
  <advance width="543"/>
  <unicode hex="0141"/>
  <outline>
    <contour>
      <point x="20" y="289" type="line"/>
      <point x="301" y="399" type="line"/>
      <point x="301" y="454" type="line"/>
      <point x="20" y="344" type="line"/>
    </contour>
    <component base="L" xOffset="26"/>
  </outline>
</glyph>
<glyph name="lslash" format="1">
  <advance width="239"/>
  <unicode hex="0142"/>
  <outline>
    <contour>
      <point x="84" y="0" type="line"/>
      <point x="154" y="0" type="line"/>
      <point x="154" y="720" type="line"/>
      <point x="84" y="720" type="line"/>
    </contour>
    <contour>
      <point x="9" y="343" type="line"/>
      <point x="230" y="439" type="line"/>
      <point x="230" y="494" type="line"/>
      <point x="9" y="398" type="line"/>
    </contour>
  </outline>
</glyph>
<glyph name="Ncommaaccent" format="1">
  <advance width="679"/>
  <unicode hex="0145"/>
  <outline>
    <contour>
      <point x="299" y="-226" type="line"/>
      <point x="355" y="-226"/>
      <point x="389" y="-197"/>
      <point x="389" y="-119" type="curve" smooth="yes"/>
      <point x="389" y="-100"/>
      <point x="386" y="-76"/>
      <point x="380" y="-52" type="curve"/>
      <point x="302" y="-52" type="line"/>
      <point x="302" y="-121" type="line"/>
      <point x="344" y="-121" type="line"/>
      <point x="344" y="-135" type="line" smooth="yes"/>
      <point x="344" y="-171"/>
      <point x="331" y="-191"/>
      <point x="299" y="-191" type="curve"/>
    </contour>
    <component base="N" identifier="014B3A38"/>
    <contour>
      <point x="343" y="0" type="move" name="_bottom"/>
    </contour>
  </outline>
</glyph>
<glyph name="ncommaaccent" format="1">
  <advance width="560"/>
  <unicode hex="0146"/>
  <outline>
    <contour>
      <point x="255" y="-226" type="line"/>
      <point x="311" y="-226"/>
      <point x="345" y="-197"/>
      <point x="345" y="-119" type="curve" smooth="yes"/>
      <point x="345" y="-100"/>
      <point x="342" y="-76"/>
      <point x="337" y="-52" type="curve"/>
      <point x="258" y="-52" type="line"/>
      <point x="258" y="-121" type="line"/>
      <point x="301" y="-121" type="line"/>
      <point x="301" y="-135" type="line" smooth="yes"/>
      <point x="301" y="-171"/>
      <point x="288" y="-191"/>
      <point x="255" y="-191" type="curve"/>
    </contour>
    <component base="n" identifier="25A3795B"/>
  </outline>
</glyph>
<glyph name="OE" format="1">
  <advance width="1123"/>
  <unicode hex="0152"/>
  <outline>
    <contour>
      <point x="394" y="-12" type="curve" smooth="yes"/>
      <point x="509" y="-12"/>
      <point x="608" y="38"/>
      <point x="670" y="133" type="curve"/>
      <point x="670" y="0" type="line"/>
      <point x="1065" y="0" type="line"/>
      <point x="1065" y="58" type="line"/>
      <point x="740" y="58" type="line"/>
      <point x="740" y="323" type="line"/>
      <point x="1035" y="323" type="line"/>
      <point x="1035" y="381" type="line"/>
      <point x="740" y="381" type="line"/>
      <point x="740" y="642" type="line"/>
      <point x="1065" y="642" type="line"/>
      <point x="1065" y="700" type="line"/>
      <point x="670" y="700" type="line"/>
      <point x="670" y="567" type="line"/>
      <point x="608" y="661"/>
      <point x="509" y="712"/>
      <point x="394" y="712" type="curve" smooth="yes"/>
      <point x="198" y="712"/>
      <point x="48" y="564"/>
      <point x="48" y="350" type="curve" smooth="yes"/>
      <point x="48" y="135"/>
      <point x="198" y="-12"/>
    </contour>
    <contour>
      <point x="394" y="49" type="curve" smooth="yes"/>
      <point x="243" y="49"/>
      <point x="120" y="162"/>
      <point x="120" y="350" type="curve" smooth="yes"/>
      <point x="120" y="538"/>
      <point x="243" y="650"/>
      <point x="394" y="650" type="curve" smooth="yes"/>
      <point x="545" y="650"/>
      <point x="668" y="538"/>
      <point x="668" y="350" type="curve" smooth="yes"/>
      <point x="668" y="162"/>
      <point x="545" y="49"/>
    </contour>
  </outline>
</glyph>
<glyph name="oe" format="1">
  <advance width="980"/>
  <unicode hex="0153"/>
  <outline>
    <contour>
      <point x="293" y="-12" type="curve" smooth="yes"/>
      <point x="386" y="-12"/>
      <point x="460" y="33"/>
      <point x="500" y="110" type="curve"/>
      <point x="540" y="33"/>
      <point x="615" y="-12"/>
      <point x="708" y="-12" type="curve" smooth="yes"/>
      <point x="830" y="-12"/>
      <point x="907" y="62"/>
      <point x="931" y="161" type="curve"/>
      <point x="864" y="161" type="line"/>
      <point x="842" y="91"/>
      <point x="788" y="48"/>
      <point x="708" y="48" type="curve" smooth="yes"/>
      <point x="625" y="48"/>
      <point x="542" y="108"/>
      <point x="536" y="233" type="curve"/>
      <point x="937" y="233" type="line"/>
      <point x="938" y="252"/>
      <point x="938" y="265"/>
      <point x="938" y="279" type="curve" smooth="yes"/>
      <point x="938" y="398"/>
      <point x="854" y="508"/>
      <point x="710" y="508" type="curve" smooth="yes"/>
      <point x="615" y="508"/>
      <point x="539" y="463"/>
      <point x="499" y="387" type="curve"/>
      <point x="461" y="464"/>
      <point x="387" y="508"/>
      <point x="295" y="508" type="curve" smooth="yes"/>
      <point x="156" y="508"/>
      <point x="48" y="407"/>
      <point x="48" y="248" type="curve" smooth="yes"/>
      <point x="48" y="89"/>
      <point x="154" y="-12"/>
    </contour>
    <contour>
      <point x="293" y="48" type="curve" smooth="yes"/>
      <point x="203" y="48"/>
      <point x="120" y="115"/>
      <point x="120" y="248" type="curve" smooth="yes"/>
      <point x="120" y="381"/>
      <point x="204" y="448"/>
      <point x="295" y="448" type="curve" smooth="yes"/>
      <point x="385" y="448"/>
      <point x="468" y="381"/>
      <point x="468" y="248" type="curve" smooth="yes"/>
      <point x="468" y="115"/>
      <point x="384" y="48"/>
    </contour>
    <contour>
      <point x="537" y="293" type="line"/>
      <point x="545" y="394"/>
      <point x="621" y="448"/>
      <point x="707" y="448" type="curve" smooth="yes"/>
      <point x="798" y="448"/>
      <point x="866" y="390"/>
      <point x="870" y="293" type="curve"/>
    </contour>
  </outline>
</glyph>
<glyph name="Rcommaaccent" format="1">
  <advance width="583"/>
  <unicode hex="0156"/>
  <outline>
    <contour>
      <point x="247" y="-226" type="line"/>
      <point x="303" y="-226"/>
      <point x="337" y="-197"/>
      <point x="337" y="-119" type="curve" smooth="yes"/>
      <point x="337" y="-100"/>
      <point x="334" y="-76"/>
      <point x="329" y="-52" type="curve"/>
      <point x="250" y="-52" type="line"/>
      <point x="250" y="-121" type="line"/>
      <point x="292" y="-121" type="line"/>
      <point x="292" y="-135" type="line" smooth="yes"/>
      <point x="292" y="-171"/>
      <point x="279" y="-191"/>
      <point x="247" y="-191" type="curve"/>
    </contour>
    <component base="R" identifier="4D30E874"/>
    <contour>
      <point x="291" y="0" type="move" name="_bottom"/>
    </contour>
  </outline>
</glyph>
<glyph name="rcommaaccent" format="1">
  <advance width="353"/>
  <unicode hex="0157"/>
  <outline>
    <contour>
      <point x="69" y="-226" type="line"/>
      <point x="126" y="-226"/>
      <point x="159" y="-197"/>
      <point x="159" y="-119" type="curve" smooth="yes"/>
      <point x="159" y="-100"/>
      <point x="157" y="-76"/>
      <point x="151" y="-52" type="curve"/>
      <point x="72" y="-52" type="line"/>
      <point x="72" y="-121" type="line"/>
      <point x="115" y="-121" type="line"/>
      <point x="115" y="-135" type="line" smooth="yes"/>
      <point x="115" y="-171"/>
      <point x="102" y="-191"/>
      <point x="69" y="-191" type="curve"/>
    </contour>
    <component base="r" identifier="827867E4"/>
  </outline>
</glyph>
<glyph name="tcedilla" format="1">
  <advance width="376"/>
  <unicode hex="0163"/>
  <outline>
    <contour>
      <point x="172" y="-258" type="line"/>
      <point x="272" y="-258" type="line" smooth="yes"/>
      <point x="342" y="-258"/>
      <point x="389" y="-220"/>
      <point x="389" y="-160" type="curve" smooth="yes"/>
      <point x="389" y="-98"/>
      <point x="339" y="-65"/>
      <point x="261" y="-67" type="curve"/>
      <point x="261" y="7" type="line"/>
      <point x="212" y="7" type="line"/>
      <point x="212" y="-112" type="line"/>
      <point x="258" y="-112" type="line" smooth="yes"/>
      <point x="308" y="-112"/>
      <point x="330" y="-129"/>
      <point x="330" y="-160" type="curve" smooth="yes"/>
      <point x="330" y="-194"/>
      <point x="308" y="-211"/>
      <point x="258" y="-211" type="curve" smooth="yes"/>
      <point x="172" y="-211" type="line"/>
    </contour>
    <component base="t"/>
  </outline>
</glyph>
<glyph name="tcaron" format="1">
  <advance width="376"/>
  <unicode hex="0165"/>
  <outline>
    <contour>
      <point x="243" y="591" type="line"/>
      <point x="301" y="591"/>
      <point x="334" y="616"/>
      <point x="334" y="683" type="curve" smooth="yes"/>
      <point x="334" y="708"/>
      <point x="331" y="730"/>
      <point x="325" y="763" type="curve"/>
      <point x="244" y="763" type="line"/>
      <point x="244" y="687" type="line"/>
      <point x="290" y="687" type="line"/>
      <point x="290" y="665" type="line" smooth="yes"/>
      <point x="290" y="640"/>
      <point x="277" y="627"/>
      <point x="243" y="627" type="curve"/>
    </contour>
    <component base="t"/>
  </outline>
</glyph>
<glyph name="Schwa" format="1">
  <advance width="752"/>
  <unicode hex="018F"/>
  <outline>
    <contour>
      <point x="370" y="-12" type="curve" smooth="yes"/>
      <point x="570" y="-12"/>
      <point x="704" y="132"/>
      <point x="704" y="345" type="curve" smooth="yes"/>
      <point x="704" y="565"/>
      <point x="569" y="712"/>
      <point x="373" y="712" type="curve" smooth="yes"/>
      <point x="214" y="712"/>
      <point x="93" y="621"/>
      <point x="52" y="481" type="curve"/>
      <point x="132" y="481" type="line"/>
      <point x="164" y="586"/>
      <point x="258" y="648"/>
      <point x="373" y="648" type="curve" smooth="yes"/>
      <point x="520" y="648"/>
      <point x="628" y="539"/>
      <point x="628" y="357" type="curve" smooth="yes"/>
      <point x="628" y="320" type="line" smooth="yes"/>
      <point x="628" y="149"/>
      <point x="516" y="51"/>
      <point x="370" y="51" type="curve" smooth="yes"/>
      <point x="218" y="51"/>
      <point x="118" y="152"/>
      <point x="121" y="306" type="curve"/>
      <point x="643" y="306" type="line"/>
      <point x="643" y="371" type="line"/>
      <point x="51" y="371" type="line"/>
      <point x="49" y="351"/>
      <point x="48" y="332"/>
      <point x="48" y="313" type="curve" smooth="yes"/>
      <point x="48" y="107"/>
      <point x="181" y="-12"/>
    </contour>
    <contour>
      <point x="373" y="700" type="move" name="top"/>
    </contour>
  </outline>
</glyph>
<glyph name="florin" format="1">
  <advance width="332"/>
  <unicode hex="0192"/>
  <outline>
    <contour>
      <point x="-41" y="-179" type="line"/>
      <point x="-16" y="-179" type="line" smooth="yes"/>
      <point x="73" y="-179"/>
      <point x="115" y="-139"/>
      <point x="124" y="-50" type="curve" smooth="yes"/>
      <point x="193" y="599" type="line" smooth="yes"/>
      <point x="201" y="673"/>
      <point x="240" y="704"/>
      <point x="324" y="704" type="curve"/>
      <point x="329" y="763" type="line"/>
      <point x="203" y="763"/>
      <point x="135" y="714"/>
      <point x="123" y="599" type="curve" smooth="yes"/>
      <point x="54" y="-50" type="line" smooth="yes"/>
      <point x="48" y="-105"/>
      <point x="28" y="-121"/>
      <point x="-15" y="-121" type="curve" smooth="yes"/>
      <point x="-36" y="-121" type="line"/>
    </contour>
    <contour>
      <point x="36" y="488" type="line"/>
      <point x="309" y="488" type="line"/>
      <point x="314" y="546" type="line"/>
      <point x="41" y="546" type="line"/>
    </contour>
  </outline>
</glyph>
<glyph name="Scommaaccent" format="1">
  <advance width="572"/>
  <unicode hex="0218"/>
  <outline>
    <contour>
      <point x="253" y="-226" type="line"/>
      <point x="310" y="-226"/>
      <point x="344" y="-197"/>
      <point x="344" y="-119" type="curve" smooth="yes"/>
      <point x="344" y="-100"/>
      <point x="341" y="-76"/>
      <point x="336" y="-52" type="curve"/>
      <point x="257" y="-52" type="line"/>
      <point x="257" y="-121" type="line"/>
      <point x="300" y="-121" type="line"/>
      <point x="300" y="-135" type="line" smooth="yes"/>
      <point x="300" y="-171"/>
      <point x="286" y="-191"/>
      <point x="253" y="-191" type="curve"/>
    </contour>
    <component base="S" identifier="E496C313"/>
    <contour>
      <point x="297" y="-3" type="move" name="_bottom"/>
    </contour>
  </outline>
</glyph>
<glyph name="Tcommaaccent" format="1">
  <advance width="550"/>
  <unicode hex="021A"/>
  <outline>
    <contour>
      <point x="230" y="-226" type="line"/>
      <point x="286" y="-226"/>
      <point x="320" y="-197"/>
      <point x="320" y="-119" type="curve" smooth="yes"/>
      <point x="320" y="-100"/>
      <point x="317" y="-76"/>
      <point x="312" y="-52" type="curve"/>
      <point x="233" y="-52" type="line"/>
      <point x="233" y="-121" type="line"/>
      <point x="276" y="-121" type="line"/>
      <point x="276" y="-135" type="line" smooth="yes"/>
      <point x="276" y="-171"/>
      <point x="262" y="-191"/>
      <point x="230" y="-191" type="curve"/>
    </contour>
    <component base="T" identifier="73F5B2BB"/>
  </outline>
</glyph>
<glyph name="tcommaaccent" format="1">
  <advance width="376"/>
  <unicode hex="021B"/>
  <outline>
    <contour>
      <point x="190" y="-226" type="line"/>
      <point x="246" y="-226"/>
      <point x="280" y="-197"/>
      <point x="280" y="-119" type="curve" smooth="yes"/>
      <point x="280" y="-100"/>
      <point x="278" y="-76"/>
      <point x="272" y="-52" type="curve"/>
      <point x="193" y="-52" type="line"/>
      <point x="193" y="-121" type="line"/>
      <point x="236" y="-121" type="line"/>
      <point x="236" y="-135" type="line" smooth="yes"/>
      <point x="236" y="-171"/>
      <point x="223" y="-191"/>
      <point x="190" y="-191" type="curve"/>
    </contour>
    <contour>
      <point x="258" y="0" type="curve" smooth="yes"/>
      <point x="331" y="0" type="line"/>
      <point x="331" y="60" type="line"/>
      <point x="282" y="60" type="line" smooth="yes"/>
      <point x="214" y="60"/>
      <point x="190" y="78"/>
      <point x="190" y="145" type="curve" smooth="yes"/>
      <point x="190" y="436" type="line"/>
      <point x="340" y="436" type="line"/>
      <point x="340" y="496" type="line"/>
      <point x="190" y="496" type="line"/>
      <point x="190" y="611" type="line"/>
      <point x="130" y="611" type="line"/>
      <point x="120" y="496" type="line"/>
      <point x="34" y="496" type="line"/>
      <point x="34" y="436" type="line"/>
      <point x="120" y="436" type="line"/>
      <point x="120" y="145" type="line" smooth="yes"/>
      <point x="120" y="36"/>
      <point x="171" y="0"/>
    </contour>
  </outline>
</glyph>
<glyph name="schwa" format="1">
  <advance width="560"/>
  <unicode hex="0259"/>
  <outline>
    <contour>
      <point x="270" y="-12" type="curve" smooth="yes"/>
      <point x="413" y="-12"/>
      <point x="512" y="89"/>
      <point x="512" y="247" type="curve" smooth="yes"/>
      <point x="512" y="405"/>
      <point x="412" y="508"/>
      <point x="272" y="508" type="curve" smooth="yes"/>
      <point x="156" y="508"/>
      <point x="81" y="441"/>
      <point x="56" y="350" type="curve"/>
      <point x="124" y="350" type="line"/>
      <point x="146" y="411"/>
      <point x="198" y="448"/>
      <point x="272" y="448" type="curve" smooth="yes"/>
      <point x="358" y="448"/>
      <point x="444" y="384"/>
      <point x="444" y="249" type="curve" smooth="yes"/>
      <point x="444" y="222" type="line" smooth="yes"/>
      <point x="444" y="109"/>
      <point x="364" y="48"/>
      <point x="273" y="48" type="curve" smooth="yes"/>
      <point x="182" y="48"/>
      <point x="114" y="106"/>
      <point x="110" y="203" type="curve"/>
      <point x="458" y="203" type="line"/>
      <point x="458" y="263" type="line"/>
      <point x="43" y="263" type="line"/>
      <point x="42" y="244"/>
      <point x="42" y="231"/>
      <point x="42" y="217" type="curve" smooth="yes"/>
      <point x="42" y="98"/>
      <point x="126" y="-12"/>
    </contour>
    <contour>
      <point x="273" y="0" type="move" name="bottom"/>
    </contour>
    <contour>
      <point x="169" y="484" type="move" name="ogonek"/>
    </contour>
    <contour>
      <point x="277" y="497" type="move" name="top"/>
    </contour>
  </outline>
</glyph>
<glyph name="caron" format="1">
  <advance width="316"/>
  <unicode hex="02C7"/>
  <outline>
    <contour>
      <point x="158" y="553" type="line"/>
      <point x="292" y="635" type="line"/>
      <point x="292" y="691" type="line"/>
      <point x="158" y="608" type="line"/>
      <point x="24" y="691" type="line"/>
      <point x="24" y="635" type="line"/>
    </contour>
    <contour>
      <point x="158" y="496" type="move" name="_top"/>
    </contour>
  </outline>
</glyph>
<glyph name="breve" format="1">
  <advance width="319"/>
  <unicode hex="02D8"/>
  <outline>
    <contour>
      <point x="159" y="556" type="curve"/>
      <point x="249" y="556"/>
      <point x="295" y="612"/>
      <point x="295" y="679" type="curve" smooth="yes"/>
      <point x="295" y="692" type="line"/>
      <point x="250" y="692" type="line"/>
      <point x="250" y="641"/>
      <point x="223" y="612"/>
      <point x="159" y="612" type="curve"/>
      <point x="95" y="612"/>
      <point x="68" y="641"/>
      <point x="68" y="692" type="curve"/>
      <point x="24" y="692" type="line"/>
      <point x="24" y="679" type="line" smooth="yes"/>
      <point x="24" y="612"/>
      <point x="69" y="556"/>
    </contour>
    <contour>
      <point x="159" y="496" type="move" name="_top"/>
    </contour>
  </outline>
</glyph>
<glyph name="dotaccent" format="1">
  <advance width="148"/>
  <unicode hex="02D9"/>
  <outline>
    <contour>
      <point x="74" y="563" type="curve" smooth="yes"/>
      <point x="99" y="563"/>
      <point x="120" y="584"/>
      <point x="120" y="609" type="curve" smooth="yes"/>
      <point x="120" y="634"/>
      <point x="99" y="655"/>
      <point x="74" y="655" type="curve" smooth="yes"/>
      <point x="49" y="655"/>
      <point x="28" y="634"/>
      <point x="28" y="609" type="curve" smooth="yes"/>
      <point x="28" y="584"/>
      <point x="49" y="563"/>
    </contour>
    <contour>
      <point x="74" y="496" type="move" name="_top"/>
    </contour>
  </outline>
</glyph>
<glyph name="ring" format="1">
  <advance width="248"/>
  <unicode hex="02DA"/>
  <outline>
    <contour>
      <point x="124" y="560" type="curve" smooth="yes"/>
      <point x="181" y="560"/>
      <point x="226" y="598"/>
      <point x="226" y="660" type="curve" smooth="yes"/>
      <point x="226" y="722"/>
      <point x="181" y="760"/>
      <point x="124" y="760" type="curve" smooth="yes"/>
      <point x="69" y="760"/>
      <point x="22" y="722"/>
      <point x="22" y="660" type="curve" smooth="yes"/>
      <point x="22" y="598"/>
      <point x="69" y="560"/>
    </contour>
    <contour>
      <point x="124" y="599" type="curve" smooth="yes"/>
      <point x="92" y="599"/>
      <point x="66" y="623"/>
      <point x="66" y="660" type="curve" smooth="yes"/>
      <point x="66" y="698"/>
      <point x="92" y="721"/>
      <point x="124" y="721" type="curve" smooth="yes"/>
      <point x="157" y="721"/>
      <point x="183" y="698"/>
      <point x="183" y="660" type="curve" smooth="yes"/>
      <point x="183" y="623"/>
      <point x="157" y="599"/>
    </contour>
    <contour>
      <point x="124" y="496" type="move" name="_top"/>
    </contour>
  </outline>
</glyph>
<glyph name="ogonek" format="1">
  <advance width="248"/>
  <unicode hex="02DB"/>
  <outline>
    <contour>
      <point x="142" y="-201" type="curve" smooth="yes"/>
      <point x="166" y="-201"/>
      <point x="192" y="-196"/>
      <point x="214" y="-188" type="curve"/>
      <point x="214" y="-139" type="line"/>
      <point x="192" y="-148"/>
      <point x="169" y="-153"/>
      <point x="150" y="-153" type="curve" smooth="yes"/>
      <point x="113" y="-153"/>
      <point x="88" y="-135"/>
      <point x="88" y="-102" type="curve" smooth="yes"/>
      <point x="88" y="-76"/>
      <point x="104" y="-52"/>
      <point x="151" y="-29" type="curve" smooth="yes"/>
      <point x="211" y="0" type="line"/>
      <point x="192" y="38" type="line"/>
      <point x="137" y="13" type="line" smooth="yes"/>
      <point x="58" y="-23"/>
      <point x="29" y="-64"/>
      <point x="29" y="-109" type="curve" smooth="yes"/>
      <point x="29" y="-176"/>
      <point x="85" y="-201"/>
    </contour>
    <contour>
      <point x="211" y="0" type="move" name="_ogonek"/>
    </contour>
  </outline>
</glyph>
<glyph name="tilde" format="1">
  <advance width="334"/>
  <unicode hex="02DC"/>
  <outline>
    <contour>
      <point x="221" y="554" type="curve" smooth="yes"/>
      <point x="268" y="554"/>
      <point x="304" y="588"/>
      <point x="310" y="647" type="curve"/>
      <point x="268" y="647" type="line"/>
      <point x="264" y="617"/>
      <point x="246" y="602"/>
      <point x="224" y="602" type="curve" smooth="yes"/>
      <point x="181" y="602"/>
      <point x="164" y="649"/>
      <point x="112" y="649" type="curve" smooth="yes"/>
      <point x="65" y="649"/>
      <point x="32" y="617"/>
      <point x="24" y="556" type="curve"/>
      <point x="67" y="556" type="line"/>
      <point x="71" y="587"/>
      <point x="87" y="601"/>
      <point x="109" y="601" type="curve" smooth="yes"/>
      <point x="150" y="601"/>
      <point x="168" y="554"/>
    </contour>
    <contour>
      <point x="167" y="496" type="move" name="_top"/>
    </contour>
  </outline>
</glyph>
<glyph name="hungarumlaut" format="1">
  <advance width="325"/>
  <unicode hex="02DD"/>
  <outline>
    <contour>
      <point x="162" y="551" type="line"/>
      <point x="210" y="551" type="line"/>
      <point x="294" y="690" type="line"/>
      <point x="231" y="690" type="line"/>
    </contour>
    <contour>
      <point x="24" y="551" type="line"/>
      <point x="73" y="551" type="line"/>
      <point x="152" y="690" type="line"/>
      <point x="89" y="690" type="line"/>
    </contour>
    <contour>
      <point x="126" y="496" type="move" name="_top"/>
    </contour>
  </outline>
</glyph>
<glyph name="tildecomb" format="1">
  <advance width="286"/>
  <unicode hex="0303"/>
  <outline>
    <contour>
      <point x="197" y="554" type="curve" smooth="yes"/>
      <point x="244" y="554"/>
      <point x="280" y="588"/>
      <point x="286" y="647" type="curve"/>
      <point x="244" y="647" type="line"/>
      <point x="240" y="617"/>
      <point x="222" y="602"/>
      <point x="200" y="602" type="curve" smooth="yes"/>
      <point x="157" y="602"/>
      <point x="140" y="649"/>
      <point x="88" y="649" type="curve" smooth="yes"/>
      <point x="41" y="649"/>
      <point x="8" y="617"/>
      <point x="0" y="556" type="curve"/>
      <point x="43" y="556" type="line"/>
      <point x="47" y="587"/>
      <point x="63" y="601"/>
      <point x="85" y="601" type="curve" smooth="yes"/>
      <point x="126" y="601"/>
      <point x="144" y="554"/>
    </contour>
    <contour>
      <point x="132" y="496" type="move" name="_top"/>
    </contour>
  </outline>
</glyph>
<glyph name="brevecomb" format="1">
  <advance width="271"/>
  <unicode hex="0306"/>
  <outline>
    <contour>
      <point x="135" y="556" type="curve"/>
      <point x="225" y="556"/>
      <point x="271" y="612"/>
      <point x="271" y="679" type="curve" smooth="yes"/>
      <point x="271" y="692" type="line"/>
      <point x="226" y="692" type="line"/>
      <point x="226" y="641"/>
      <point x="199" y="612"/>
      <point x="135" y="612" type="curve"/>
      <point x="71" y="612"/>
      <point x="44" y="641"/>
      <point x="44" y="692" type="curve"/>
      <point x="0" y="692" type="line"/>
      <point x="0" y="679" type="line" smooth="yes"/>
      <point x="0" y="612"/>
      <point x="45" y="556"/>
    </contour>
    <contour>
      <point x="135" y="496" type="move" name="_top"/>
    </contour>
  </outline>
</glyph>
<glyph name="dotaccentcomb" format="1">
  <advance width="92"/>
  <unicode hex="0307"/>
  <outline>
    <contour>
      <point x="46" y="563" type="curve" smooth="yes"/>
      <point x="71" y="563"/>
      <point x="92" y="584"/>
      <point x="92" y="609" type="curve" smooth="yes"/>
      <point x="92" y="634"/>
      <point x="71" y="655"/>
      <point x="46" y="655" type="curve" smooth="yes"/>
      <point x="21" y="655"/>
      <point x="0" y="634"/>
      <point x="0" y="609" type="curve" smooth="yes"/>
      <point x="0" y="584"/>
      <point x="21" y="563"/>
    </contour>
    <contour>
      <point x="46" y="496" type="move" name="_top"/>
    </contour>
  </outline>
</glyph>
<glyph name="dieresiscomb" format="1">
  <advance width="245"/>
  <unicode hex="0308"/>
  <outline>
    <contour>
      <point x="200" y="573" type="curve" smooth="yes"/>
      <point x="225" y="573"/>
      <point x="245" y="594"/>
      <point x="245" y="619" type="curve" smooth="yes"/>
      <point x="245" y="644"/>
      <point x="225" y="665"/>
      <point x="200" y="665" type="curve" smooth="yes"/>
      <point x="174" y="665"/>
      <point x="154" y="644"/>
      <point x="154" y="619" type="curve" smooth="yes"/>
      <point x="154" y="594"/>
      <point x="174" y="573"/>
    </contour>
    <contour>
      <point x="46" y="573" type="curve" smooth="yes"/>
      <point x="71" y="573"/>
      <point x="92" y="594"/>
      <point x="92" y="619" type="curve" smooth="yes"/>
      <point x="92" y="644"/>
      <point x="71" y="665"/>
      <point x="46" y="665" type="curve" smooth="yes"/>
      <point x="20" y="665"/>
      <point x="0" y="644"/>
      <point x="0" y="619" type="curve" smooth="yes"/>
      <point x="0" y="594"/>
      <point x="20" y="573"/>
    </contour>
    <contour>
      <point x="122" y="496" type="move" name="_top"/>
    </contour>
  </outline>
</glyph>
<glyph name="ringcomb" format="1">
  <advance width="204"/>
  <unicode hex="030A"/>
  <outline>
    <contour>
      <point x="102" y="560" type="curve" smooth="yes"/>
      <point x="159" y="560"/>
      <point x="204" y="598"/>
      <point x="204" y="660" type="curve" smooth="yes"/>
      <point x="204" y="722"/>
      <point x="159" y="760"/>
      <point x="102" y="760" type="curve" smooth="yes"/>
      <point x="47" y="760"/>
      <point x="0" y="722"/>
      <point x="0" y="660" type="curve" smooth="yes"/>
      <point x="0" y="598"/>
      <point x="47" y="560"/>
    </contour>
    <contour>
      <point x="102" y="599" type="curve" smooth="yes"/>
      <point x="70" y="599"/>
      <point x="44" y="623"/>
      <point x="44" y="660" type="curve" smooth="yes"/>
      <point x="44" y="698"/>
      <point x="70" y="721"/>
      <point x="102" y="721" type="curve" smooth="yes"/>
      <point x="135" y="721"/>
      <point x="161" y="698"/>
      <point x="161" y="660" type="curve" smooth="yes"/>
      <point x="161" y="623"/>
      <point x="135" y="599"/>
    </contour>
    <contour>
      <point x="102" y="496" type="move" name="_top"/>
    </contour>
  </outline>
</glyph>
<glyph name="cedillacomb" format="1">
  <advance width="217"/>
  <unicode hex="0327"/>
  <outline>
    <contour>
      <point x="0" y="-258" type="line"/>
      <point x="100" y="-258" type="line" smooth="yes"/>
      <point x="170" y="-258"/>
      <point x="217" y="-220"/>
      <point x="217" y="-160" type="curve" smooth="yes"/>
      <point x="217" y="-98"/>
      <point x="167" y="-65"/>
      <point x="89" y="-67" type="curve"/>
      <point x="89" y="7" type="line"/>
      <point x="40" y="7" type="line"/>
      <point x="40" y="-112" type="line"/>
      <point x="86" y="-112" type="line" smooth="yes"/>
      <point x="136" y="-112"/>
      <point x="158" y="-129"/>
      <point x="158" y="-160" type="curve" smooth="yes"/>
      <point x="158" y="-194"/>
      <point x="136" y="-211"/>
      <point x="86" y="-211" type="curve" smooth="yes"/>
      <point x="0" y="-211" type="line"/>
    </contour>
    <contour>
      <point x="61" y="0" type="move" name="_bottom"/>
    </contour>
  </outline>
</glyph>
<glyph name="ogonekcomb" format="1">
  <advance width="185"/>
  <unicode hex="0328"/>
  <outline>
    <contour>
      <point x="113" y="-201" type="curve" smooth="yes"/>
      <point x="137" y="-201"/>
      <point x="163" y="-196"/>
      <point x="185" y="-188" type="curve"/>
      <point x="185" y="-139" type="line"/>
      <point x="163" y="-148"/>
      <point x="140" y="-153"/>
      <point x="121" y="-153" type="curve" smooth="yes"/>
      <point x="84" y="-153"/>
      <point x="59" y="-135"/>
      <point x="59" y="-102" type="curve" smooth="yes"/>
      <point x="59" y="-76"/>
      <point x="75" y="-52"/>
      <point x="122" y="-29" type="curve" smooth="yes"/>
      <point x="182" y="0" type="line"/>
      <point x="163" y="38" type="line"/>
      <point x="108" y="13" type="line" smooth="yes"/>
      <point x="29" y="-23"/>
      <point x="0" y="-64"/>
      <point x="0" y="-109" type="curve" smooth="yes"/>
      <point x="0" y="-176"/>
      <point x="56" y="-201"/>
    </contour>
    <contour>
      <point x="182" y="0" type="move" name="_ogonek"/>
    </contour>
  </outline>
</glyph>
<glyph name="pi" format="1">
  <advance width="646"/>
  <unicode hex="03C0"/>
  <outline>
    <contour>
      <point x="131" y="0" type="line"/>
      <point x="201" y="0" type="line"/>
      <point x="201" y="440" type="line"/>
      <point x="445" y="440" type="line"/>
      <point x="445" y="0" type="line"/>
      <point x="515" y="0" type="line"/>
      <point x="515" y="440" type="line"/>
      <point x="596" y="440" type="line"/>
      <point x="596" y="496" type="line"/>
      <point x="50" y="496" type="line"/>
      <point x="50" y="440" type="line"/>
      <point x="131" y="440" type="line"/>
    </contour>
  </outline>
</glyph>
<glyph name="e_t" format="1">
  <advance width="877"/>
  <unicode hex="1960"/>
  <outline>
    <contour>
      <point x="841" y="496" type="line"/>
      <point x="691" y="496" type="line"/>
      <point x="691" y="611" type="line"/>
      <point x="631" y="611" type="line"/>
      <point x="621" y="496" type="line"/>
      <point x="290" y="496" type="line" smooth="yes"/>
      <point x="147" y="496"/>
      <point x="48" y="407"/>
      <point x="48" y="249" type="curve" smooth="yes"/>
      <point x="48" y="91"/>
      <point x="148" y="-12"/>
      <point x="288" y="-12" type="curve" smooth="yes"/>
      <point x="404" y="-12"/>
      <point x="479" y="55"/>
      <point x="504" y="146" type="curve"/>
      <point x="436" y="146" type="line"/>
      <point x="414" y="85"/>
      <point x="362" y="48"/>
      <point x="288" y="48" type="curve" smooth="yes"/>
      <point x="202" y="48"/>
      <point x="116" y="112"/>
      <point x="116" y="247" type="curve" smooth="yes"/>
      <point x="116" y="274" type="line" smooth="yes"/>
      <point x="116" y="387"/>
      <point x="193" y="436"/>
      <point x="290" y="436" type="curve" smooth="yes"/>
      <point x="621" y="436" type="line"/>
      <point x="621" y="145" type="line" smooth="yes"/>
      <point x="621" y="36"/>
      <point x="672" y="0"/>
      <point x="759" y="0" type="curve" smooth="yes"/>
      <point x="832" y="0" type="line"/>
      <point x="832" y="60" type="line"/>
      <point x="783" y="60" type="line" smooth="yes"/>
      <point x="715" y="60"/>
      <point x="691" y="78"/>
      <point x="691" y="145" type="curve" smooth="yes"/>
      <point x="691" y="436" type="line"/>
      <point x="841" y="436" type="line"/>
    </contour>
    <contour>
      <point x="499" y="375" type="curve"/>
      <point x="427" y="375" type="line"/>
      <point x="440" y="354"/>
      <point x="448" y="327"/>
      <point x="450" y="293" type="curve"/>
      <point x="102" y="293" type="line"/>
      <point x="102" y="233" type="line"/>
      <point x="517" y="233" type="line"/>
      <point x="518" y="252"/>
      <point x="518" y="265"/>
      <point x="518" y="279" type="curve" smooth="yes"/>
      <point x="517" y="315"/>
      <point x="511" y="347"/>
    </contour>
  </outline>
</glyph>
<glyph name="emdash" format="1">
  <advance width="839"/>
  <unicode hex="2014"/>
  <outline>
    <contour>
      <point x="60" y="261" type="line"/>
      <point x="779" y="261" type="line"/>
      <point x="779" y="320" type="line"/>
      <point x="60" y="320" type="line"/>
    </contour>
  </outline>
</glyph>
<glyph name="quoteleft" format="1">
  <advance width="196"/>
  <unicode hex="2018"/>
  <outline>
    <contour>
      <point x="27" y="484" type="line"/>
      <point x="108" y="484" type="line"/>
      <point x="165" y="700" type="line"/>
      <point x="114" y="700" type="line"/>
    </contour>
  </outline>
</glyph>
<glyph name="quotesinglbase" format="1">
  <advance width="166"/>
  <unicode hex="201A"/>
  <outline>
    <contour>
      <point x="-2" y="-124" type="line"/>
      <point x="49" y="-124" type="line"/>
      <point x="137" y="92" type="line"/>
      <point x="56" y="92" type="line"/>
    </contour>
  </outline>
</glyph>
<glyph name="quotedblleft" format="1">
  <advance width="342"/>
  <unicode hex="201C"/>
  <outline>
    <contour>
      <point x="27" y="484" type="line"/>
      <point x="108" y="484" type="line"/>
      <point x="165" y="700" type="line"/>
      <point x="114" y="700" type="line"/>
    </contour>
    <contour>
      <point x="172" y="484" type="line"/>
      <point x="253" y="484" type="line"/>
      <point x="311" y="700" type="line"/>
      <point x="260" y="700" type="line"/>
    </contour>
  </outline>
</glyph>
<glyph name="quotedblright" format="1">
  <advance width="342"/>
  <unicode hex="201D"/>
  <outline>
    <contour>
      <point x="176" y="484" type="line"/>
      <point x="227" y="484" type="line"/>
      <point x="315" y="700" type="line"/>
      <point x="234" y="700" type="line"/>
    </contour>
    <contour>
      <point x="31" y="484" type="line"/>
      <point x="82" y="484" type="line"/>
      <point x="170" y="700" type="line"/>
      <point x="89" y="700" type="line"/>
    </contour>
  </outline>
</glyph>
<glyph name="dagger" format="1">
  <advance width="511"/>
  <unicode hex="2020"/>
  <outline>
    <contour>
      <point x="221" y="-258" type="line"/>
      <point x="290" y="-258" type="line"/>
      <point x="283" y="496" type="line"/>
      <point x="471" y="489" type="line"/>
      <point x="471" y="546" type="line"/>
      <point x="283" y="539" type="line"/>
      <point x="290" y="779" type="line"/>
      <point x="221" y="779" type="line"/>
      <point x="228" y="539" type="line"/>
      <point x="40" y="546" type="line"/>
      <point x="40" y="489" type="line"/>
      <point x="228" y="496" type="line"/>
    </contour>
  </outline>
</glyph>
<glyph name="daggerdbl" format="1">
  <advance width="512"/>
  <unicode hex="2021"/>
  <outline>
    <contour>
      <point x="221" y="-258" type="line"/>
      <point x="290" y="-258" type="line"/>
      <point x="284" y="-18" type="line"/>
      <point x="472" y="-25" type="line"/>
      <point x="472" y="32" type="line"/>
      <point x="284" y="25" type="line"/>
      <point x="284" y="496" type="line"/>
      <point x="472" y="489" type="line"/>
      <point x="472" y="546" type="line"/>
      <point x="284" y="539" type="line"/>
      <point x="290" y="779" type="line"/>
      <point x="221" y="779" type="line"/>
      <point x="229" y="539" type="line"/>
      <point x="41" y="546" type="line"/>
      <point x="41" y="489" type="line"/>
      <point x="229" y="496" type="line"/>
      <point x="229" y="25" type="line"/>
      <point x="41" y="32" type="line"/>
      <point x="41" y="-25" type="line"/>
      <point x="229" y="-18" type="line"/>
    </contour>
  </outline>
</glyph>
<glyph name="bullet" format="1">
  <advance width="351"/>
  <unicode hex="2022"/>
  <outline>
    <contour>
      <point x="175" y="218" type="curve" smooth="yes"/>
      <point x="240" y="218"/>
      <point x="291" y="269"/>
      <point x="291" y="333" type="curve" smooth="yes"/>
      <point x="291" y="398"/>
      <point x="240" y="449"/>
      <point x="175" y="449" type="curve" smooth="yes"/>
      <point x="112" y="449"/>
      <point x="60" y="398"/>
      <point x="60" y="333" type="curve" smooth="yes"/>
      <point x="60" y="269"/>
      <point x="112" y="218"/>
    </contour>
  </outline>
</glyph>
<glyph name="perthousand" format="1">
  <advance width="1084"/>
  <unicode hex="2030"/>
  <outline>
    <contour>
      <point x="127" y="0" type="line"/>
      <point x="198" y="0" type="line"/>
      <point x="608" y="700" type="line"/>
      <point x="538" y="700" type="line"/>
    </contour>
    <contour>
      <point x="196" y="381" type="curve" smooth="yes"/>
      <point x="284" y="381"/>
      <point x="352" y="445"/>
      <point x="352" y="546" type="curve" smooth="yes"/>
      <point x="352" y="647"/>
      <point x="285" y="711"/>
      <point x="197" y="711" type="curve" smooth="yes"/>
      <point x="109" y="711"/>
      <point x="40" y="647"/>
      <point x="40" y="546" type="curve" smooth="yes"/>
      <point x="40" y="445"/>
      <point x="108" y="381"/>
    </contour>
    <contour>
      <point x="196" y="436" type="curve" smooth="yes"/>
      <point x="146" y="436"/>
      <point x="100" y="473"/>
      <point x="100" y="546" type="curve" smooth="yes"/>
      <point x="100" y="620"/>
      <point x="147" y="657"/>
      <point x="197" y="657" type="curve" smooth="yes"/>
      <point x="247" y="657"/>
      <point x="292" y="620"/>
      <point x="292" y="546" type="curve" smooth="yes"/>
      <point x="292" y="473"/>
      <point x="246" y="436"/>
    </contour>
    <contour>
      <point x="546" y="-12" type="curve" smooth="yes"/>
      <point x="634" y="-12"/>
      <point x="702" y="52"/>
      <point x="702" y="153" type="curve" smooth="yes"/>
      <point x="702" y="254"/>
      <point x="635" y="318"/>
      <point x="547" y="318" type="curve" smooth="yes"/>
      <point x="459" y="318"/>
      <point x="390" y="254"/>
      <point x="390" y="153" type="curve" smooth="yes"/>
      <point x="390" y="52"/>
      <point x="458" y="-12"/>
    </contour>
    <contour>
      <point x="546" y="43" type="curve" smooth="yes"/>
      <point x="496" y="43"/>
      <point x="450" y="80"/>
      <point x="450" y="153" type="curve" smooth="yes"/>
      <point x="450" y="227"/>
      <point x="497" y="264"/>
      <point x="547" y="264" type="curve" smooth="yes"/>
      <point x="597" y="264"/>
      <point x="642" y="227"/>
      <point x="642" y="153" type="curve" smooth="yes"/>
      <point x="642" y="80"/>
      <point x="596" y="43"/>
    </contour>
    <contour>
      <point x="888" y="-12" type="curve" smooth="yes"/>
      <point x="976" y="-12"/>
      <point x="1044" y="52"/>
      <point x="1044" y="153" type="curve" smooth="yes"/>
      <point x="1044" y="254"/>
      <point x="977" y="318"/>
      <point x="889" y="318" type="curve" smooth="yes"/>
      <point x="801" y="318"/>
      <point x="732" y="254"/>
      <point x="732" y="153" type="curve" smooth="yes"/>
      <point x="732" y="52"/>
      <point x="800" y="-12"/>
    </contour>
    <contour>
      <point x="888" y="43" type="curve" smooth="yes"/>
      <point x="838" y="43"/>
      <point x="792" y="80"/>
      <point x="792" y="153" type="curve" smooth="yes"/>
      <point x="792" y="227"/>
      <point x="839" y="264"/>
      <point x="889" y="264" type="curve" smooth="yes"/>
      <point x="939" y="264"/>
      <point x="984" y="227"/>
      <point x="984" y="153" type="curve" smooth="yes"/>
      <point x="984" y="80"/>
      <point x="938" y="43"/>
    </contour>
  </outline>
</glyph>
<glyph name="guilsinglleft" format="1">
  <advance width="265"/>
  <unicode hex="2039"/>
  <outline>
    <contour>
      <point x="144" y="120" type="line"/>
      <point x="215" y="120" type="line"/>
      <point x="113" y="295" type="line"/>
      <point x="215" y="470" type="line"/>
      <point x="144" y="470" type="line"/>
      <point x="45" y="295" type="line"/>
    </contour>
  </outline>
</glyph>
<glyph name="guilsinglright" format="1">
  <advance width="265"/>
  <unicode hex="203A"/>
  <outline>
    <contour>
      <point x="50" y="120" type="line"/>
      <point x="121" y="120" type="line"/>
      <point x="220" y="295" type="line"/>
      <point x="121" y="470" type="line"/>
      <point x="50" y="470" type="line"/>
      <point x="152" y="295" type="line"/>
    </contour>
  </outline>
</glyph>
<glyph name="fraction" format="1">
  <advance width="409"/>
  <unicode hex="2044"/>
  <outline>
    <contour>
      <point x="-29" y="0" type="line"/>
      <point x="42" y="0" type="line"/>
      <point x="453" y="700" type="line"/>
      <point x="381" y="700" type="line"/>
    </contour>
  </outline>
</glyph>
<glyph name="foursuperior" format="1">
  <advance width="313"/>
  <unicode hex="2074"/>
  <outline>
    <contour>
      <point x="194" y="352" type="line"/>
      <point x="250" y="352" type="line"/>
      <point x="250" y="420" type="line"/>
      <point x="298" y="420" type="line"/>
      <point x="298" y="469" type="line"/>
      <point x="250" y="469" type="line"/>
      <point x="250" y="700" type="line"/>
      <point x="186" y="700" type="line"/>
      <point x="20" y="464" type="line"/>
      <point x="20" y="420" type="line"/>
      <point x="194" y="420" type="line"/>
    </contour>
    <contour>
      <point x="81" y="469" type="line"/>
      <point x="198" y="638" type="line"/>
      <point x="198" y="469" type="line"/>
    </contour>
  </outline>
</glyph>
<glyph name="rupee" format="1">
  <advance width="1074"/>
  <unicode hex="20A8"/>
  <outline>
    <contour>
      <point x="80" y="0" type="line"/>
      <point x="150" y="0" type="line"/>
      <point x="150" y="294" type="line"/>
      <point x="291" y="294" type="line" smooth="yes"/>
      <point x="455" y="294"/>
      <point x="527" y="382"/>
      <point x="527" y="496" type="curve" smooth="yes"/>
      <point x="527" y="611"/>
      <point x="453" y="699"/>
      <point x="291" y="699" type="curve" smooth="yes"/>
      <point x="80" y="699" type="line"/>
    </contour>
    <contour>
      <point x="450" y="0" type="line"/>
      <point x="536" y="0" type="line"/>
      <point x="325" y="315" type="line"/>
      <point x="244" y="315" type="line"/>
    </contour>
    <contour>
      <point x="150" y="351" type="line"/>
      <point x="150" y="643" type="line"/>
      <point x="291" y="643" type="line" smooth="yes"/>
      <point x="409" y="643"/>
      <point x="455" y="585"/>
      <point x="455" y="496" type="curve" smooth="yes"/>
      <point x="455" y="410"/>
      <point x="409" y="351"/>
      <point x="291" y="351" type="curve" smooth="yes"/>
    </contour>
    <contour>
      <point x="810" y="-8" type="curve" smooth="yes"/>
      <point x="921" y="-8"/>
      <point x="998" y="54"/>
      <point x="998" y="144" type="curve"/>
      <point x="998" y="353"/>
      <point x="669" y="249"/>
      <point x="669" y="402" type="curve"/>
      <point x="669" y="457"/>
      <point x="712" y="498"/>
      <point x="789" y="498" type="curve" smooth="yes"/>
      <point x="872" y="498"/>
      <point x="915" y="447"/>
      <point x="921" y="383" type="curve"/>
      <point x="992" y="383" type="line"/>
      <point x="984" y="488"/>
      <point x="908" y="554"/>
      <point x="793" y="554" type="curve" smooth="yes"/>
      <point x="674" y="554"/>
      <point x="600" y="488"/>
      <point x="600" y="400" type="curve"/>
      <point x="600" y="200"/>
      <point x="929" y="301"/>
      <point x="929" y="145" type="curve"/>
      <point x="929" y="90"/>
      <point x="887" y="48"/>
      <point x="811" y="48" type="curve" smooth="yes"/>
      <point x="724" y="48"/>
      <point x="675" y="98"/>
      <point x="669" y="163" type="curve"/>
      <point x="597" y="163" type="line"/>
      <point x="607" y="55"/>
      <point x="690" y="-8"/>
    </contour>
  </outline>
</glyph>
<glyph name="euro" format="1">
  <advance width="770"/>
  <unicode hex="20AC"/>
  <outline>
    <contour>
      <point x="23" y="244" type="line"/>
      <point x="455" y="244" type="line"/>
      <point x="455" y="302" type="line"/>
      <point x="23" y="302" type="line"/>
    </contour>
    <contour>
      <point x="23" y="399" type="line"/>
      <point x="455" y="399" type="line"/>
      <point x="455" y="457" type="line"/>
      <point x="23" y="457" type="line"/>
    </contour>
    <component base="C" xOffset="55"/>
  </outline>
</glyph>
<glyph name="ruble" format="1">
  <advance width="613"/>
  <unicode hex="20BD"/>
  <outline>
    <contour>
      <point x="129" y="0" type="line"/>
      <point x="199" y="0" type="line"/>
      <point x="199" y="643" type="line"/>
      <point x="340" y="643" type="line" smooth="yes"/>
      <point x="458" y="643"/>
      <point x="505" y="588"/>
      <point x="505" y="498" type="curve" smooth="yes"/>
      <point x="505" y="412"/>
      <point x="458" y="356"/>
      <point x="340" y="356" type="curve" smooth="yes"/>
      <point x="44" y="356" type="line"/>
      <point x="44" y="298" type="line"/>
      <point x="340" y="298" type="line" smooth="yes"/>
      <point x="505" y="298"/>
      <point x="576" y="385"/>
      <point x="576" y="498" type="curve" smooth="yes"/>
      <point x="576" y="613"/>
      <point x="503" y="699"/>
      <point x="340" y="699" type="curve" smooth="yes"/>
      <point x="129" y="699" type="line"/>
    </contour>
    <contour>
      <point x="44" y="133" type="line"/>
      <point x="433" y="133" type="line"/>
      <point x="433" y="190" type="line"/>
      <point x="44" y="190" type="line"/>
    </contour>
  </outline>
</glyph>
<glyph name="trademark" format="1">
  <advance width="754"/>
  <unicode hex="2122"/>
  <outline>
    <contour>
      <point x="320" y="348" type="line"/>
      <point x="372" y="348" type="line"/>
      <point x="372" y="654" type="line"/>
      <point x="355" y="660" type="line"/>
      <point x="489" y="348" type="line"/>
      <point x="531" y="348" type="line"/>
      <point x="668" y="660" type="line"/>
      <point x="649" y="654" type="line"/>
      <point x="650" y="348" type="line"/>
      <point x="703" y="348" type="line"/>
      <point x="703" y="700" type="line"/>
      <point x="635" y="700" type="line"/>
      <point x="500" y="390" type="line"/>
      <point x="522" y="390" type="line"/>
      <point x="391" y="700" type="line"/>
      <point x="320" y="700" type="line"/>
    </contour>
    <contour>
      <point x="117" y="348" type="line"/>
      <point x="175" y="348" type="line"/>
      <point x="174" y="654" type="line"/>
      <point x="265" y="654" type="line"/>
      <point x="265" y="700" type="line"/>
      <point x="27" y="700" type="line"/>
      <point x="27" y="654" type="line"/>
      <point x="118" y="654" type="line"/>
    </contour>
  </outline>
</glyph>
<glyph name="Ohm" format="1">
  <advance width="789"/>
  <unicode hex="2126"/>
  <outline>
    <contour>
      <point x="58" y="0" type="line"/>
      <point x="334" y="0" type="line"/>
      <point x="334" y="59" type="line"/>
      <point x="207" y="84"/>
      <point x="114" y="196"/>
      <point x="114" y="352" type="curve" smooth="yes"/>
      <point x="114" y="529"/>
      <point x="233" y="649"/>
      <point x="394" y="649" type="curve" smooth="yes"/>
      <point x="552" y="649"/>
      <point x="675" y="532"/>
      <point x="675" y="352" type="curve" smooth="yes"/>
      <point x="675" y="196"/>
      <point x="582" y="84"/>
      <point x="455" y="59" type="curve"/>
      <point x="455" y="0" type="line"/>
      <point x="730" y="0" type="line"/>
      <point x="730" y="56" type="line"/>
      <point x="534" y="56" type="line"/>
      <point x="548" y="43" type="line"/>
      <point x="675" y="89"/>
      <point x="746" y="215"/>
      <point x="746" y="355" type="curve" smooth="yes"/>
      <point x="746" y="566"/>
      <point x="590" y="712"/>
      <point x="394" y="712" type="curve" smooth="yes"/>
      <point x="199" y="712"/>
      <point x="44" y="566"/>
      <point x="44" y="355" type="curve" smooth="yes"/>
      <point x="44" y="215"/>
      <point x="114" y="89"/>
      <point x="241" y="43" type="curve"/>
      <point x="254" y="56" type="line"/>
      <point x="58" y="56" type="line"/>
    </contour>
  </outline>
</glyph>
<glyph name="partialdiff" format="1">
  <advance width="559"/>
  <unicode hex="2202"/>
  <outline>
    <contour>
      <point x="228" y="-10" type="curve" smooth="yes"/>
      <point x="393" y="-10"/>
      <point x="519" y="153"/>
      <point x="519" y="414" type="curve" smooth="yes"/>
      <point x="519" y="628"/>
      <point x="435" y="740"/>
      <point x="292" y="740" type="curve" smooth="yes"/>
      <point x="262" y="740"/>
      <point x="234" y="736"/>
      <point x="201" y="727" type="curve"/>
      <point x="201" y="683" type="line"/>
      <point x="231" y="691"/>
      <point x="257" y="696"/>
      <point x="283" y="696" type="curve" smooth="yes"/>
      <point x="407" y="696"/>
      <point x="447" y="582"/>
      <point x="448" y="432" type="curve"/>
      <point x="428" y="528"/>
      <point x="372" y="556"/>
      <point x="305" y="556" type="curve" smooth="yes"/>
      <point x="145" y="556"/>
      <point x="40" y="391"/>
      <point x="40" y="216" type="curve" smooth="yes"/>
      <point x="40" y="61"/>
      <point x="125" y="-10"/>
    </contour>
    <contour>
      <point x="235" y="50" type="curve" smooth="yes"/>
      <point x="166" y="50"/>
      <point x="111" y="101"/>
      <point x="111" y="216" type="curve" smooth="yes"/>
      <point x="111" y="374"/>
      <point x="193" y="497"/>
      <point x="308" y="497" type="curve" smooth="yes"/>
      <point x="387" y="497"/>
      <point x="436" y="443"/>
      <point x="436" y="328" type="curve" smooth="yes"/>
      <point x="436" y="181"/>
      <point x="355" y="50"/>
    </contour>
  </outline>
</glyph>
<glyph name="increment" format="1">
  <advance width="690"/>
  <unicode hex="2206"/>
  <outline>
    <contour>
      <point x="32" y="0" type="line"/>
      <point x="658" y="0" type="line"/>
      <point x="658" y="55" type="line"/>
      <point x="374" y="700" type="line"/>
      <point x="315" y="700" type="line"/>
      <point x="32" y="55" type="line"/>
    </contour>
    <contour>
      <point x="103" y="55" type="line"/>
      <point x="344" y="620" type="line"/>
      <point x="587" y="55" type="line"/>
    </contour>
  </outline>
</glyph>
<glyph name="product" format="1">
  <advance width="722"/>
  <unicode hex="220F"/>
  <outline>
    <contour>
      <point x="121" y="0" type="line"/>
      <point x="191" y="0" type="line"/>
      <point x="191" y="644" type="line"/>
      <point x="531" y="644" type="line"/>
      <point x="531" y="0" type="line"/>
      <point x="601" y="0" type="line"/>
      <point x="601" y="644" type="line"/>
      <point x="682" y="644" type="line"/>
      <point x="682" y="700" type="line"/>
      <point x="40" y="700" type="line"/>
      <point x="40" y="644" type="line"/>
      <point x="121" y="644" type="line"/>
    </contour>
  </outline>
</glyph>
<glyph name="summation" format="1">
  <advance width="436"/>
  <unicode hex="2211"/>
  <outline>
    <contour>
      <point x="40" y="-49" type="line"/>
      <point x="419" y="-49" type="line"/>
      <point x="419" y="6" type="line"/>
      <point x="80" y="6" type="line"/>
      <point x="83" y="-11" type="line"/>
      <point x="368" y="299" type="line"/>
      <point x="368" y="355" type="line"/>
      <point x="83" y="662" type="line"/>
      <point x="87" y="645" type="line"/>
      <point x="419" y="645" type="line"/>
      <point x="419" y="700" type="line"/>
      <point x="40" y="700" type="line"/>
      <point x="40" y="620" type="line"/>
      <point x="306" y="325" type="line"/>
      <point x="40" y="31" type="line"/>
    </contour>
  </outline>
</glyph>
<glyph name="minus" format="1">
  <advance width="519"/>
  <unicode hex="2212"/>
  <outline>
    <contour>
      <point x="65" y="261" type="line"/>
      <point x="454" y="261" type="line"/>
      <point x="454" y="321" type="line"/>
      <point x="65" y="321" type="line"/>
    </contour>
  </outline>
</glyph>
<glyph name="radical" format="1">
  <advance width="690"/>
  <unicode hex="221A"/>
  <outline>
    <contour>
      <point x="219" y="-44" type="line"/>
      <point x="253" y="-44" type="line"/>
      <point x="734" y="859" type="line"/>
      <point x="681" y="859" type="line"/>
      <point x="240" y="29" type="line"/>
      <point x="259" y="23" type="line"/>
      <point x="138" y="236" type="line"/>
      <point x="18" y="167" type="line"/>
      <point x="40" y="128" type="line"/>
      <point x="101" y="163" type="line"/>
    </contour>
  </outline>
</glyph>
<glyph name="infinity" format="1">
  <advance width="691"/>
  <unicode hex="221E"/>
  <outline>
    <contour>
      <point x="182" y="145" type="curve" smooth="yes"/>
      <point x="275" y="144"/>
      <point x="336" y="218"/>
      <point x="360" y="288" type="curve"/>
      <point x="327" y="317" type="line"/>
      <point x="300" y="249"/>
      <point x="249" y="198"/>
      <point x="185" y="198" type="curve" smooth="yes"/>
      <point x="132" y="198"/>
      <point x="98" y="232"/>
      <point x="98" y="286" type="curve" smooth="yes"/>
      <point x="98" y="342"/>
      <point x="134" y="378"/>
      <point x="184" y="378" type="curve" smooth="yes"/>
      <point x="312" y="378"/>
      <point x="340" y="145"/>
      <point x="505" y="145" type="curve"/>
      <point x="587" y="145"/>
      <point x="653" y="198"/>
      <point x="653" y="289" type="curve" smooth="yes"/>
      <point x="653" y="378"/>
      <point x="590" y="430"/>
      <point x="509" y="430" type="curve" smooth="yes"/>
      <point x="416" y="431"/>
      <point x="354" y="357"/>
      <point x="331" y="287" type="curve"/>
      <point x="364" y="258" type="line"/>
      <point x="391" y="326"/>
      <point x="442" y="377"/>
      <point x="506" y="377" type="curve" smooth="yes"/>
      <point x="559" y="377"/>
      <point x="593" y="343"/>
      <point x="593" y="288" type="curve" smooth="yes"/>
      <point x="593" y="233"/>
      <point x="558" y="197"/>
      <point x="502" y="197" type="curve"/>
      <point x="373" y="197"/>
      <point x="349" y="430"/>
      <point x="182" y="430" type="curve" smooth="yes"/>
      <point x="103" y="430"/>
      <point x="38" y="377"/>
      <point x="38" y="286" type="curve" smooth="yes"/>
      <point x="38" y="197"/>
      <point x="101" y="145"/>
    </contour>
  </outline>
</glyph>
<glyph name="integral" format="1">
  <advance width="253"/>
  <unicode hex="222B"/>
  <outline>
    <contour>
      <point x="-36" y="-179" type="line"/>
      <point x="-11" y="-179" type="line" smooth="yes"/>
      <point x="73" y="-179"/>
      <point x="110" y="-139"/>
      <point x="120" y="-50" type="curve" smooth="yes"/>
      <point x="213" y="786" type="line" smooth="yes"/>
      <point x="219" y="837"/>
      <point x="239" y="852"/>
      <point x="274" y="852" type="curve" smooth="yes"/>
      <point x="293" y="852" type="line"/>
      <point x="299" y="911" type="line"/>
      <point x="276" y="911" type="line" smooth="yes"/>
      <point x="196" y="911"/>
      <point x="153" y="874"/>
      <point x="143" y="786" type="curve" smooth="yes"/>
      <point x="50" y="-50" type="line" smooth="yes"/>
      <point x="44" y="-104"/>
      <point x="31" y="-121"/>
      <point x="-8" y="-121" type="curve" smooth="yes"/>
      <point x="-30" y="-121" type="line"/>
    </contour>
  </outline>
</glyph>
<glyph name="notequal" format="1">
  <advance width="520"/>
  <unicode hex="2260"/>
  <outline>
    <contour>
      <point x="121" y="93" type="line"/>
      <point x="188" y="93" type="line"/>
      <point x="399" y="489" type="line"/>
      <point x="331" y="489" type="line"/>
    </contour>
    <component base="equal" identifier="A0039756"/>
  </outline>
</glyph>
